<svg width="17" height="16" viewBox="0 0 17 16" fill="none" xmlns="http://www.w3.org/2000/svg">
<path d="M1.22142 0.15774L7.99942 6.93074L14.7054 0.22574C15.1624 -0.18126 15.6354 0.0617402 15.8244 0.26574C15.9457 0.413474 16.0082 0.600706 16.0001 0.791643C15.992 0.98258 15.9138 1.16383 15.7804 1.30074L9.07342 8.00474L15.7804 14.7067C16.0784 14.9567 16.0784 15.4467 15.8394 15.7207C15.5994 15.9937 15.1594 16.1517 14.7444 15.8277L7.99942 9.07874L1.24642 15.8307C0.950418 16.0957 0.462418 16.0417 0.221418 15.7787C-0.0205821 15.5147 -0.112582 15.0587 0.196418 14.7367L6.92542 8.00474L0.224418 1.30074C-0.0205823 1.03074 -0.105582 0.53674 0.224418 0.22574C0.554418 -0.08526 1.04642 -0.0422599 1.22142 0.15774Z" fill="black"/>
</svg>
