<svg width="18" height="18" viewBox="0 0 18 18" fill="none" xmlns="http://www.w3.org/2000/svg">
<path d="M16.0665 1.77576C15.5218 1.25376 14.9209 0.989258 14.2794 0.989258C13.2764 0.989258 12.5446 1.63726 12.3443 1.83576C12.0626 2.11476 2.45134 11.7295 2.45134 11.7295C2.38834 11.7928 2.34286 11.8714 2.31935 11.9575C2.1026 12.7585 1.01685 16.3125 1.00607 16.3483C0.950339 16.5303 1.00007 16.7285 1.13432 16.8628C1.22903 16.9572 1.35731 17.0102 1.49106 17.0103C1.54281 17.0103 1.59504 17.0025 1.64604 16.9857C1.68279 16.9738 5.35129 15.788 5.95503 15.6078C6.03468 15.5838 6.10728 15.5407 6.16653 15.4823C6.54803 15.1053 15.5123 6.24076 16.1073 5.62626C16.7228 4.99201 17.0285 4.33151 17.0168 3.66351C17.0045 3.00401 16.6848 2.36901 16.0665 1.77576ZM12.1851 3.43476C12.4399 3.49651 13.0406 3.69823 13.6541 4.31724C14.2741 4.94274 14.4419 5.65774 14.4731 5.82049C12.5071 7.77624 7.98162 12.2537 6.19762 14.0185C6.03287 13.6347 5.76662 13.1725 5.33836 12.741C4.81537 12.214 4.2831 11.9163 3.8726 11.7488C5.6381 9.98301 10.2489 5.37026 12.1851 3.43476ZM3.19362 12.5927C3.46837 12.6657 4.0391 12.8775 4.62087 13.464C5.06887 13.9157 5.28037 14.414 5.37537 14.7177C4.68037 14.9412 3.15862 15.4665 2.19162 15.7782C2.47812 14.8355 2.9621 13.3672 3.19362 12.5927ZM15.3816 4.91173C15.3501 4.94389 15.3185 4.97597 15.2868 5.00798C15.1288 4.60096 14.8516 4.07798 14.3716 3.59398C13.8811 3.09948 13.3836 2.80773 12.9849 2.63523C13.0188 2.60148 13.0451 2.57496 13.0553 2.56498C13.1126 2.50846 13.6319 2.01223 14.2791 2.01223C14.6516 2.01223 15.0173 2.18223 15.3669 2.51723C15.7811 2.91448 15.9946 3.30648 16.0016 3.68273C16.0083 4.06673 15.7998 4.48023 15.3816 4.91173Z" fill="#C5C5CE"/>
</svg>
