<svg width="18" height="18" viewBox="0 0 18 18" fill="none" xmlns="http://www.w3.org/2000/svg">
<path fill-rule="evenodd" clip-rule="evenodd" d="M1.53734 8.72931C1.53734 12.788 4.48001 15.5533 7.78534 16.1253C7.87526 16.1409 7.96122 16.174 8.03832 16.2228C8.11543 16.2716 8.18216 16.3352 8.23472 16.4098C8.28728 16.4844 8.32463 16.5686 8.34464 16.6576C8.36465 16.7466 8.36693 16.8387 8.35134 16.9286C8.33576 17.0186 8.30262 17.1045 8.25381 17.1816C8.20501 17.2587 8.1415 17.3255 8.0669 17.378C7.9923 17.4306 7.90808 17.4679 7.81905 17.4879C7.73002 17.5079 7.63792 17.5102 7.54801 17.4946C3.66668 16.8226 0.14801 13.5506 0.14801 8.72931C0.14801 6.67998 1.08001 5.06931 2.16801 3.84531C2.94801 2.96798 3.84001 2.25464 4.55734 1.70931H2.37601C2.1992 1.70931 2.02963 1.63907 1.90461 1.51405C1.77958 1.38902 1.70934 1.21945 1.70934 1.04264C1.70934 0.865832 1.77958 0.696263 1.90461 0.571239C2.02963 0.446215 2.1992 0.375977 2.37601 0.375977H6.37601C6.55282 0.375977 6.72239 0.446215 6.84741 0.571239C6.97244 0.696263 7.04268 0.865832 7.04268 1.04264V5.04264C7.04268 5.21945 6.97244 5.38902 6.84741 5.51405C6.72239 5.63907 6.55282 5.70931 6.37601 5.70931C6.1992 5.70931 6.02963 5.63907 5.90461 5.51405C5.77958 5.38902 5.70934 5.21945 5.70934 5.04264V2.58131L5.70801 2.58398C4.94534 3.15731 4.01468 3.85998 3.20801 4.76798C2.25468 5.83998 1.53734 7.13731 1.53734 8.72931ZM16.348 9.26931C16.348 5.25331 13.468 2.50531 10.2053 1.89198C10.1144 1.87655 10.0275 1.84316 9.94956 1.79377C9.87167 1.74438 9.80439 1.67997 9.75165 1.6043C9.69891 1.52863 9.66176 1.44322 9.64239 1.35304C9.62301 1.26287 9.62178 1.16973 9.63878 1.07908C9.65578 0.988424 9.69066 0.902062 9.74139 0.825031C9.79212 0.748 9.85768 0.681842 9.93425 0.630418C10.0108 0.578994 10.0969 0.543333 10.1874 0.525516C10.2779 0.507699 10.371 0.508082 10.4613 0.526643C14.2933 1.24664 17.7373 4.49998 17.7373 9.26931C17.7373 11.3186 16.8053 12.928 15.7173 14.1533C14.9373 15.0306 14.0453 15.744 13.328 16.2893H15.5093C15.6862 16.2893 15.8557 16.3595 15.9807 16.4846C16.1058 16.6096 16.176 16.7792 16.176 16.956C16.176 17.1328 16.1058 17.3024 15.9807 17.4274C15.8557 17.5524 15.6862 17.6226 15.5093 17.6226H11.5093C11.3325 17.6226 11.163 17.5524 11.0379 17.4274C10.9129 17.3024 10.8427 17.1328 10.8427 16.956V12.956C10.8427 12.7792 10.9129 12.6096 11.0379 12.4846C11.163 12.3595 11.3325 12.2893 11.5093 12.2893C11.6862 12.2893 11.8557 12.3595 11.9807 12.4846C12.1058 12.6096 12.176 12.7792 12.176 12.956V15.416H12.1787C12.94 14.84 13.872 14.1386 14.6773 13.2293C15.6307 12.1586 16.348 10.8626 16.348 9.26931Z" fill="white"/>
</svg>
