<svg width="111" height="80" viewBox="0 0 111 80" fill="none" xmlns="http://www.w3.org/2000/svg">
<g clip-path="url(#clip0_21_189)">
<path d="M26.043 12.2219C30.7544 5.08315 33.1078 1.51493 36.0293 0.442335C43.6055 -2.34215 47.7818 8.83368 61.9895 10.5361C70.1267 11.5116 71.4241 8.16834 84.0952 9.14622C89.8602 9.59373 94.0223 9.9631 98.6249 12.5842C101.177 14.0404 108.547 18.8564 110.519 27.9107C112.795 38.3691 106.194 46.7865 104.901 48.3587C95.5991 59.6648 78.0438 60.5503 67.1247 58.3033C56.7311 56.1723 55.5237 51.8701 44.3228 51.0793C35.6387 50.4684 34.1424 52.9001 24.3407 52.1803C16.3811 51.5978 7.55248 50.9514 2.86237 44.3832C-1.9177 37.6896 0.613202 29.0709 1.07251 27.4987C3.51345 19.2163 10.8741 12.1699 14.165 13.4958C17.3233 14.7578 21.3979 19.2708 26.043 12.2219Z" fill="#FFF5F5" fill-opacity="0.57"/>
<path d="M74.1587 37.1597C84.5451 38.5235 83.4158 47.8312 83.4158 47.8312L75.9154 44.9733L74.1587 37.1597Z" fill="#FBAC39"/>
<path d="M83.1672 44.5469C81.9645 44.6676 80.7594 44.7647 79.5543 44.8571C78.3492 44.9494 77.1418 45.0228 75.9367 45.1057L75.9533 44.8689L77.8284 45.2596C78.4534 45.3922 79.0784 45.5153 79.7035 45.655L81.5738 46.0693C82.1965 46.2161 82.8192 46.3558 83.4395 46.5097C82.8073 46.4079 82.1799 46.2943 81.5454 46.1854L79.6514 45.8373C79.024 45.7237 78.399 45.6005 77.7716 45.4727L75.8917 45.0986C75.8762 45.0975 75.861 45.0933 75.8471 45.0864C75.8331 45.0794 75.8207 45.0698 75.8104 45.058C75.7898 45.0343 75.7794 45.0033 75.7816 44.9719C75.7838 44.9405 75.7984 44.9113 75.8222 44.8906C75.8459 44.87 75.8769 44.8596 75.9083 44.8618C77.1157 44.7979 78.3208 44.7197 79.5283 44.6676C80.7357 44.6155 81.9574 44.5729 83.1672 44.5469Z" fill="#B91D34"/>
<path d="M82.4663 42.5151C81.9384 42.7661 81.4033 42.9887 80.8683 43.2255C80.3332 43.4622 79.7887 43.6611 79.2465 43.8695C78.7043 44.0779 78.1574 44.2767 77.6058 44.4638L76.7795 44.7432C76.5001 44.8261 76.2255 44.9184 75.9438 44.9965C76.2066 44.8687 76.4741 44.7598 76.7369 44.6343L77.5418 44.2933C78.0769 44.0566 78.6191 43.8577 79.1636 43.6493C79.7082 43.4409 80.2527 43.242 80.802 43.055C81.3512 42.8679 81.9171 42.6738 82.4663 42.5151Z" fill="#B91D34"/>
<path d="M76.7465 37.7253C76.6565 38.9399 76.5429 40.1546 76.4245 41.3669C76.3061 42.5792 76.1712 43.7915 76.0457 45.0014C76.0457 45.0328 76.0332 45.0629 76.011 45.0851C75.9888 45.1073 75.9587 45.1198 75.9273 45.1198C75.8959 45.1198 75.8658 45.1073 75.8436 45.0851C75.8214 45.0629 75.8089 45.0328 75.8089 45.0014L75.5248 43.067C75.4349 42.4206 75.3354 41.7765 75.2502 41.1278L74.9921 39.1886C74.9164 38.5422 74.8311 37.8934 74.7554 37.2446C74.8809 37.8863 74.9921 38.5303 75.1058 39.172L75.4301 41.1017C75.539 41.7434 75.6337 42.3898 75.7355 43.0338L76.0338 44.9659H75.7971C75.9439 43.7583 76.0741 42.546 76.2327 41.3385C76.3913 40.1309 76.5642 38.9305 76.7465 37.7253Z" fill="#B91D34"/>
<path d="M78.2734 38.3359C78.1266 38.9042 77.9538 39.4654 77.7762 40.0241C77.5987 40.5829 77.4116 41.1394 77.2199 41.6934C77.0281 42.2475 76.8269 42.7992 76.6138 43.3509L76.2894 44.1701C76.1758 44.44 76.0669 44.7123 75.9438 44.9799C76.0172 44.6957 76.1024 44.414 76.1805 44.1298L76.4409 43.2893C76.6138 42.7305 76.8055 42.1741 76.9973 41.62C77.1891 41.066 77.3927 40.5166 77.6058 39.9626C77.8189 39.4085 78.0343 38.8711 78.2734 38.3359Z" fill="#B91D34"/>
<path d="M79.9593 39.3804C79.3295 40.344 78.6784 41.2935 78.025 42.2383C77.703 42.7118 77.3644 43.1854 77.0353 43.6589L76.0386 45.0654L75.8705 44.9044L77.2176 43.8389C77.6698 43.4861 78.1149 43.1285 78.5719 42.7781L79.9356 41.7316C80.3949 41.3882 80.8495 41.0402 81.3135 40.7039C80.8826 41.0828 80.4422 41.4498 80.0066 41.8215L78.6855 42.9202C78.2475 43.2895 77.7977 43.6447 77.3526 44.007L76.0173 45.089C75.995 45.1069 75.967 45.1161 75.9385 45.1149C75.91 45.1137 75.8828 45.1023 75.8621 45.0827C75.8413 45.0631 75.8283 45.0366 75.8255 45.0082C75.8227 44.9798 75.8303 44.9513 75.8468 44.928L76.8602 43.5334C77.1987 43.0599 77.5325 42.5863 77.8782 42.1388C78.5624 41.1988 79.2514 40.2872 79.9593 39.3804Z" fill="#B91D34"/>
<path d="M75.5366 43.27C77.8071 43.5684 77.5608 45.6046 77.5608 45.6046L75.9201 44.9866L75.5366 43.27Z" fill="#B91D34"/>
<path d="M75.9225 44.9824L74.5044 46.2113" stroke="#B91D34" stroke-width="0.157012" stroke-linecap="round" stroke-linejoin="round"/>
<path d="M36.2779 19.1528C46.2216 15.8924 43.4019 6.9541 43.4019 6.9541L36.5573 11.1474L36.2779 19.1528Z" fill="#FBAC39"/>
<path d="M43.7641 10.2262C42.5803 10.4251 41.3752 10.598 40.1772 10.7661C38.9793 10.9342 37.7813 11.0857 36.5833 11.2396C36.5526 11.2437 36.5215 11.2356 36.4967 11.217C36.4719 11.1984 36.4554 11.1708 36.4507 11.1402C36.4477 11.1141 36.4532 11.0878 36.4664 11.0651C36.4797 11.0425 36.4999 11.0248 36.5241 11.0147L38.3021 10.3044C38.8964 10.0676 39.4859 9.83081 40.0825 9.59403L41.87 8.90264C42.4714 8.68244 43.0656 8.45277 43.6694 8.2373C43.0893 8.5096 42.4998 8.76058 41.9056 9.02103L40.1441 9.77398C39.5569 10.025 38.9603 10.2641 38.3755 10.5104L36.6022 11.2396L36.5454 11.0147C37.7458 10.875 38.9438 10.7187 40.1465 10.5909C41.3492 10.463 42.559 10.3304 43.7641 10.2262Z" fill="#B91D34"/>
<path d="M43.4492 12.3548C42.8691 12.3004 42.2938 12.2199 41.7185 12.137C41.1432 12.0541 40.5679 11.9571 39.9949 11.8576C39.422 11.7582 38.8514 11.6469 38.2832 11.5238L37.4309 11.3367C37.1492 11.268 36.8651 11.2041 36.5833 11.126C36.8745 11.152 37.161 11.1923 37.4522 11.2231L38.3164 11.3438C38.8917 11.4243 39.4646 11.5238 40.0376 11.6232C40.6105 11.7227 41.1811 11.8339 41.7493 11.9594C42.3175 12.0849 42.8857 12.2033 43.4492 12.3548Z" fill="#B91D34"/>
<path d="M38.7142 18.1177C38.3117 16.967 37.9329 15.8092 37.5564 14.6513C37.18 13.4935 36.8249 12.3262 36.4579 11.166L36.6946 11.1257L36.7586 13.0815C36.7775 13.7326 36.8035 14.3861 36.8154 15.0373L36.8533 16.993C36.8533 17.6465 36.8698 18.2977 36.8533 18.9512C36.8012 18.3001 36.7657 17.6489 36.723 16.9978L36.6165 15.0444C36.581 14.3932 36.5597 13.7421 36.5289 13.0886L36.4603 11.1281C36.459 11.1126 36.4609 11.097 36.4658 11.0823C36.4708 11.0675 36.4788 11.054 36.4892 11.0424C36.4996 11.0309 36.5123 11.0216 36.5265 11.0152C36.5406 11.0087 36.556 11.0053 36.5715 11.005C36.5973 11.0039 36.6227 11.0115 36.6438 11.0265C36.6648 11.0415 36.6802 11.0631 36.6875 11.0879C37.0356 12.2575 37.3978 13.4201 37.734 14.5921C38.0702 15.7642 38.4016 16.941 38.7142 18.1177Z" fill="#B91D34"/>
<path d="M40.1039 17.2366C39.7677 16.7631 39.4552 16.2564 39.1569 15.7568C38.8586 15.2572 38.5508 14.7529 38.2548 14.2461C37.9589 13.7394 37.6724 13.228 37.3978 12.7095L36.9882 11.9305C36.858 11.6677 36.7207 11.4072 36.5976 11.1396C36.768 11.3764 36.9243 11.6298 37.0876 11.8737L37.5612 12.6195C37.8737 13.1167 38.1696 13.6234 38.4632 14.1301C38.7568 14.6368 39.0456 15.1483 39.3202 15.6668C39.5949 16.1853 39.8529 16.7039 40.1039 17.2366Z" fill="#B91D34"/>
<path d="M41.5671 15.8967C40.7029 15.1367 39.8553 14.3577 39.0125 13.5763C38.5863 13.1904 38.1744 12.7902 37.7553 12.3925L36.5005 11.2086C36.4895 11.1978 36.4807 11.1849 36.4748 11.1707C36.4688 11.1564 36.4657 11.1411 36.4657 11.1257C36.4657 11.1103 36.4688 11.095 36.4748 11.0808C36.4807 11.0665 36.4895 11.0536 36.5005 11.0428C36.5185 11.0242 36.5421 11.0118 36.5676 11.0075C36.5932 11.0032 36.6195 11.0073 36.6426 11.0192L38.1507 11.8384C38.655 12.1131 39.1617 12.3783 39.6612 12.66L41.1646 13.4958C41.6594 13.7823 42.1613 14.0617 42.6538 14.3553C42.1353 14.1186 41.6239 13.851 41.1101 13.5977L39.576 12.821C39.0622 12.5653 38.5579 12.293 38.0513 12.0278L36.5266 11.2323L36.6639 11.0405L37.9021 12.2409C38.3141 12.6434 38.7331 13.0389 39.138 13.4461C39.9548 14.2559 40.7692 15.0657 41.5671 15.8967Z" fill="#B91D34"/>
<path d="M36.5005 12.8916C38.6786 12.1813 38.0583 10.2231 38.0583 10.2231L36.562 11.1418L36.5005 12.8916Z" fill="#B91D34"/>
<path d="M36.5645 11.14L34.9427 10.1929" stroke="#B91D34" stroke-width="0.157012" stroke-linecap="round" stroke-linejoin="round"/>
<path d="M8.40475 15.9485C8.40475 15.9485 34.8029 35.0895 55.6041 9.26904C55.5781 9.28325 76.2586 33.6333 100.194 13.6139" stroke="#FECB5C" stroke-width="0.157012" stroke-linecap="round" stroke-linejoin="round"/>
<path d="M17.6335 20.6229C17.6335 20.6229 17.1363 24.525 16.1207 24.2219L19.1772 25.1287C19.1772 25.1287 20.7019 23.3742 20.5172 21.3853L17.6335 20.6229ZM31.5878 22.6473C31.5878 22.6473 32.4378 26.4878 31.3795 26.547L34.552 26.3718C34.552 26.3718 35.3925 24.2053 34.552 22.3964L31.5878 22.6473ZM39.4339 21.1817C39.4339 21.1817 41.2451 24.6741 40.2389 25.0033L43.2575 24.0183C43.2575 24.0183 43.5108 21.7073 42.2276 20.1778L39.4339 21.1817ZM46.7117 17.4075C46.7117 17.4075 49.3042 20.3672 48.4045 20.926L51.1012 19.2472C51.1012 19.2472 50.7981 16.9434 49.1882 15.7643L46.7117 17.4075ZM52.2257 13.2C52.2257 13.2 55.4338 15.4754 54.6903 16.2283L56.9229 13.9695C56.9229 13.9695 56.0919 11.7983 54.25 11.0264L52.2257 13.2ZM24.7078 22.375C24.7078 22.375 24.3289 26.0687 24.0922 26.0687C23.8554 26.0687 26.4597 26.7791 27.4068 26.3055C27.4068 26.3055 28.0199 23.5897 27.5962 22.6971C27.5962 22.6971 25.8063 22.7042 24.7078 22.375ZM61.7267 14.7698C61.7267 14.7698 60.1878 18.3901 59.2929 17.8242L61.9753 19.5243C61.9753 19.5243 63.919 18.2504 64.2813 16.2852L61.7267 14.7698ZM74.6038 20.5164C74.6038 20.5164 74.367 24.4421 73.3442 24.2124L76.4434 24.9062C76.4434 24.9062 77.8426 23.0499 77.5206 21.0799L74.6038 20.5164ZM82.5516 21.2409C82.5516 21.2409 83.3376 25.098 82.2865 25.1359L85.4613 25.008C85.4613 25.008 86.3326 22.8557 85.5158 21.0325L82.5516 21.2409ZM90.3479 19.5882C90.3479 19.5882 91.875 22.9338 90.857 23.2274L94.1715 22.2803C94.1715 22.2803 94.2165 19.8297 92.9878 18.2551L90.3479 19.5882ZM68.0575 18.3806C68.0575 18.3806 66.6867 21.8328 66.4594 21.7689C66.2321 21.705 68.5452 23.0972 69.5846 22.8983C69.5846 22.8983 70.9151 20.4524 70.747 19.4793C70.747 19.4793 69.014 18.9962 68.0575 18.3806Z" fill="#FECB5C"/>
<path d="M55.5285 23.0566V26.1276" stroke="#FBAC39" stroke-width="0.157012" stroke-miterlimit="10"/>
<path d="M51.6741 11.4053H59.3261V12.2008H51.6741V11.4053ZM51.6741 21.1249H59.3261V21.9205H51.6741V21.1249Z" fill="#FBAC39"/>
<path d="M58.2724 12.2031H52.7252C51.9694 12.6765 51.3463 13.3343 50.9143 14.1145C50.4824 14.8948 50.2558 15.7721 50.2558 16.664C50.2558 17.5559 50.4824 18.4331 50.9143 19.2134C51.3463 19.9937 51.9694 20.6514 52.7252 21.1248H58.2724C59.0282 20.6514 59.6514 19.9937 60.0833 19.2134C60.5153 18.4331 60.7419 17.5559 60.7419 16.664C60.7419 15.7721 60.5153 14.8948 60.0833 14.1145C59.6514 13.3343 59.0282 12.6765 58.2724 12.2031Z" fill="#B91D34"/>
<path d="M55.5284 23.0569C55.8409 23.0569 56.0943 22.8025 56.0943 22.4887C56.0943 22.1748 55.8409 21.9204 55.5284 21.9204C55.2159 21.9204 54.9626 22.1748 54.9626 22.4887C54.9626 22.8025 55.2159 23.0569 55.5284 23.0569Z" fill="#B91D34"/>
<path d="M54.7921 26.1279H56.0375C56.0375 26.1279 57.1147 31.6969 56.7762 33.3449L56.3784 33.0039L54.2808 33.3449C54.2808 33.3449 55.5853 26.4689 54.7921 26.1279Z" fill="#B91D34"/>
<path d="M54.5862 12.2031C54.5862 12.2031 52.2186 17.147 54.5862 21.1248H56.717C59.0845 17.147 56.717 12.2031 56.717 12.2031H54.5862Z" fill="#D01D35"/>
<path d="M55.5001 11.4053V8.94043" stroke="#FBAC39" stroke-width="0.157012" stroke-miterlimit="10"/>
<path d="M56.4116 30.9766C56.5178 31.307 56.5706 31.6523 56.5679 31.9994C56.5719 32.3499 56.4906 32.696 56.3311 33.0081C56.3666 32.6648 56.3761 32.3333 56.3785 31.9971C56.3808 31.6608 56.3856 31.3246 56.4116 30.9766Z" fill="#D33333"/>
<path d="M99.9318 25.3491V27.8495" stroke="#FBAC39" stroke-width="0.157012" stroke-miterlimit="10"/>
<path d="M96.7924 15.8613H103.024V16.5101H96.7924V15.8613ZM96.7924 23.7744H103.024V24.4232H96.7924V23.7744Z" fill="#FBAC39"/>
<path d="M102.167 16.5078H97.6495C97.0341 16.8936 96.5267 17.4293 96.1751 18.0648C95.8234 18.7004 95.6389 19.4148 95.6389 20.1411C95.6389 20.8675 95.8234 21.5819 96.1751 22.2174C96.5267 22.853 97.0341 23.3887 97.6495 23.7745H102.167C102.783 23.3891 103.291 22.8535 103.643 22.218C103.995 21.5824 104.179 20.8677 104.179 20.1411C104.179 19.4146 103.995 18.6999 103.643 18.0643C103.291 17.4288 102.783 16.8931 102.167 16.5078Z" fill="#B91D34"/>
<path d="M99.9317 25.3492C100.187 25.3492 100.393 25.1425 100.393 24.8875C100.393 24.6325 100.187 24.4258 99.9317 24.4258C99.6767 24.4258 99.47 24.6325 99.47 24.8875C99.47 25.1425 99.6767 25.3492 99.9317 25.3492Z" fill="#B91D34"/>
<path d="M99.3329 27.8491H100.349C100.349 27.8491 101.225 32.3834 100.948 33.7259L100.621 33.4489L98.9138 33.7259C98.9138 33.7259 99.9792 28.1261 99.3329 27.8491Z" fill="#B91D34"/>
<path d="M99.1647 16.5078C99.1647 16.5078 97.2447 20.533 99.1647 23.7745H100.895C102.818 20.5354 100.895 16.5078 100.895 16.5078H99.1647Z" fill="#D01D35"/>
<path d="M99.9082 15.8611V13.6733" stroke="#FBAC39" stroke-width="0.157012" stroke-miterlimit="10"/>
<path d="M100.652 31.7988C100.75 32.0646 100.798 32.3465 100.794 32.6299C100.802 32.9172 100.735 33.2016 100.597 33.4539C100.611 33.1674 100.616 32.9022 100.616 32.6299C100.613 32.3524 100.625 32.075 100.652 31.7988Z" fill="#D33333"/>
<path d="M8.509 27.5562V30.0541" stroke="#FBAC39" stroke-width="0.157012" stroke-miterlimit="10"/>
<path d="M5.37204 18.0684H11.6034V18.7171H5.37204V18.0684ZM5.37204 25.9814H11.6034V26.6302H5.37204V25.9814Z" fill="#FBAC39"/>
<path d="M10.7464 18.7046H6.22914C5.6132 19.0899 5.10534 19.6255 4.75327 20.2611C4.4012 20.8967 4.21649 21.6113 4.21649 22.3379C4.21649 23.0645 4.4012 23.7792 4.75327 24.4147C5.10534 25.0503 5.6132 25.5859 6.22914 25.9712H10.7464C11.3618 25.5855 11.8691 25.0497 12.2208 24.4142C12.5725 23.7787 12.757 23.0643 12.757 22.3379C12.757 21.6116 12.5725 20.8971 12.2208 20.2616C11.8691 19.6261 11.3618 19.0903 10.7464 18.7046Z" fill="#B91D34"/>
<path d="M8.50909 27.5533C8.76407 27.5533 8.97077 27.3466 8.97077 27.0916C8.97077 26.8366 8.76407 26.6299 8.50909 26.6299C8.25412 26.6299 8.04742 26.8366 8.04742 27.0916C8.04742 27.3466 8.25412 27.5533 8.50909 27.5533Z" fill="#B91D34"/>
<path d="M7.91002 30.0542H8.92569C8.92569 30.0542 9.80169 34.5908 9.52468 35.9333L9.2027 35.6563L7.4957 35.9333C7.4957 35.9333 8.55636 30.3336 7.91002 30.0542Z" fill="#B91D34"/>
<path d="M7.74195 18.7046C7.74195 18.7046 5.82187 22.7298 7.74195 25.9712H9.47026C11.3951 22.7416 9.47026 18.7046 9.47026 18.7046H7.74432" fill="#D01D35"/>
<path d="M8.48761 18.0682V15.8804" stroke="#FBAC39" stroke-width="0.157012" stroke-miterlimit="10"/>
<path d="M9.2334 34.0059C9.33008 34.2722 9.3782 34.5536 9.37545 34.8369C9.38227 35.1235 9.31369 35.4068 9.17657 35.6586C9.19078 35.3744 9.19552 35.1092 9.19788 34.8346C9.19458 34.5579 9.20644 34.2812 9.2334 34.0059Z" fill="#D33333"/>
<path d="M69.1039 29.5444C69.1039 29.5444 65.9243 36.0487 63.739 36.4109" stroke="#B91D34" stroke-width="0.157012" stroke-linecap="round" stroke-linejoin="round"/>
<path d="M63.4195 35.8853C63.293 36.1359 63.0746 36.3279 62.8098 36.421C62.545 36.5141 62.2544 36.5012 61.9989 36.3849C62.0671 36.5018 62.1112 36.6312 62.1286 36.7654C62.146 36.8997 62.1363 37.036 62.1001 37.1665C62.0639 37.2969 62.0019 37.4188 61.9179 37.5249C61.8338 37.631 61.7294 37.7191 61.6107 37.7842C61.8891 37.8455 62.136 38.0053 62.306 38.2341C62.4761 38.4629 62.5579 38.7454 62.5364 39.0296C62.769 38.8642 63.0536 38.7885 63.3377 38.8163C63.6218 38.8442 63.8863 38.9737 64.0824 39.1812C64.0767 39.0459 64.0982 38.9108 64.1457 38.7839C64.1932 38.6571 64.2657 38.5411 64.3589 38.4428C64.4521 38.3445 64.5641 38.266 64.6882 38.2118C64.8123 38.1576 64.9461 38.129 65.0815 38.1275C64.8535 37.9674 64.6954 37.7262 64.6395 37.4533C64.5836 37.1803 64.6341 36.8964 64.7808 36.6595C64.4994 36.7071 64.2103 36.656 63.9622 36.515C63.7141 36.3739 63.5224 36.1514 63.4195 35.8853Z" fill="#FECB5C"/>
<path d="M63.3793 36.6572C63.308 36.7971 63.1857 36.9043 63.0377 36.9567C62.8897 37.0092 62.7273 37.0028 62.5838 36.939C62.6223 37.0048 62.6473 37.0777 62.6572 37.1533C62.667 37.2289 62.6617 37.3057 62.6414 37.3792C62.6211 37.4527 62.5862 37.5214 62.5389 37.5812C62.4916 37.641 62.4328 37.6908 62.366 37.7275C62.5223 37.7618 62.661 37.8513 62.7567 37.9796C62.8523 38.1079 62.8985 38.2663 62.8869 38.4259C63.018 38.3339 63.1777 38.292 63.3371 38.3076C63.4965 38.3232 63.645 38.3955 63.7557 38.5112C63.7529 38.4351 63.7653 38.3591 63.7923 38.2879C63.8192 38.2167 63.8602 38.1515 63.9127 38.0964C63.9652 38.0412 64.0282 37.9971 64.098 37.9667C64.1679 37.9363 64.2431 37.9201 64.3192 37.9192C64.1909 37.8291 64.1019 37.6933 64.0706 37.5395C64.0393 37.3858 64.0682 37.226 64.1511 37.0929C63.9919 37.1213 63.8278 37.0933 63.6869 37.0138C63.5461 36.9343 63.4373 36.8082 63.3793 36.6572Z" fill="#F36E34"/>
<path d="M68.7655 31.5713C68.8128 31.4861 68.4908 30.9344 68.5927 30.5508M67.9487 33.037C67.9984 32.9494 67.6764 32.4001 67.7758 32.0141M67.0159 34.4482C67.0632 34.3629 66.7412 33.8112 66.843 33.4277M65.9505 35.8925C66.0002 35.8073 65.6782 35.2579 65.7776 34.872M67.6006 30.5864C67.6717 30.5153 68.3109 30.6598 68.6518 30.4585M66.7294 32.1278C66.8004 32.0591 67.4397 32.2012 67.7806 31.9952M65.8487 33.4087C65.9244 33.3448 66.5447 33.539 66.9117 33.3661M64.8543 35.1538C64.9064 35.0685 65.5433 35.0733 65.8274 34.7939" stroke="#B91D34" stroke-width="0.157012" stroke-linecap="round" stroke-linejoin="round"/>
<path d="M66.9779 37.0786L66.4902 34.9476C66.4761 34.8898 66.4744 34.8296 66.4853 34.7711C66.4962 34.7126 66.5194 34.657 66.5535 34.6082C66.5875 34.5593 66.6316 34.5183 66.6827 34.4878C66.7339 34.4574 66.7909 34.4381 66.8501 34.4314C66.9756 34.4154 67.1026 34.4457 67.2073 34.5168C67.3119 34.5879 67.387 34.6948 67.4183 34.8174L67.8918 36.9223L67.004 37.0786H66.9779Z" fill="#FECB5C"/>
<path d="M67.4183 34.806L67.9107 36.9583H67.8823C67.8295 36.8749 67.754 36.8083 67.6647 36.7664C67.5754 36.7245 67.4759 36.7089 67.378 36.7215C67.2854 36.7327 67.1991 36.7744 67.1327 36.8399C67.0663 36.9055 67.0235 36.9913 67.0111 37.0838H66.9827L66.4902 34.9315C66.4761 34.8735 66.4744 34.8132 66.4853 34.7545C66.4962 34.6959 66.5194 34.6402 66.5534 34.5912C66.5874 34.5421 66.6315 34.5009 66.6826 34.4702C66.7337 34.4395 66.7908 34.4199 66.8501 34.4129C66.9766 34.3966 67.1047 34.4278 67.2096 34.5003C67.3146 34.5729 67.3889 34.6818 67.4183 34.806Z" fill="#EE1C25"/>
<path d="M66.978 37.0789L67.0135 37.0718L67.9013 36.9155L66.978 37.0789Z" stroke="#FECB5C" stroke-width="0.157012" stroke-linecap="round" stroke-linejoin="round"/>
<path d="M68.0434 35.6346L67.5533 33.5036C67.5391 33.4456 67.5375 33.3852 67.5486 33.3266C67.5596 33.2679 67.5831 33.2122 67.6174 33.1634C67.6517 33.1145 67.696 33.0735 67.7474 33.0432C67.7989 33.0128 67.8562 32.9938 67.9155 32.9874C68.0408 32.9707 68.1678 33.0006 68.2725 33.0713C68.3772 33.1419 68.4524 33.2486 68.4837 33.371L68.9573 35.4783L68.0718 35.6346H68.0434Z" fill="#FECB5C"/>
<path d="M68.4837 33.3637L68.9761 35.5184H68.9477C68.8949 35.435 68.8194 35.3685 68.7301 35.3265C68.6408 35.2846 68.5413 35.269 68.4435 35.2816C68.3505 35.2921 68.2638 35.3335 68.1972 35.3992C68.1306 35.4649 68.0881 35.5511 68.0765 35.6439H68.0481L67.5533 33.4892C67.5395 33.4312 67.5382 33.371 67.5494 33.3125C67.5606 33.2539 67.5841 33.1985 67.6183 33.1497C67.6525 33.1009 67.6967 33.0599 67.748 33.0295C67.7992 32.999 67.8563 32.9798 67.9155 32.9731C68.0417 32.9567 68.1695 32.9875 68.2744 33.0596C68.3793 33.1317 68.4538 33.24 68.4837 33.3637Z" fill="#EE1C25"/>
<path d="M68.0434 35.6346L68.0789 35.6275L68.9643 35.4712L68.0434 35.6346Z" stroke="#FECB5C" stroke-width="0.157012" stroke-linecap="round" stroke-linejoin="round"/>
<path d="M65.1361 31.3606L64.9703 30.4893L67.139 30.1791C67.2643 30.1619 67.3916 30.1915 67.4964 30.2623C67.6013 30.333 67.6763 30.44 67.7072 30.5627C67.7214 30.6205 67.7231 30.6807 67.7122 30.7392C67.7013 30.7978 67.678 30.8533 67.6439 30.9021C67.6099 30.951 67.5658 30.992 67.5147 31.0225C67.4636 31.0529 67.4065 31.0722 67.3473 31.0789L65.1432 31.3961L65.1361 31.3606Z" fill="#FECB5C"/>
<path d="M67.139 30.1792L64.9182 30.4965V30.5249C65.0154 30.542 65.1056 30.5869 65.1778 30.6541C65.2501 30.7213 65.3013 30.808 65.3254 30.9037C65.3487 30.9951 65.3404 31.0917 65.3017 31.1777C65.263 31.2638 65.1962 31.3341 65.1123 31.3773V31.4057L67.3331 31.086C67.3923 31.0793 67.4493 31.0601 67.5005 31.0296C67.5516 30.9991 67.5957 30.9581 67.6297 30.9093C67.6638 30.8605 67.687 30.8049 67.6979 30.7464C67.7088 30.6879 67.7071 30.6277 67.693 30.5699C67.6638 30.4486 67.5915 30.3421 67.4895 30.2702C67.3876 30.1983 67.263 30.1659 67.139 30.1792Z" fill="#EE1C25"/>
<path d="M64.9703 30.4897L65.1361 31.3611L65.1432 31.3966L64.9703 30.4897Z" stroke="#FECB5C" stroke-width="0.157012" stroke-linecap="round" stroke-linejoin="round"/>
<path d="M64.26 32.9115L64.0919 32.0401L66.2605 31.7299C66.3861 31.7126 66.5137 31.7421 66.619 31.8129C66.7242 31.8836 66.7997 31.9906 66.8311 32.1135C66.8453 32.1715 66.8469 32.2319 66.8358 32.2906C66.8248 32.3492 66.8013 32.4049 66.767 32.4538C66.7327 32.5026 66.6884 32.5436 66.637 32.574C66.5855 32.6043 66.5282 32.6233 66.4689 32.6297L64.2671 32.947L64.26 32.9115Z" fill="#FECB5C"/>
<path d="M66.2606 31.7276L64.0422 32.0448V32.0732C64.1394 32.0904 64.2295 32.1352 64.3018 32.2025C64.374 32.2697 64.4253 32.3564 64.4494 32.4521C64.4732 32.5435 64.465 32.6403 64.4262 32.7264C64.3875 32.8125 64.3205 32.8828 64.2363 32.9256V32.954L66.4547 32.6368C66.514 32.6297 66.5711 32.6102 66.6224 32.5795C66.6736 32.5488 66.7178 32.5076 66.752 32.4586C66.7862 32.4097 66.8096 32.3541 66.8208 32.2954C66.832 32.2367 66.8307 32.1763 66.8169 32.1182C66.7873 31.9968 66.7145 31.8902 66.6122 31.8183C66.5098 31.7465 66.3849 31.7142 66.2606 31.7276Z" fill="#EE1C25"/>
<path d="M64.0919 32.04L64.26 32.9114L64.2671 32.9469L64.0919 32.04Z" stroke="#FECB5C" stroke-width="0.157012" stroke-linecap="round" stroke-linejoin="round"/>
<path d="M63.3863 34.2378L63.2182 33.3665L65.3893 33.0563C65.5145 33.0396 65.6415 33.0694 65.7463 33.1401C65.851 33.2108 65.9261 33.3175 65.9575 33.4399C65.9717 33.4979 65.9733 33.5582 65.9622 33.6169C65.9512 33.6756 65.9277 33.7312 65.8934 33.7801C65.8591 33.829 65.8148 33.87 65.7633 33.9003C65.7119 33.9306 65.6546 33.9496 65.5952 33.956L63.3934 34.2733L63.3863 34.2378Z" fill="#FECB5C"/>
<path d="M65.3893 33.0561L63.1685 33.3853V33.4137C63.2657 33.4308 63.3559 33.4757 63.4282 33.5429C63.5004 33.6101 63.5517 33.6968 63.5758 33.7925C63.5991 33.8839 63.5907 33.9805 63.552 34.0665C63.5133 34.1526 63.4466 34.2229 63.3627 34.2661V34.2945L65.5811 33.9772C65.6404 33.9701 65.6975 33.9506 65.7487 33.9199C65.8 33.8892 65.8441 33.848 65.8783 33.7991C65.9125 33.7501 65.936 33.6945 65.9472 33.6358C65.9584 33.5771 65.9571 33.5168 65.9433 33.4587C65.9161 33.3354 65.8447 33.2264 65.7427 33.1523C65.6406 33.0781 65.5149 33.0439 65.3893 33.0561Z" fill="#EE1C25"/>
<path d="M63.2182 33.3662L63.3863 34.2375L63.3934 34.2731L63.2182 33.3662Z" stroke="#FECB5C" stroke-width="0.157012" stroke-linecap="round" stroke-linejoin="round"/>
<path d="M62.4156 35.7362L62.2475 34.8648L64.4185 34.5523C64.544 34.5367 64.6707 34.5673 64.7753 34.6383C64.8798 34.7093 64.955 34.8159 64.9868 34.9382C65.0009 34.9962 65.0025 35.0566 64.9915 35.1153C64.9804 35.174 64.957 35.2296 64.9227 35.2785C64.8884 35.3274 64.844 35.3683 64.7926 35.3987C64.7412 35.429 64.6839 35.448 64.6245 35.4544L62.4227 35.7717L62.4156 35.7362Z" fill="#FECB5C"/>
<path d="M64.4186 34.5545L62.1978 34.8717V34.9001C62.295 34.9173 62.3852 34.9621 62.4574 35.0294C62.5297 35.0966 62.581 35.1833 62.605 35.279C62.6284 35.3704 62.62 35.467 62.5813 35.553C62.5426 35.639 62.4758 35.7094 62.392 35.7525V35.781L64.6104 35.4613C64.6697 35.4549 64.727 35.4359 64.7785 35.4056C64.8299 35.3752 64.8742 35.3343 64.9085 35.2854C64.9428 35.2365 64.9663 35.1809 64.9773 35.1222C64.9884 35.0635 64.9868 35.0031 64.9726 34.9451C64.943 34.8241 64.8705 34.7179 64.7687 34.6461C64.6669 34.5743 64.5425 34.5417 64.4186 34.5545Z" fill="#EE1C25"/>
<path d="M62.2475 34.8652L62.4156 35.7366L62.4227 35.7697V35.7721L62.2475 34.8652Z" stroke="#FECB5C" stroke-width="0.157012" stroke-linecap="round" stroke-linejoin="round"/>
<path d="M68.9194 34.0958L68.4317 31.9648C68.4175 31.907 68.4158 31.8468 68.4267 31.7883C68.4376 31.7297 68.4609 31.6742 68.4949 31.6254C68.529 31.5765 68.573 31.5355 68.6242 31.505C68.6753 31.4746 68.7324 31.4553 68.7915 31.4486C68.9168 31.4314 69.0441 31.461 69.149 31.5318C69.2538 31.6026 69.3289 31.7095 69.3597 31.8322L69.8332 33.9372L68.9454 34.0958H68.9194Z" fill="#FECB5C"/>
<path d="M69.3691 31.8126L69.8616 33.9673H69.8332C69.7806 33.8837 69.7051 33.817 69.6157 33.775C69.5263 33.733 69.4268 33.7176 69.3289 33.7305C69.2361 33.7413 69.1496 33.7829 69.0831 33.8485C69.0166 33.9141 68.9739 34.0001 68.9619 34.0928H68.9335L68.4221 31.9452C68.4079 31.8874 68.4063 31.8272 68.4172 31.7687C68.4281 31.7101 68.4513 31.6546 68.4854 31.6058C68.5194 31.5569 68.5635 31.5159 68.6146 31.4854C68.6658 31.4549 68.7228 31.4357 68.782 31.429C68.9102 31.4067 69.0422 31.4338 69.1512 31.505C69.2602 31.5762 69.3381 31.6862 69.3691 31.8126Z" fill="#EE1C25"/>
<path d="M68.9192 34.0837V34.0813L68.9547 34.0766L69.8426 33.918L68.9192 34.0837Z" stroke="#FECB5C" stroke-width="0.157012" stroke-linecap="round" stroke-linejoin="round"/>
<path d="M66.0545 38.4928L65.5644 36.3618C65.5503 36.3038 65.5486 36.2434 65.5597 36.1847C65.5707 36.1261 65.5942 36.0704 65.6285 36.0215C65.6628 35.9727 65.7072 35.9317 65.7586 35.9013C65.81 35.871 65.8673 35.852 65.9267 35.8456C66.052 35.8284 66.1793 35.858 66.2841 35.9288C66.389 35.9995 66.464 36.1065 66.4949 36.2292L66.9684 38.3341L66.0829 38.4928H66.0545Z" fill="#FECB5C"/>
<path d="M66.4974 36.2266L66.9898 38.3813H66.9614C66.909 38.2975 66.8336 38.2306 66.7441 38.1886C66.6547 38.1466 66.555 38.1313 66.4571 38.1445C66.3642 38.1549 66.2774 38.1963 66.2109 38.262C66.1443 38.3277 66.1018 38.4139 66.0901 38.5068H66.0546L65.5622 36.3545C65.548 36.2965 65.5464 36.2361 65.5574 36.1774C65.5685 36.1187 65.5919 36.0631 65.6262 36.0142C65.6605 35.9653 65.7049 35.9244 65.7563 35.894C65.8077 35.8637 65.8651 35.8447 65.9244 35.8383C66.0511 35.82 66.1801 35.8497 66.2861 35.9215C66.3921 35.9933 66.4674 36.1021 66.4974 36.2266Z" fill="#EE1C25"/>
<path d="M66.0569 38.4929V38.4905L66.0924 38.4858L66.9779 38.3271L66.0569 38.4929Z" stroke="#FECB5C" stroke-width="0.157012" stroke-linecap="round" stroke-linejoin="round"/>
<path d="M68.3724 27.8801C68.193 28.1405 68.0964 28.449 68.0953 28.7652C68.0942 29.0814 68.1886 29.3906 68.3661 29.6523C68.5437 29.9139 68.7961 30.1159 69.0903 30.2316C69.3846 30.3474 69.7069 30.3716 70.0151 30.301C70.3234 30.2305 70.6031 30.0685 70.8177 29.8363C71.0323 29.6041 71.1718 29.3125 71.2179 28.9996C71.264 28.6868 71.2146 28.3673 71.076 28.0831C70.9375 27.7988 70.7164 27.563 70.4416 27.4066C70.1041 27.1962 69.6971 27.1279 69.3094 27.2167C68.9217 27.3054 68.5849 27.5439 68.3724 27.8801ZM69.4662 28.4697C69.4993 28.4182 69.5511 28.3815 69.6107 28.3674C69.6703 28.3532 69.7331 28.3627 69.7858 28.3939L69.9279 28.4768C69.9814 28.5055 70.0218 28.5538 70.0408 28.6115C70.0597 28.6693 70.0558 28.7321 70.0297 28.787L70.0036 28.832C69.9705 28.8835 69.9187 28.9202 69.8591 28.9343C69.7995 28.9484 69.7367 28.9389 69.684 28.9077L69.542 28.8248C69.4884 28.7961 69.448 28.7478 69.4291 28.6901C69.4101 28.6324 69.4141 28.5696 69.4402 28.5147L69.4662 28.4697Z" fill="#FBAC39"/>
<path d="M68.6589 28.0407C68.5173 28.2477 68.4415 28.4927 68.4415 28.7436C68.4415 28.9945 68.5172 29.2395 68.6588 29.4466C68.8003 29.6537 69.0011 29.8132 69.2348 29.9042C69.4686 29.9953 69.7243 30.0136 69.9687 29.9568C70.213 29.9001 70.4345 29.7708 70.6041 29.5861C70.7738 29.4013 70.8837 29.1696 70.9195 28.9213C70.9552 28.673 70.9152 28.4197 70.8046 28.1946C70.694 27.9694 70.518 27.7829 70.2996 27.6595C70.1671 27.5758 70.0194 27.5193 69.8649 27.4931C69.7104 27.467 69.5522 27.4718 69.3996 27.5073C69.247 27.5427 69.1029 27.6081 68.9758 27.6997C68.8486 27.7913 68.7409 27.9072 68.6589 28.0407ZM69.471 28.4692C69.5041 28.4177 69.5559 28.381 69.6155 28.3669C69.6751 28.3528 69.7379 28.3623 69.7906 28.3935L69.9326 28.4763C69.9862 28.5051 70.0266 28.5533 70.0455 28.6111C70.0645 28.6688 70.0605 28.7316 70.0344 28.7865L70.0084 28.8315C69.9753 28.883 69.9235 28.9197 69.8639 28.9338C69.8043 28.948 69.7415 28.9385 69.6888 28.9073L69.5467 28.8244C69.4932 28.7957 69.4528 28.7474 69.4338 28.6897C69.4149 28.6319 69.4189 28.5691 69.4449 28.5142L69.471 28.4692Z" fill="#FECB5C"/>
<path d="M70.1741 27.8755L69.9539 28.2638M69.8521 27.9489L70.2735 28.188M69.5396 28.9954L69.3194 29.3838M69.22 29.0712L69.6414 29.308M69.2247 28.0199L69.0045 28.4082M68.9027 28.0957L69.3241 28.3348M70.5387 28.7634L70.3185 29.1517M70.2167 28.8392L70.6405 29.0783" stroke="#FBAC39" stroke-width="0.117759" stroke-linecap="round" stroke-linejoin="round"/>
<path d="M89.9171 36.9365C89.9171 36.9365 93.0967 43.4408 95.2819 43.803" stroke="#B91D34" stroke-width="0.157012" stroke-linecap="round" stroke-linejoin="round"/>
<path d="M95.6015 43.2778C95.7284 43.528 95.9468 43.7198 96.2113 43.8132C96.4758 43.9067 96.7662 43.8947 97.0221 43.7798C96.9539 43.8967 96.9098 44.0261 96.8924 44.1604C96.875 44.2946 96.8847 44.431 96.9209 44.5614C96.9571 44.6919 97.0191 44.8137 97.1031 44.9198C97.1872 45.0259 97.2916 45.1141 97.4103 45.1791C97.132 45.2405 96.8851 45.4002 96.715 45.629C96.5449 45.8578 96.4631 46.1403 96.4846 46.4246C96.252 46.2592 95.9674 46.1834 95.6833 46.2113C95.3992 46.2391 95.1347 46.3687 94.9386 46.5761C94.9443 46.441 94.9229 46.3061 94.8755 46.1794C94.8282 46.0527 94.7559 45.9368 94.663 45.8386C94.57 45.7403 94.4583 45.6617 94.3345 45.6074C94.2106 45.5531 94.0771 45.5242 93.9419 45.5225C94.169 45.3616 94.3263 45.1203 94.3817 44.8475C94.4372 44.5748 94.3865 44.2912 94.2402 44.0545C94.5219 44.1019 94.8113 44.0505 95.0594 43.909C95.3075 43.7674 95.499 43.5444 95.6015 43.2778Z" fill="#FECB5C"/>
<path d="M95.6489 44.0518C95.7211 44.1908 95.8434 44.2973 95.9911 44.3496C96.1388 44.4019 96.3008 44.3962 96.4444 44.3335C96.4056 44.3991 96.3805 44.4718 96.3704 44.5473C96.3604 44.6228 96.3657 44.6995 96.3861 44.7729C96.4064 44.8463 96.4413 44.9149 96.4888 44.9744C96.5363 45.034 96.5953 45.0834 96.6623 45.1196C96.504 45.1546 96.3639 45.246 96.2681 45.3767C96.1723 45.5074 96.1272 45.6685 96.1414 45.8299C96.0103 45.7379 95.8506 45.696 95.6912 45.7116C95.5318 45.7272 95.3832 45.7995 95.2725 45.9152C95.2754 45.839 95.263 45.7629 95.236 45.6915C95.2091 45.6202 95.1682 45.5549 95.1157 45.4995C95.0632 45.4442 95.0002 45.3999 94.9304 45.3692C94.8606 45.3385 94.7853 45.3221 94.709 45.3209C94.8372 45.2312 94.9261 45.0957 94.9574 44.9424C94.9887 44.7891 94.96 44.6296 94.8771 44.4969C95.0375 44.5247 95.2026 44.4953 95.3436 44.414C95.4846 44.3327 95.5926 44.2045 95.6489 44.0518Z" fill="#F36E34"/>
<path d="M90.2556 38.9663C90.2082 38.8787 90.5302 38.3294 90.4284 37.9434M91.0842 40.4296C91.0345 40.3443 91.3565 39.7926 91.2571 39.4091M92.0052 41.8431C91.9578 41.7555 92.2798 41.2062 92.178 40.8202M93.0706 43.2875C93.0209 43.2022 93.3429 42.6505 93.2434 42.2669M91.4204 37.9789C91.3494 37.9103 90.7102 38.0547 90.3692 37.8511M92.2917 39.5227C92.2206 39.4517 91.5814 39.5937 91.2429 39.3901M93.1724 40.8037C93.0966 40.7397 92.4763 40.9339 92.1094 40.7587M94.1668 42.5463C94.1147 42.4611 93.4778 42.4658 93.1937 42.1888" stroke="#B91D34" stroke-width="0.157012" stroke-linecap="round" stroke-linejoin="round"/>
<path d="M92.0076 44.4661L91.1221 44.3075L91.5957 42.2026C91.627 42.0802 91.7022 41.9735 91.8069 41.9028C91.9116 41.8321 92.0386 41.8023 92.1639 41.819C92.223 41.8257 92.2801 41.8449 92.3312 41.8754C92.3823 41.9059 92.4264 41.9469 92.4605 41.9957C92.4945 42.0446 92.5178 42.1001 92.5287 42.1586C92.5396 42.2171 92.5379 42.2773 92.5237 42.3352L92.036 44.4661H92.0076Z" fill="#FECB5C"/>
<path d="M91.6028 42.2026L91.1103 44.3573H91.1388C91.1916 44.2739 91.2671 44.2073 91.3564 44.1654C91.4457 44.1234 91.5452 44.1079 91.643 44.1205C91.7358 44.1313 91.8223 44.1729 91.8888 44.2385C91.9553 44.3041 91.998 44.3901 92.01 44.4828H92.0384L92.5309 42.3281C92.545 42.2703 92.5467 42.2101 92.5358 42.1516C92.5249 42.093 92.5016 42.0375 92.4676 41.9887C92.4336 41.9398 92.3895 41.8988 92.3383 41.8683C92.2872 41.8378 92.2302 41.8186 92.171 41.8119C92.0448 41.7955 91.917 41.8263 91.8121 41.8984C91.7072 41.9706 91.6327 42.0789 91.6028 42.2026Z" fill="#EE1C25"/>
<path d="M91.1221 44.3076L92.0076 44.4663L92.0431 44.4734L91.1221 44.3076Z" stroke="#FECB5C" stroke-width="0.157012" stroke-linecap="round" stroke-linejoin="round"/>
<path d="M90.9422 43.0221L90.0568 42.8634L90.5303 40.7585C90.5612 40.6358 90.6362 40.5288 90.7411 40.4581C90.8459 40.3873 90.9732 40.3577 91.0985 40.3749C91.1578 40.3813 91.2152 40.4003 91.2666 40.4306C91.318 40.461 91.3623 40.502 91.3966 40.5508C91.4309 40.5997 91.4544 40.6554 91.4655 40.714C91.4765 40.7727 91.4749 40.8331 91.4607 40.8911L90.9706 43.0221H90.9422Z" fill="#FECB5C"/>
<path d="M90.5374 40.758L90.0449 42.9103H90.0734C90.1262 42.827 90.2017 42.7604 90.291 42.7185C90.3803 42.6765 90.4798 42.6609 90.5776 42.6736C90.6703 42.6848 90.7566 42.7264 90.823 42.792C90.8894 42.8576 90.9322 42.9433 90.9446 43.0358H90.973L91.4678 40.8835C91.482 40.8255 91.4836 40.7652 91.4726 40.7065C91.4615 40.6478 91.4381 40.5922 91.4038 40.5433C91.3695 40.4944 91.3251 40.4534 91.2737 40.4231C91.2223 40.3927 91.165 40.3737 91.1056 40.3674C90.9793 40.3504 90.8512 40.381 90.7462 40.4532C90.6412 40.5254 90.5668 40.634 90.5374 40.758Z" fill="#EE1C25"/>
<path d="M90.0568 42.8633L90.9422 43.0219L90.9777 43.0267V43.029L90.0568 42.8633Z" stroke="#FECB5C" stroke-width="0.157012" stroke-linecap="round" stroke-linejoin="round"/>
<path d="M93.878 38.7911L91.6738 38.4762C91.6146 38.4692 91.5575 38.4497 91.5064 38.419C91.4552 38.3882 91.4112 38.347 91.3772 38.298C91.3431 38.249 91.3199 38.1933 91.309 38.1346C91.2981 38.076 91.2998 38.0156 91.314 37.9577C91.3458 37.8355 91.421 37.7292 91.5256 37.6586C91.6303 37.588 91.757 37.5579 91.8822 37.5741L94.0532 37.8866L93.8851 38.7556L93.878 38.7911Z" fill="#FECB5C"/>
<path d="M91.8821 37.5714L94.1029 37.891V37.917C94.0058 37.9344 93.9158 37.9794 93.8436 38.0466C93.7714 38.1138 93.72 38.2003 93.6957 38.2959C93.6724 38.3873 93.6807 38.4839 93.7194 38.5699C93.7581 38.6559 93.8249 38.7263 93.9087 38.7694V38.7955L91.6904 38.4782C91.6312 38.4714 91.5741 38.4522 91.5228 38.4218C91.4716 38.3913 91.4274 38.3504 91.3932 38.3016C91.359 38.2528 91.3355 38.1973 91.3242 38.1388C91.313 38.0803 91.3143 38.02 91.3281 37.962C91.3582 37.8413 91.4307 37.7353 91.5324 37.6636C91.6342 37.5919 91.7583 37.5591 91.8821 37.5714Z" fill="#EE1C25"/>
<path d="M93.878 38.7906V38.7883L93.8851 38.7551L94.0508 37.8838L93.878 38.7906Z" stroke="#FECB5C" stroke-width="0.157012" stroke-linecap="round" stroke-linejoin="round"/>
<path d="M94.754 40.3411L92.5522 40.0262C92.4929 40.0199 92.4356 40.0009 92.3843 39.9705C92.333 39.9401 92.2887 39.8991 92.2546 39.8502C92.2205 39.8012 92.1973 39.7455 92.1865 39.6869C92.1758 39.6282 92.1778 39.5679 92.1924 39.51C92.2232 39.3872 92.2982 39.28 92.4029 39.2088C92.5077 39.1376 92.635 39.1075 92.7606 39.1241L94.9292 39.4366L94.7611 40.308L94.754 40.3411Z" fill="#FECB5C"/>
<path d="M92.7605 39.1243L94.9789 39.4415V39.4676C94.882 39.4855 94.7923 39.5307 94.7202 39.5978C94.6481 39.6649 94.5966 39.7511 94.5717 39.8464C94.5484 39.9378 94.5567 40.0344 94.5954 40.1205C94.6341 40.2065 94.7009 40.2768 94.7848 40.32V40.346L92.5522 40.0145C92.493 40.0078 92.436 39.9886 92.3848 39.9581C92.3337 39.9277 92.2896 39.8866 92.2556 39.8378C92.2215 39.789 92.1983 39.7334 92.1873 39.6749C92.1764 39.6164 92.1781 39.5562 92.1923 39.4984C92.2251 39.3775 92.301 39.2727 92.4056 39.2038C92.5103 39.1349 92.6365 39.1066 92.7605 39.1243Z" fill="#EE1C25"/>
<path d="M94.754 40.3414V40.3391L94.7611 40.3059L94.9292 39.4346L94.754 40.3414Z" stroke="#FECB5C" stroke-width="0.157012" stroke-linecap="round" stroke-linejoin="round"/>
<path d="M95.6276 41.6722L93.4258 41.3572C93.3665 41.3509 93.3091 41.3319 93.2577 41.3015C93.2063 41.2712 93.162 41.2302 93.1277 41.1813C93.0934 41.1324 93.0699 41.0768 93.0588 41.0181C93.0478 40.9594 93.0494 40.8991 93.0636 40.8411C93.0954 40.7188 93.1705 40.6122 93.2751 40.5412C93.3796 40.4702 93.5064 40.4396 93.6318 40.4551L95.8028 40.7677L95.6347 41.639L95.6276 41.6722Z" fill="#FECB5C"/>
<path d="M93.6317 40.4505L95.8524 40.7678V40.7938C95.7556 40.8118 95.6658 40.8569 95.5937 40.924C95.5216 40.9911 95.4701 41.0774 95.4452 41.1727C95.4219 41.2641 95.4303 41.3607 95.469 41.4467C95.5077 41.5327 95.5744 41.6031 95.6583 41.6462V41.6723L93.4399 41.355C93.3805 41.3486 93.3232 41.3296 93.2718 41.2993C93.2204 41.2689 93.176 41.2279 93.1417 41.1791C93.1074 41.1302 93.084 41.0746 93.0729 41.0159C93.0619 40.9572 93.0635 40.8968 93.0777 40.8388C93.1078 40.7182 93.1804 40.6126 93.2822 40.5412C93.3839 40.4699 93.508 40.4377 93.6317 40.4505Z" fill="#EE1C25"/>
<path d="M95.6276 41.6671V41.6647L95.6347 41.6316L95.8028 40.7603L95.6276 41.6671Z" stroke="#FECB5C" stroke-width="0.157012" stroke-linecap="round" stroke-linejoin="round"/>
<path d="M96.5959 43.1639L94.3941 42.849C94.3346 42.8423 94.2773 42.823 94.2259 42.7924C94.1744 42.7618 94.1301 42.7206 94.0959 42.6716C94.0616 42.6225 94.0382 42.5667 94.0271 42.5079C94.0161 42.4491 94.0177 42.3886 94.0319 42.3305C94.0641 42.2086 94.1395 42.1026 94.244 42.032C94.3485 41.9615 94.475 41.9312 94.6001 41.9469L96.7711 42.2594L96.603 43.1284L96.5959 43.1639Z" fill="#FECB5C"/>
<path d="M94.6025 41.9469L96.8232 42.2665V42.2925C96.7262 42.3099 96.6362 42.3549 96.5639 42.4221C96.4917 42.4893 96.4404 42.5758 96.416 42.6714C96.3931 42.7628 96.4017 42.8592 96.4404 42.9451C96.4791 43.0311 96.5455 43.1015 96.6291 43.1449V43.171L94.3965 42.8561C94.3373 42.8493 94.2802 42.8301 94.229 42.7996C94.1778 42.7692 94.1336 42.7282 94.0993 42.6794C94.0651 42.6307 94.0416 42.5752 94.0304 42.5167C94.0192 42.4581 94.0205 42.3979 94.0343 42.3399C94.0641 42.216 94.1386 42.1074 94.2434 42.0349C94.3482 41.9624 94.476 41.9311 94.6025 41.9469Z" fill="#EE1C25"/>
<path d="M96.5984 43.1661V43.1638L96.6055 43.1282L96.7736 42.2593L96.5984 43.1661Z" stroke="#FECB5C" stroke-width="0.157012" stroke-linecap="round" stroke-linejoin="round"/>
<path d="M90.0663 41.4711L89.1785 41.3125L89.652 39.2075C89.6833 39.0849 89.7583 38.978 89.863 38.907C89.9676 38.8359 90.0947 38.8055 90.2202 38.8216C90.2794 38.8286 90.3365 38.8481 90.3876 38.8788C90.4388 38.9096 90.4828 38.9508 90.5169 38.9998C90.5509 39.0488 90.5741 39.1045 90.585 39.1632C90.5959 39.2218 90.5942 39.2822 90.58 39.3401L90.0923 41.4711H90.0663Z" fill="#FECB5C"/>
<path d="M89.6613 39.2073L89.1689 41.3596H89.1973C89.2501 41.2763 89.3256 41.2097 89.4149 41.1678C89.5043 41.1258 89.6037 41.1102 89.7016 41.1229C89.7942 41.1341 89.8805 41.1758 89.9469 41.2413C90.0133 41.3069 90.0561 41.3926 90.0685 41.4851H90.097L90.5894 39.3328C90.6032 39.2749 90.6046 39.2147 90.5935 39.1562C90.5825 39.0977 90.5592 39.0421 90.5252 38.9932C90.4913 38.9443 90.4474 38.9031 90.3965 38.8722C90.3455 38.8414 90.2886 38.8217 90.2295 38.8143C90.103 38.798 89.9749 38.8291 89.87 38.9017C89.765 38.9743 89.6907 39.0832 89.6613 39.2073Z" fill="#EE1C25"/>
<path d="M89.1807 41.312L90.0662 41.4707L90.1017 41.4754V41.4778L89.1807 41.312Z" stroke="#FECB5C" stroke-width="0.157012" stroke-linecap="round" stroke-linejoin="round"/>
<path d="M92.9286 45.8777L92.0432 45.7214L92.5167 43.6165C92.5485 43.4942 92.6236 43.3876 92.7282 43.3166C92.8327 43.2455 92.9595 43.215 93.0849 43.2305C93.1441 43.2373 93.2012 43.2565 93.2524 43.287C93.3037 43.3174 93.3478 43.3584 93.3821 43.4072C93.4163 43.4559 93.4398 43.5114 93.451 43.5699C93.4622 43.6285 93.4609 43.6887 93.4471 43.7467L92.9571 45.8777H92.9286Z" fill="#FECB5C"/>
<path d="M92.5238 43.6168L92.0314 45.7691H92.0598C92.1126 45.6857 92.1881 45.6191 92.2774 45.5772C92.3668 45.5352 92.4662 45.5197 92.5641 45.5323C92.657 45.5434 92.7436 45.585 92.8104 45.6505C92.8772 45.716 92.9205 45.8019 92.9334 45.8945H92.9618L93.4543 43.7423C93.4684 43.6841 93.47 43.6236 93.459 43.5648C93.448 43.506 93.4245 43.4502 93.3903 43.4011C93.356 43.3521 93.3117 43.3109 93.2603 43.2803C93.2088 43.2497 93.1515 43.2304 93.092 43.2237C92.9656 43.2079 92.8377 43.2393 92.7329 43.3118C92.6281 43.3843 92.5537 43.4929 92.5238 43.6168Z" fill="#EE1C25"/>
<path d="M92.0432 45.7212L92.9286 45.8775L92.9642 45.8846L92.0432 45.7212Z" stroke="#FECB5C" stroke-width="0.157012" stroke-linecap="round" stroke-linejoin="round"/>
<path d="M88.5794 34.806C88.3486 34.9646 88.1691 35.1871 88.0627 35.4461C87.9562 35.7051 87.9275 35.9896 87.98 36.2646C88.0326 36.5397 88.1641 36.7935 88.3584 36.9951C88.5528 37.1967 88.8017 37.3373 89.0747 37.3998C89.3476 37.4623 89.6329 37.4439 89.8956 37.3469C90.1583 37.2499 90.387 37.0786 90.554 36.8537C90.7209 36.6288 90.8187 36.3602 90.8355 36.0807C90.8523 35.8011 90.7874 35.5228 90.6486 35.2795C90.4361 34.9433 90.0993 34.7048 89.7116 34.6161C89.3239 34.5274 88.9169 34.5956 88.5794 34.806ZM89.5808 35.9188C89.6076 35.974 89.612 36.0373 89.593 36.0956C89.574 36.1539 89.5332 36.2026 89.479 36.2314L89.337 36.3119C89.2833 36.3415 89.2203 36.3491 89.1612 36.3332C89.102 36.3173 89.0513 36.2791 89.0197 36.2266L88.9937 36.1816C88.9669 36.1265 88.9625 36.0631 88.9815 36.0048C89.0005 35.9465 89.0414 35.8979 89.0955 35.8691L89.2375 35.7886C89.29 35.7572 89.3525 35.7473 89.4121 35.761C89.4717 35.7747 89.5237 35.8109 89.5572 35.862L89.5808 35.9188Z" fill="#FBAC39"/>
<path d="M88.7262 35.0542C88.543 35.1797 88.4003 35.3558 88.3155 35.5611C88.2307 35.7664 88.2076 35.9919 88.2488 36.2101C88.2901 36.4283 88.394 36.6298 88.5478 36.79C88.7017 36.9501 88.8988 37.062 89.1152 37.112C89.3316 37.1619 89.5578 37.1478 89.7663 37.0713C89.9748 36.9948 90.1565 36.8593 90.2892 36.6812C90.4219 36.5032 90.5 36.2903 90.5138 36.0687C90.5275 35.847 90.4765 35.6261 90.3669 35.433C90.2847 35.2997 90.1768 35.184 90.0496 35.0927C89.9223 35.0014 89.7782 34.9362 89.6256 34.901C89.473 34.8657 89.3149 34.8611 89.1605 34.8874C89.0061 34.9137 88.8585 34.9704 88.7262 35.0542ZM89.5808 35.9066C89.6076 35.9617 89.612 36.0251 89.593 36.0834C89.574 36.1417 89.5332 36.1903 89.479 36.2191L89.337 36.2996C89.2848 36.3303 89.2228 36.3398 89.1637 36.3261C89.1047 36.3125 89.0532 36.2767 89.0197 36.2262L88.9937 36.1812C88.9669 36.1261 88.9625 36.0627 88.9815 36.0044C89.0005 35.9461 89.0414 35.8975 89.0955 35.8687L89.2376 35.7882C89.29 35.7568 89.3526 35.7469 89.4121 35.7606C89.4717 35.7743 89.5237 35.8105 89.5572 35.8616L89.5808 35.9066Z" fill="#FECB5C"/>
<path d="M88.847 35.2695L89.0672 35.6555M89.169 35.3429L88.7475 35.5821M89.4815 36.3895L89.7017 36.7778M89.8011 36.4629L89.3797 36.702M89.7987 35.414L90.0165 35.8023M90.1184 35.4874L89.6969 35.7265M88.4824 36.1574L88.7026 36.5458M88.8044 36.2308L88.3806 36.47" stroke="#FBAC39" stroke-width="0.117759" stroke-linecap="round" stroke-linejoin="round"/>
<path d="M13.4146 33.75C13.4146 33.75 12.9931 40.9764 14.7191 42.3615" stroke="#B91D34" stroke-width="0.157012" stroke-linecap="round" stroke-linejoin="round"/>
<path d="M15.2542 42.0635C15.2432 42.3419 15.3391 42.6139 15.5222 42.8239C15.7054 43.0339 15.9618 43.1659 16.2391 43.1929C16.1209 43.2613 16.0177 43.3529 15.9357 43.4622C15.8537 43.5714 15.7946 43.6961 15.7619 43.8287C15.7292 43.9613 15.7235 44.0992 15.7453 44.2341C15.7671 44.3689 15.8159 44.498 15.8887 44.6136C15.6161 44.5294 15.3222 44.5465 15.0612 44.6618C14.8002 44.7771 14.5896 44.9828 14.4682 45.241C14.3464 44.9832 14.1356 44.778 13.8746 44.6632C13.6137 44.5483 13.32 44.5316 13.0477 44.6159C13.1192 44.501 13.167 44.3729 13.1881 44.2391C13.2092 44.1054 13.2033 43.9687 13.1706 43.8373C13.1379 43.7059 13.0792 43.5825 12.9979 43.4742C12.9166 43.3659 12.8143 43.2751 12.6973 43.2071C12.9741 43.179 13.2298 43.0461 13.412 42.8358C13.5942 42.6254 13.6891 42.3534 13.6774 42.0753C13.9007 42.2569 14.1802 42.355 14.468 42.3529C14.7557 42.3507 15.0337 42.2484 15.2542 42.0635Z" fill="#FECB5C"/>
<path d="M14.9156 42.7568C14.91 42.9132 14.9641 43.0658 15.067 43.1837C15.1699 43.3016 15.3139 43.3758 15.4696 43.3914C15.4036 43.4296 15.346 43.4808 15.3002 43.5418C15.2545 43.6027 15.2214 43.6723 15.2031 43.7463C15.1847 43.8203 15.1815 43.8973 15.1935 43.9726C15.2055 44.0479 15.2326 44.12 15.2731 44.1846C15.1196 44.1391 14.9549 44.1499 14.8086 44.215C14.6624 44.2801 14.5441 44.3953 14.4752 44.5398C14.4062 44.3954 14.2879 44.2804 14.1415 44.2157C13.9952 44.151 13.8305 44.1408 13.6773 44.187C13.7174 44.1221 13.744 44.0499 13.7557 43.9746C13.7674 43.8992 13.7638 43.8223 13.7453 43.7484C13.7267 43.6744 13.6936 43.605 13.6478 43.5441C13.6019 43.4832 13.5444 43.4321 13.4785 43.3938C13.6344 43.3782 13.7784 43.3035 13.881 43.1851C13.9836 43.0666 14.0369 42.9134 14.0301 42.7568C14.1548 42.8596 14.3113 42.9158 14.4728 42.9158C14.6344 42.9158 14.7909 42.8596 14.9156 42.7568Z" fill="#F36E34"/>
<path d="M12.7162 35.6796C12.7162 35.5801 13.2679 35.2605 13.3697 34.8745M12.7186 37.3631C12.7186 37.2636 13.2702 36.9416 13.3697 36.558M12.8275 39.0465C12.8275 38.9471 13.3791 38.6251 13.4809 38.2415M13.0453 40.8271C13.0453 40.7276 13.5969 40.408 13.6987 40.0221M14.2054 35.3931C14.177 35.2984 13.5567 35.1137 13.3531 34.7656" stroke="#B91D34" stroke-width="0.157012" stroke-linecap="round" stroke-linejoin="round"/>
<path d="M14.2053 37.1738C14.1793 37.0791 13.559 36.892 13.3577 36.5439M14.3545 38.7128C14.319 38.6205 13.6844 38.476 13.4501 38.154M14.3639 40.7254C14.3639 40.626 13.8028 40.3158 13.6916 39.9346" stroke="#B91D34" stroke-width="0.157012" stroke-linecap="round" stroke-linejoin="round"/>
<path d="M11.5395 41.3315L10.8458 40.7608L12.3113 39.1626C12.3988 39.0713 12.5167 39.0152 12.6427 39.0047C12.7687 38.9942 12.8942 39.0302 12.9956 39.1058C13.0439 39.1407 13.0842 39.1856 13.1139 39.2374C13.1435 39.2892 13.1617 39.3467 13.1673 39.4061C13.1729 39.4655 13.1658 39.5254 13.1464 39.5818C13.1269 39.6382 13.0957 39.6899 13.0547 39.7332L11.5798 41.3552L11.5395 41.3315Z" fill="#FECB5C"/>
<path d="M12.3113 39.1626L10.8244 40.7964L10.8457 40.8129C10.9332 40.7663 11.0321 40.7453 11.1309 40.7524C11.2298 40.7595 11.3246 40.7945 11.4045 40.8532C11.4797 40.9088 11.5344 40.9877 11.5601 41.0776C11.5858 41.1676 11.581 41.2635 11.5465 41.3504L11.5678 41.367L13.0547 39.7332C13.0956 39.6899 13.1269 39.6382 13.1463 39.5818C13.1657 39.5254 13.1728 39.4655 13.1672 39.4061C13.1616 39.3467 13.1434 39.2892 13.1138 39.2374C13.0842 39.1856 13.0438 39.1407 12.9955 39.1058C12.8941 39.0302 12.7686 38.9942 12.6426 39.0047C12.5166 39.0152 12.3988 39.0713 12.3113 39.1626Z" fill="#EE1C25"/>
<path d="M10.8458 40.7603L11.5395 41.3309L11.5679 41.3546L10.8458 40.7603Z" stroke="#FECB5C" stroke-width="0.157012" stroke-linecap="round" stroke-linejoin="round"/>
<path d="M11.3217 39.5417L10.628 38.9688L12.0745 37.38C12.1623 37.2891 12.2803 37.2333 12.4063 37.2233C12.5323 37.2133 12.6577 37.2496 12.7588 37.3255C12.8071 37.3605 12.8474 37.4053 12.8771 37.4571C12.9067 37.5089 12.9249 37.5664 12.9305 37.6258C12.9361 37.6852 12.929 37.7452 12.9095 37.8016C12.8901 37.858 12.8589 37.9096 12.8179 37.953L11.343 39.5749L11.3217 39.5417Z" fill="#FECB5C"/>
<path d="M12.0745 37.3821L10.5877 39.0159L10.6114 39.0325C10.6982 38.9852 10.7968 38.9638 10.8954 38.971C10.9941 38.9781 11.0886 39.0134 11.1677 39.0727C11.2428 39.1279 11.2974 39.2064 11.3231 39.2959C11.3488 39.3855 11.3441 39.481 11.3098 39.5676L11.3311 39.5865L12.8203 37.9528C12.8608 37.9091 12.8915 37.8573 12.9105 37.8008C12.9295 37.7444 12.9363 37.6845 12.9305 37.6252C12.9247 37.5659 12.9064 37.5085 12.8768 37.4568C12.8472 37.4051 12.8069 37.3603 12.7587 37.3253C12.6575 37.2492 12.5319 37.213 12.4058 37.2235C12.2796 37.2339 12.1617 37.2904 12.0745 37.3821Z" fill="#EE1C25"/>
<path d="M10.628 38.978L11.3217 39.551L11.3501 39.5747L10.628 38.978Z" stroke="#FECB5C" stroke-width="0.157012" stroke-linecap="round" stroke-linejoin="round"/>
<path d="M15.9573 37.3065L14.2053 35.9497C14.157 35.9148 14.1167 35.8699 14.087 35.8181C14.0574 35.7663 14.0392 35.7088 14.0336 35.6494C14.028 35.59 14.0351 35.5301 14.0545 35.4737C14.074 35.4173 14.1052 35.3656 14.1462 35.3223C14.2337 35.231 14.3515 35.1748 14.4775 35.1644C14.6035 35.1539 14.729 35.1899 14.8304 35.2655L16.5658 36.6032L15.9928 37.278L15.9573 37.3065Z" fill="#FECB5C"/>
<path d="M14.8185 35.2653L16.5942 36.6338L16.5753 36.6528C16.4823 36.6205 16.3819 36.6156 16.2862 36.6387C16.1905 36.6618 16.1035 36.7119 16.0355 36.783C15.9719 36.851 15.933 36.9383 15.9249 37.031C15.9167 37.1237 15.9398 37.2164 15.9905 37.2944L15.9715 37.3157L14.2053 35.9496C14.157 35.9146 14.1167 35.8697 14.087 35.8179C14.0574 35.7662 14.0392 35.7086 14.0336 35.6492C14.028 35.5898 14.0351 35.5299 14.0545 35.4735C14.074 35.4171 14.1052 35.3655 14.1462 35.3221C14.233 35.2339 14.3485 35.1797 14.4718 35.1693C14.5951 35.1589 14.7181 35.1929 14.8185 35.2653Z" fill="#EE1C25"/>
<path d="M15.9574 37.3063L15.9811 37.2778L16.554 36.603L15.9574 37.3063Z" stroke="#FECB5C" stroke-width="0.157012" stroke-linecap="round" stroke-linejoin="round"/>
<path d="M15.9597 39.089L14.2053 37.7299C14.157 37.695 14.1167 37.6501 14.087 37.5983C14.0574 37.5465 14.0392 37.489 14.0336 37.4296C14.028 37.3702 14.0351 37.3103 14.0545 37.2539C14.074 37.1974 14.1052 37.1458 14.1462 37.1024C14.2337 37.0111 14.3518 36.955 14.4779 36.945C14.604 36.9349 14.7295 36.9716 14.8304 37.048L16.5658 38.3834L15.9834 39.0677L15.9597 39.089Z" fill="#FECB5C"/>
<path d="M14.8185 37.048L16.5966 38.4142L16.5776 38.4355C16.4847 38.4026 16.3842 38.3974 16.2884 38.4206C16.1926 38.4437 16.1055 38.4941 16.0378 38.5658C15.9735 38.6333 15.9341 38.7207 15.9259 38.8136C15.9178 38.9065 15.9413 38.9994 15.9928 39.0772L15.9739 39.0985L14.2053 37.7299C14.157 37.695 14.1167 37.6501 14.087 37.5983C14.0574 37.5465 14.0392 37.489 14.0336 37.4296C14.028 37.3702 14.0351 37.3103 14.0545 37.2539C14.074 37.1975 14.1052 37.1459 14.1462 37.1025C14.2328 37.0138 14.3486 36.9594 14.4722 36.9494C14.5957 36.9394 14.7188 36.9744 14.8185 37.048Z" fill="#EE1C25"/>
<path d="M15.9597 39.0889V39.0865L15.9833 39.0605L16.5563 38.3833L15.9597 39.0889Z" stroke="#FECB5C" stroke-width="0.157012" stroke-linecap="round" stroke-linejoin="round"/>
<path d="M16.0686 40.6729L14.3072 39.3043C14.2587 39.2696 14.2181 39.2248 14.1883 39.1731C14.1585 39.1214 14.14 39.064 14.1342 39.0045C14.1283 38.9451 14.1353 38.8852 14.1545 38.8287C14.1737 38.7721 14.2048 38.7204 14.2456 38.6769C14.3334 38.5859 14.4514 38.5302 14.5774 38.5202C14.7034 38.5102 14.8288 38.5465 14.9299 38.6224L16.6653 39.9578L16.0994 40.6445L16.0686 40.6729Z" fill="#FECB5C"/>
<path d="M14.9298 38.6323L16.7054 39.9985L16.6865 40.0198C16.5936 39.9869 16.4931 39.9817 16.3973 40.0048C16.3014 40.0279 16.2144 40.0784 16.1467 40.15C16.0828 40.2178 16.0436 40.3052 16.0354 40.398C16.0273 40.4907 16.0506 40.5836 16.1017 40.6615L16.0828 40.6828L14.3047 39.3047C14.2567 39.2696 14.2167 39.2246 14.1873 39.1728C14.1579 39.121 14.1398 39.0636 14.1342 39.0043C14.1286 38.945 14.1356 38.8852 14.1548 38.8289C14.174 38.7725 14.2049 38.7208 14.2455 38.6773C14.3346 38.5878 14.4532 38.5338 14.5792 38.5255C14.7051 38.5172 14.8298 38.5552 14.9298 38.6323Z" fill="#EE1C25"/>
<path d="M16.0709 40.6734L16.0686 40.671L16.0922 40.645L16.6652 39.9678L16.0709 40.6734Z" stroke="#FECB5C" stroke-width="0.157012" stroke-linecap="round" stroke-linejoin="round"/>
<path d="M16.1799 42.454L14.4161 41.0972C14.3677 41.0623 14.3274 41.0174 14.2978 40.9656C14.2681 40.9139 14.2499 40.8563 14.2443 40.7969C14.2387 40.7375 14.2459 40.6776 14.2653 40.6212C14.2847 40.5648 14.3159 40.5132 14.3569 40.4698C14.4437 40.3782 14.5612 40.3218 14.687 40.3113C14.8127 40.3009 14.9379 40.337 15.0387 40.413L16.7765 41.7507L16.2036 42.4256L16.1799 42.454Z" fill="#FECB5C"/>
<path d="M15.0388 40.4126L16.8097 41.7812L16.7907 41.8025C16.6976 41.77 16.5971 41.7648 16.501 41.7874C16.405 41.8101 16.3174 41.8596 16.2486 41.9303C16.185 41.9984 16.1463 42.0859 16.1386 42.1787C16.1308 42.2715 16.1546 42.3641 16.206 42.4418L16.1846 42.4631L14.409 41.0969C14.3608 41.0619 14.3205 41.0171 14.2909 40.9654C14.2613 40.9137 14.243 40.8563 14.2372 40.797C14.2314 40.7377 14.2382 40.6779 14.2572 40.6214C14.2762 40.5649 14.3069 40.5131 14.3474 40.4694C14.4353 40.3762 14.5545 40.3189 14.6822 40.3084C14.8098 40.2979 14.9369 40.335 15.0388 40.4126Z" fill="#EE1C25"/>
<path d="M16.1799 42.4537L16.2036 42.4253L16.7766 41.7505L16.1799 42.4537Z" stroke="#FECB5C" stroke-width="0.157012" stroke-linecap="round" stroke-linejoin="round"/>
<path d="M11.3192 37.7675L10.6255 37.1969L12.0745 35.5986C12.162 35.5074 12.2798 35.4512 12.4058 35.4407C12.5319 35.4303 12.6573 35.4662 12.7587 35.5418C12.8069 35.5768 12.8471 35.6216 12.8768 35.6733C12.9064 35.725 12.9247 35.7824 12.9305 35.8417C12.9363 35.901 12.9295 35.9609 12.9105 36.0173C12.8915 36.0738 12.8607 36.1256 12.8203 36.1693L11.3429 37.7912L11.3192 37.7675Z" fill="#FECB5C"/>
<path d="M12.0745 35.5986L10.5877 37.2324L10.6114 37.249C10.6984 37.2022 10.7969 37.1812 10.8954 37.1883C10.9939 37.1955 11.0883 37.2305 11.1677 37.2892C11.2429 37.3448 11.2977 37.4237 11.3234 37.5137C11.3491 37.6036 11.3443 37.6995 11.3098 37.7865L11.3335 37.803L12.8203 36.1693C12.8608 36.1256 12.8915 36.0738 12.9105 36.0173C12.9295 35.9609 12.9363 35.901 12.9305 35.8417C12.9247 35.7824 12.9064 35.725 12.8768 35.6733C12.8472 35.6216 12.8069 35.5768 12.7587 35.5418C12.6574 35.4662 12.5319 35.4303 12.4059 35.4407C12.2798 35.4512 12.162 35.5074 12.0745 35.5986Z" fill="#EE1C25"/>
<path d="M10.6255 37.1973L11.3192 37.7679L11.3477 37.7916L10.6255 37.1973Z" stroke="#FECB5C" stroke-width="0.157012" stroke-linecap="round" stroke-linejoin="round"/>
<path d="M11.6507 43.0146L10.957 42.4416L12.4083 40.8457C12.4958 40.7544 12.6137 40.6983 12.7397 40.6878C12.8657 40.6773 12.9912 40.7133 13.0925 40.7889C13.141 40.8237 13.1816 40.8684 13.2114 40.9201C13.2413 40.9718 13.2597 41.0293 13.2655 41.0887C13.2714 41.1481 13.2644 41.208 13.2452 41.2645C13.226 41.3211 13.1949 41.3728 13.1541 41.4163L11.6791 43.0383L11.6507 43.0146Z" fill="#FECB5C"/>
<path d="M12.4084 40.8457L10.9215 42.4795L10.9452 42.496C11.0322 42.4493 11.1307 42.4283 11.2292 42.4354C11.3278 42.4425 11.4222 42.4775 11.5016 42.5363C11.5771 42.5916 11.6321 42.6705 11.6578 42.7606C11.6836 42.8506 11.6786 42.9466 11.6436 43.0335L11.6673 43.0501L13.1541 41.4163C13.1946 41.3726 13.2254 41.3208 13.2444 41.2644C13.2634 41.2079 13.2702 41.1481 13.2644 41.0888C13.2586 41.0295 13.2402 40.9721 13.2106 40.9204C13.181 40.8687 13.1408 40.8239 13.0926 40.7889C12.9912 40.7133 12.8657 40.6773 12.7397 40.6878C12.6137 40.6983 12.4959 40.7544 12.4084 40.8457Z" fill="#EE1C25"/>
<path d="M10.9547 42.4419L11.6508 43.0149L11.6792 43.0386L10.9547 42.4419Z" stroke="#FECB5C" stroke-width="0.157012" stroke-linecap="round" stroke-linejoin="round"/>
<path d="M13.3033 31.2236C13.0245 31.248 12.7588 31.353 12.5386 31.5258C12.3184 31.6986 12.1533 31.9318 12.0634 32.1968C11.9735 32.4619 11.9626 32.7474 12.0322 33.0186C12.1018 33.2897 12.2488 33.5347 12.4552 33.7237C12.6617 33.9127 12.9187 34.0375 13.1948 34.0829C13.471 34.1284 13.7545 34.0924 14.0105 33.9795C14.2666 33.8665 14.4843 33.6815 14.6371 33.4469C14.7898 33.2123 14.8709 32.9384 14.8706 32.6585C14.8528 32.2604 14.6777 31.8857 14.3838 31.6167C14.09 31.3476 13.7013 31.2063 13.3033 31.2236ZM13.63 32.675C13.6264 32.7353 13.5999 32.792 13.5558 32.8333C13.5118 32.8747 13.4537 32.8977 13.3933 32.8976H13.2299C13.1699 32.8977 13.112 32.8751 13.0681 32.8342C13.0241 32.7933 12.9973 32.7373 12.9931 32.6774V32.6253C12.9968 32.565 13.0233 32.5084 13.0673 32.467C13.1113 32.4256 13.1695 32.4026 13.2299 32.4027H13.3956C13.456 32.4026 13.5142 32.4256 13.5582 32.467C13.6022 32.5084 13.6288 32.565 13.6324 32.6253L13.63 32.675Z" fill="#FBAC39"/>
<path d="M13.3056 31.5214C13.0843 31.5403 12.8732 31.6232 12.6982 31.7601C12.5232 31.897 12.3919 32.0819 12.3202 32.2922C12.2486 32.5025 12.2398 32.7291 12.2948 32.9444C12.3499 33.1596 12.4664 33.3542 12.6303 33.5042C12.7941 33.6543 12.9981 33.7534 13.2173 33.7894C13.4365 33.8254 13.6615 33.7968 13.8647 33.7071C14.0679 33.6173 14.2406 33.4703 14.3616 33.284C14.4826 33.0977 14.5468 32.8801 14.5462 32.6579C14.5401 32.5016 14.5031 32.348 14.4373 32.2061C14.3716 32.0641 14.2783 31.9366 14.1629 31.8309C14.0476 31.7252 13.9124 31.6435 13.7652 31.5903C13.6181 31.5372 13.4619 31.5138 13.3056 31.5214ZM13.63 32.6745C13.6263 32.7348 13.5998 32.7915 13.5558 32.8328C13.5118 32.8742 13.4536 32.8972 13.3932 32.8971H13.2298C13.1698 32.8972 13.112 32.8746 13.068 32.8337C13.0241 32.7928 12.9973 32.7368 12.9931 32.6769V32.6248C12.9967 32.5645 13.0232 32.5079 13.0673 32.4665C13.1113 32.4251 13.1694 32.4021 13.2298 32.4022H13.3956C13.456 32.4021 13.5141 32.4251 13.5582 32.4665C13.6022 32.5079 13.6287 32.5645 13.6323 32.6248L13.63 32.6745Z" fill="#FECB5C"/>
<path d="M13.3058 31.7681V32.2156M13.5472 31.9906L13.0619 31.993M13.3058 33.0561L13.3081 33.5013M13.5496 33.2787H13.0643M14.061 32.3624V32.8075M14.3049 32.5849H13.8195M12.5505 32.3647V32.8099M12.7944 32.5873H12.309" stroke="#FBAC39" stroke-width="0.117759" stroke-linecap="round" stroke-linejoin="round"/>
<path d="M56.9182 61.3577C57.2543 61.3577 57.5267 61.0852 57.5267 60.7491C57.5267 60.4131 57.2543 60.1406 56.9182 60.1406C56.5822 60.1406 56.3098 60.4131 56.3098 60.7491C56.3098 61.0852 56.5822 61.3577 56.9182 61.3577Z" fill="#E8A091"/>
<path d="M16.8475 80.2577L17.3968 58.9218L17.4062 58.6092V58.6021L20.5432 38.8574L20.5456 39.0918L19.8803 19.7354L22.9794 38.8526L22.9842 38.8929L22.9794 39.0871L22.3544 59.0686L22.3639 58.7466L24.4189 79.9901L16.8475 80.2577Z" fill="#6D2632"/>
<path d="M47.9784 25.5952L37.5447 29.2155L37.6039 29.1895L29.7578 33.809C29.6605 33.8664 29.5483 33.8933 29.4356 33.8861C29.3228 33.8789 29.2149 33.838 29.1257 33.7687L29.0973 33.7474L23.588 29.4854L24.8688 29.0521L22.7617 39.269C22.733 39.4062 22.6775 39.5363 22.5984 39.6519C22.5194 39.7676 22.4183 39.8666 22.3011 39.9432C22.1838 40.0199 22.0525 40.0726 21.9149 40.0985C21.7772 40.1244 21.6357 40.123 21.4986 40.0942C21.3615 40.0654 21.2314 40.0099 21.1157 39.9309C21.0001 39.8518 20.9011 39.7508 20.8245 39.6335C20.7479 39.5162 20.6951 39.3849 20.6692 39.2473C20.6433 39.1096 20.6448 38.9681 20.6735 38.831C20.6786 38.8131 20.6826 38.7949 20.6854 38.7765L23.3181 28.6828L23.3299 28.6402C23.3631 28.5112 23.4288 28.3928 23.5208 28.2964C23.6127 28.2001 23.7278 28.1289 23.8551 28.0897C23.9824 28.0505 24.1176 28.0446 24.2479 28.0726C24.3781 28.1006 24.4989 28.1615 24.5989 28.2495L29.8478 32.8358L29.1872 32.7743L37.2913 28.6236H37.3079C37.3211 28.6156 37.3355 28.61 37.3505 28.607L47.9784 25.5952Z" fill="#6D2632"/>
<path d="M43.4659 23.0898C43.2741 23.5421 43.0658 23.9849 42.8551 24.4253C42.6444 24.8657 42.4242 25.299 42.1945 25.7275C41.9649 26.1561 41.74 26.5894 41.5056 27.0132C41.2712 27.4371 41.0321 27.8609 40.7953 28.28L40.7053 27.6075C41.5529 28.3273 42.3839 29.0621 43.1984 29.8119L42.7983 29.6556C43.5259 29.6556 44.2527 29.6659 44.9788 29.6864C45.7056 29.7077 46.4324 29.7338 47.1616 29.7788H47.3629L47.4718 29.8829C48.0211 30.4204 48.5538 30.9792 49.0865 31.5404C49.3445 31.8269 49.6097 32.1063 49.8654 32.3975C50.1211 32.6887 50.3768 32.98 50.6206 33.2831C50.2892 33.0794 49.9672 32.864 49.6452 32.6485C49.3232 32.433 49.0131 32.2034 48.6982 31.9832C48.0779 31.5262 47.4552 31.0692 46.8539 30.5933L47.164 30.7117C46.4348 30.7543 45.708 30.7803 44.9811 30.8016C44.2543 30.8229 43.5275 30.8301 42.8006 30.8324H42.5639L42.3934 30.6761C41.579 29.9264 40.778 29.16 39.9903 28.3771L39.6636 28.0503L39.9004 27.707C40.1782 27.3076 40.4591 26.913 40.7432 26.5231C41.0273 26.1332 41.3185 25.7441 41.6168 25.3558C41.9081 24.9651 42.2135 24.5863 42.5189 24.2051C42.8243 23.8239 43.1344 23.4545 43.4659 23.0898ZM33.3825 23.0898C33.1576 23.7481 32.909 24.385 32.6297 25.0172C32.3503 25.6494 32.0709 26.2674 31.775 26.8806L31.8578 26.5799C32.033 28.4741 32.0946 30.392 32.0946 32.2981L31.9407 31.8245L32.4616 32.568C32.6368 32.8048 32.8025 33.07 32.9729 33.3186C33.3115 33.8229 33.643 34.3296 33.9673 34.8434L33.6193 34.5687C34.5663 34.95 35.4802 35.3525 36.3964 35.7905C36.8533 36.0107 37.3103 36.2333 37.7601 36.4724C38.21 36.7116 38.6598 36.946 39.1001 37.2277C38.5864 37.1685 38.0821 37.0833 37.5802 36.991C37.0783 36.8986 36.5811 36.7968 36.0863 36.6879C35.0943 36.4677 34.1165 36.2143 33.1458 35.9397L32.9611 35.8876L32.7883 35.6745C32.4095 35.2009 32.0385 34.7211 31.6755 34.2349C31.4956 33.9981 31.3086 33.7613 31.1334 33.5056L30.6007 32.7716L30.4468 32.5585V32.291C30.4468 30.3968 30.5178 28.4789 30.6835 26.5728L30.7025 26.3574L30.7782 26.2816C31.1854 25.7323 31.5974 25.1877 32.0307 24.6549C32.4639 24.1222 32.909 23.5942 33.3825 23.0898ZM46.1507 56.5889L35.9111 58.2061C35.8556 58.2169 35.7985 58.2169 35.743 58.2061L35.6838 58.1895L32.3384 57.2992C32.2965 57.2883 32.2565 57.2707 32.2201 57.2472L32.1325 57.1927C31.8696 57.0276 31.595 56.882 31.3109 56.757C31.1912 56.7036 31.0668 56.6616 30.9392 56.6315C30.9016 56.6203 30.8624 56.6155 30.8232 56.6173H30.854C30.8852 56.6157 30.9161 56.6109 30.9463 56.6031L31.0173 56.5818C31.0931 56.5487 31.0955 56.5392 31.0907 56.5558C31.086 56.5723 31.06 56.6055 31.0387 56.6528C30.9821 56.7676 30.9338 56.8863 30.8942 57.008C30.8006 57.2944 30.7278 57.5872 30.6764 57.8841C30.6359 58.1199 30.5034 58.3299 30.3081 58.468C30.1127 58.6061 29.8705 58.661 29.6347 58.6205L29.5353 58.6039L21.1897 57.1477L22.5202 56.7452L20.8345 58.7199C20.7033 58.8738 20.5431 59.0004 20.363 59.0924C20.1829 59.1843 19.9864 59.24 19.7848 59.256C19.5832 59.2721 19.3804 59.2482 19.188 59.1859C18.9956 59.1236 18.8174 59.024 18.6635 58.8927C18.5096 58.7615 18.383 58.6013 18.2911 58.4212C18.1991 58.241 18.1435 58.0445 18.1274 57.8429C18.1114 57.6413 18.1352 57.4385 18.1975 57.2461C18.2599 57.0537 18.3595 56.8754 18.4907 56.7215C18.5247 56.6793 18.5619 56.6397 18.6019 56.6031L20.496 54.806L20.6025 54.7042C20.7633 54.5528 20.9605 54.4455 21.175 54.3928C21.3895 54.3401 21.6139 54.3438 21.8265 54.4035L29.9709 56.7333L28.8274 57.4437C28.9365 57.0546 29.0758 56.6746 29.2441 56.3072C29.3372 56.1023 29.4465 55.9052 29.5708 55.7176C29.648 55.6057 29.7351 55.5011 29.8312 55.405C29.9648 55.2586 30.1256 55.1396 30.3047 55.0546C30.3666 55.0243 30.4317 55.0012 30.4989 54.9859C30.5713 54.9651 30.6461 54.9532 30.7214 54.9504H31.015C31.1512 54.9719 31.2852 55.006 31.4151 55.0522C31.6231 55.1271 31.8243 55.2198 32.0165 55.3293C32.3595 55.526 32.6872 55.7484 32.9966 55.9946L32.7906 55.8881L36.0247 57.1359L35.788 57.1122L46.1507 56.5889ZM42.1259 52.6158C41.5327 52.7027 40.9351 52.7572 40.336 52.7792C39.7441 52.806 39.1554 52.8115 38.5698 52.7958C37.9827 52.7958 37.3979 52.7555 36.8155 52.7176C36.2331 52.6797 35.653 52.6206 35.073 52.5543C34.834 52.5269 34.6158 52.4058 34.4661 52.2175C34.3165 52.0293 34.2478 51.7893 34.2751 51.5503V51.4651L34.2869 51.4177C34.3769 50.9915 34.4724 50.5653 34.5734 50.1391C34.6776 49.7153 34.7817 49.2915 34.9001 48.87C35.0185 48.4486 35.1369 48.0295 35.2671 47.6104C35.3973 47.1913 35.5346 46.7769 35.679 46.3626V46.6988C35.6435 46.3697 35.6009 46.0429 35.5749 45.7091C35.5488 45.3752 35.5181 45.0461 35.4991 44.7122C35.46 44.0372 35.46 43.3605 35.4991 42.6854C35.8341 43.2732 36.1337 43.8804 36.3964 44.5039C36.5266 44.8117 36.6545 45.1195 36.7729 45.4297C36.8912 45.7398 37.0096 46.0524 37.1185 46.3649C37.1395 46.4208 37.1468 46.4809 37.1398 46.5401L37.1185 46.7012C37.0633 47.1368 37.0001 47.5709 36.9291 48.0034C36.8557 48.4344 36.7847 48.8653 36.6924 49.2938C36.6 49.7224 36.5148 50.1486 36.4177 50.5748C36.3207 51.001 36.2141 51.4225 36.1028 51.8463L35.3286 50.7098C35.9016 50.8092 36.4745 50.9158 37.0475 51.0389C37.6204 51.162 38.1863 51.297 38.7521 51.4509C39.318 51.6048 39.8838 51.7705 40.4449 51.9623C41.0167 52.1494 41.5779 52.3675 42.1259 52.6158Z" fill="#6D2632"/>
<path d="M29.9803 54.9314L39.7038 47.9536L31.3724 56.5462C31.1746 56.75 30.904 56.8668 30.62 56.8711C30.3361 56.8753 30.0621 56.7665 29.8584 56.5687C29.6546 56.3709 29.5378 56.1002 29.5335 55.8163C29.5293 55.5323 29.6381 55.2583 29.8359 55.0545C29.8806 55.0096 29.9289 54.9685 29.9803 54.9314Z" fill="#6D2632"/>
<path d="M32.8189 26.848C32.8189 27.5583 32.3312 28.1455 31.7299 28.1455C31.1285 28.1455 30.6384 27.5654 30.6384 26.848C30.6384 26.1305 31.0527 26.1779 31.6541 26.1779C32.2555 26.1779 32.8189 26.1329 32.8189 26.848ZM35.5274 31.0531C35.5274 31.7634 35.1155 31.7256 34.5117 31.7256C33.908 31.7256 33.4227 31.1431 33.4227 30.428C33.4227 29.713 33.9104 29.1305 34.5117 29.1305C35.1131 29.1305 35.5274 30.338 35.5274 31.0531Z" fill="#EAA0CA"/>
<path d="M34.1732 25.2379C34.1732 25.7115 33.7802 26.713 33.3848 26.713C32.9895 26.713 32.7456 25.7067 32.7456 25.2379C32.7245 25.1328 32.7269 25.0242 32.7528 24.9201C32.7787 24.8161 32.8274 24.719 32.8954 24.6361C32.9633 24.5531 33.0489 24.4862 33.1458 24.4403C33.2427 24.3944 33.3486 24.3706 33.4559 24.3706C33.5631 24.3706 33.669 24.3944 33.7659 24.4403C33.8629 24.4862 33.9484 24.5531 34.0163 24.6361C34.0843 24.719 34.133 24.8161 34.1589 24.9201C34.1848 25.0242 34.1873 25.1328 34.1661 25.2379H34.1732ZM32.4355 29.4431C32.4514 29.6494 32.386 29.8538 32.2533 30.0126C32.1206 30.1714 31.9311 30.2721 31.7252 30.2931C31.3298 30.2931 30.9344 30.5299 30.9344 30.0705C30.9344 29.6112 31.3298 28.593 31.7252 28.593C31.9311 28.614 32.1206 28.7147 32.2533 28.8735C32.386 29.0323 32.4514 29.2367 32.4355 29.4431ZM34.5497 32.8432C34.5497 33.3167 34.1543 34.3183 33.7613 34.3183C33.3683 34.3183 33.122 33.312 33.122 32.8432C33.1009 32.738 33.1034 32.6295 33.1293 32.5254C33.1552 32.4213 33.2039 32.3243 33.2718 32.2413C33.3398 32.1583 33.4253 32.0915 33.5222 32.0456C33.6192 31.9997 33.7251 31.9759 33.8323 31.9759C33.9396 31.9759 34.0455 31.9997 34.1424 32.0456C34.2393 32.0915 34.3248 32.1583 34.3928 32.2413C34.4607 32.3243 34.5094 32.4213 34.5353 32.5254C34.5612 32.6295 34.5637 32.738 34.5426 32.8432H34.5497ZM36.2235 35.4879C36.697 35.5495 37.6441 36.0728 37.5825 36.4658C37.5209 36.8589 36.2377 37.3277 35.7713 37.2661C35.3049 37.2046 35.2339 36.4753 35.2978 36.0823C35.3453 35.8827 35.4683 35.7093 35.6409 35.5985C35.8135 35.4877 36.0223 35.4481 36.2235 35.4879ZM33.1954 31.0531C33.2166 31.1583 33.2141 31.2668 33.1882 31.3709C33.1623 31.475 33.1136 31.572 33.0457 31.655C32.9777 31.738 32.8922 31.8048 32.7953 31.8507C32.6983 31.8966 32.5924 31.9204 32.4852 31.9204C32.3779 31.9204 32.272 31.8966 32.1751 31.8507C32.0782 31.8048 31.9926 31.738 31.9247 31.655C31.8567 31.572 31.8081 31.475 31.7822 31.3709C31.7562 31.2668 31.7538 31.1583 31.7749 31.0531C31.7749 30.5796 32.0117 30.8306 32.4141 30.8306C32.8166 30.8306 33.1954 30.5843 33.1954 31.0531ZM35.0776 36.937C35.1007 37.0431 35.0997 37.153 35.0747 37.2587C35.0497 37.3643 35.0014 37.463 34.9333 37.5475C34.8651 37.6321 34.779 37.7002 34.681 37.7471C34.5831 37.7939 34.4759 37.8183 34.3674 37.8183C34.2588 37.8183 34.1516 37.7939 34.0537 37.7471C33.9558 37.7002 33.8696 37.6321 33.8015 37.5475C33.7334 37.463 33.685 37.3643 33.66 37.2587C33.6351 37.153 33.6341 37.0431 33.6571 36.937C33.6571 36.4635 33.8939 36.7121 34.2963 36.7121C34.6988 36.7121 35.0776 36.4777 35.0776 36.937Z" fill="#E0ADCD"/>
<path d="M47.415 30.6954C47.415 31.4057 47.0007 31.3655 46.3993 31.3655C45.7979 31.3655 45.3079 30.7854 45.3079 30.0703C45.3079 29.3552 45.7956 28.7728 46.3993 28.7728C47.003 28.7728 47.415 29.978 47.415 30.6954ZM40.6438 27.7428C40.6438 28.4531 40.1561 29.0403 39.5524 29.0403C38.9486 29.0403 38.3875 29.0853 38.3875 28.3702C38.3875 27.6552 38.951 26.4453 39.5524 26.4453C40.1537 26.4453 40.6438 27.0254 40.6438 27.7428ZM44.9314 25.1477C44.9314 25.858 44.5195 25.8202 43.9157 25.8202C43.312 25.8202 42.8267 25.2377 42.8267 24.5226C42.8267 23.8076 43.3144 23.2251 43.9157 23.2251C44.5171 23.2251 44.9314 24.4327 44.9314 25.1477Z" fill="#EAA0CA"/>
<path d="M42.0736 28.3704C42.0736 28.844 41.8369 28.593 41.4344 28.593C41.2333 28.5593 41.0507 28.4554 40.919 28.2998C40.7872 28.1441 40.715 27.9468 40.715 27.7429C40.715 27.539 40.7872 27.3417 40.919 27.1861C41.0507 27.0305 41.2333 26.9266 41.4344 26.8929C41.8274 26.8929 42.0736 27.8992 42.0736 28.3704ZM38.5223 30.3404C38.5223 30.8139 38.2856 30.5629 37.8831 30.5629C37.6835 30.5278 37.5026 30.4235 37.3723 30.2683C37.242 30.113 37.1705 29.9168 37.1705 29.7141C37.1705 29.5114 37.242 29.3152 37.3723 29.16C37.5026 29.0047 37.6835 28.9004 37.8831 28.8653C38.2761 28.8653 38.5223 29.8716 38.5223 30.3404ZM36.9574 34.7657C36.9574 35.2393 36.7206 34.9907 36.3181 34.9907C36.117 34.957 35.9344 34.8531 35.8027 34.6975C35.671 34.5418 35.5987 34.3445 35.5987 34.1406C35.5987 33.9367 35.671 33.7394 35.8027 33.5838C35.9344 33.4282 36.117 33.3243 36.3181 33.2906C36.7135 33.2906 36.9574 34.2969 36.9574 34.7657ZM46.6619 25.7753C46.6619 26.2489 46.4252 25.9979 46.0227 25.9979C45.8216 25.9642 45.639 25.8603 45.5073 25.7047C45.3755 25.5491 45.3033 25.3518 45.3033 25.1479C45.3033 24.944 45.3755 24.7467 45.5073 24.591C45.639 24.4354 45.8216 24.3315 46.0227 24.2979C46.4181 24.2979 46.6619 25.3041 46.6619 25.7753ZM42.5992 25.1479C42.6223 25.254 42.6213 25.3639 42.5963 25.4695C42.5713 25.5752 42.523 25.6739 42.4549 25.7584C42.3867 25.8429 42.3005 25.9111 42.2026 25.958C42.1047 26.0048 41.9975 26.0291 41.889 26.0291C41.7804 26.0291 41.6732 26.0048 41.5753 25.958C41.4774 25.9111 41.3912 25.8429 41.3231 25.7584C41.255 25.6739 41.2066 25.5752 41.1816 25.4695C41.1567 25.3639 41.1557 25.254 41.1787 25.1479C41.1787 24.6743 41.4155 24.9253 41.8203 24.9253C42.2252 24.9253 42.5992 24.6791 42.5992 25.1479ZM38.1009 27.6814C38.1239 27.7875 38.1229 27.8974 38.098 28.003C38.073 28.1087 38.0246 28.2074 37.9565 28.2919C37.8884 28.3764 37.8022 28.4446 37.7043 28.4915C37.6064 28.5383 37.4992 28.5626 37.3906 28.5626C37.2821 28.5626 37.1749 28.5383 37.077 28.4915C36.9791 28.4446 36.8929 28.3764 36.8247 28.2919C36.7566 28.2074 36.7083 28.1087 36.6833 28.003C36.6583 27.8974 36.6573 27.7875 36.6804 27.6814C36.6804 27.2078 36.9171 27.4588 37.322 27.4588C37.7268 27.4588 38.1009 27.2126 38.1009 27.6814Z" fill="#E0ADCD"/>
<path d="M55.3201 76.3291C55.0573 76.9731 54.7022 76.7174 54.16 76.4048C53.6179 76.0923 53.393 75.3133 53.6557 74.6693C53.9185 74.0252 54.572 73.7577 55.1142 74.0702C55.6563 74.3828 55.5829 75.685 55.3201 76.3291ZM46.5294 33.2619C46.2666 33.9083 45.6132 34.1758 45.071 33.8609C44.5289 33.546 44.0056 33.295 44.2708 32.651C44.536 32.007 45.4853 31.2161 46.0275 31.5287C46.5697 31.8412 46.7946 32.6178 46.5294 33.2619ZM51.3403 33.1624C51.0775 33.8065 50.7224 33.5507 50.1802 33.2358C49.638 32.9209 49.4131 32.1467 49.6759 31.5026C49.9387 30.8586 50.5921 30.5887 51.1343 30.9036C51.6765 31.2185 51.6126 32.516 51.3403 33.1624Z" fill="#EAA0CA"/>
<path d="M49.1598 30.1082C49.1303 30.2013 49.0809 30.2869 49.0149 30.3589C48.9489 30.4309 48.868 30.4877 48.7777 30.5251C48.6875 30.5625 48.5902 30.5798 48.4926 30.5757C48.395 30.5716 48.2995 30.5461 48.2128 30.5012C47.8576 30.2952 47.4125 30.3094 47.5854 29.888C47.7582 29.4665 48.485 28.7656 48.8378 28.9716C49.0151 29.0942 49.1442 29.2747 49.2029 29.4821C49.2617 29.6894 49.2464 29.9108 49.1598 30.1082ZM47.5877 34.569C47.4149 34.9928 47.2847 34.6448 46.9296 34.4388C46.7511 34.3172 46.6205 34.1372 46.5605 33.9298C46.5004 33.7223 46.5145 33.5004 46.6005 33.3023C46.6296 33.2089 46.6788 33.123 46.7447 33.0507C46.8107 32.9785 46.8917 32.9216 46.982 32.8841C47.0724 32.8466 47.1698 32.8294 47.2675 32.8338C47.3653 32.8381 47.4608 32.8639 47.5475 32.9092C47.9074 33.1152 47.7582 34.1476 47.5877 34.569ZM52.6661 34.6258C52.4933 35.0473 52.3631 34.6992 52.0079 34.4932C51.8294 34.3717 51.6989 34.1917 51.6388 33.9842C51.5788 33.7768 51.5929 33.5549 51.6789 33.3567C51.7078 33.2633 51.7571 33.1774 51.8231 33.1051C51.889 33.0329 51.9701 32.9761 52.0606 32.9388C52.151 32.9015 52.2485 32.8846 52.3463 32.8893C52.444 32.894 52.5394 32.9202 52.6259 32.966C52.9881 33.1697 52.839 34.202 52.6661 34.6258ZM60.9525 47.2957C60.7797 47.7196 60.6495 47.3715 60.2944 47.1655C60.1158 47.0439 59.9853 46.8639 59.9253 46.6565C59.8652 46.449 59.8793 46.2271 59.9653 46.029C59.9944 45.9356 60.0436 45.8497 60.1095 45.7775C60.1755 45.7052 60.2565 45.6483 60.3468 45.6108C60.4371 45.5733 60.5346 45.5561 60.6323 45.5605C60.7301 45.5648 60.8256 45.5906 60.9123 45.6359C61.2745 45.8419 61.1254 46.8814 60.9525 47.2957ZM55.126 61.4313C54.9532 61.8527 54.2287 62.5512 53.8736 62.3476C53.5184 62.144 53.6676 61.1092 53.8404 60.6902C53.8698 60.597 53.9192 60.5113 53.9853 60.4394C54.0513 60.3674 54.1323 60.3107 54.2226 60.2735C54.313 60.2362 54.4103 60.2192 54.5079 60.2237C54.6055 60.2282 54.7009 60.2541 54.7874 60.2995C54.9669 60.4191 55.0989 60.5977 55.1607 60.8043C55.2225 61.011 55.2102 61.2327 55.126 61.4313ZM48.2601 42.8562C48.0873 43.28 47.3628 43.9785 47.0077 43.7725C46.6526 43.5665 46.8017 42.5365 46.9745 42.1151C47.0039 42.0219 47.0533 41.9363 47.1194 41.8643C47.1854 41.7923 47.2664 41.7357 47.3568 41.6984C47.4471 41.6611 47.5445 41.6442 47.6421 41.6486C47.7396 41.6531 47.8351 41.679 47.9216 41.7244C48.1013 41.8437 48.2336 42.0223 48.2955 42.2291C48.3573 42.4358 48.3448 42.6577 48.2601 42.8562ZM49.245 31.9479C49.2159 32.0413 49.1667 32.1272 49.1008 32.1994C49.0348 32.2717 48.9538 32.3286 48.8635 32.3661C48.7731 32.4036 48.6757 32.4208 48.5779 32.4164C48.4802 32.4121 48.3847 32.3863 48.298 32.341C48.1191 32.2197 47.9881 32.0399 47.9276 31.8324C47.8671 31.6249 47.8808 31.4028 47.9665 31.2044C48.1394 30.783 48.2696 31.131 48.6247 31.3347C48.9799 31.5383 49.4155 31.5264 49.245 31.9479Z" fill="#E0ADCD"/>
<path d="M36.6567 41.3429C36.6567 42.0533 36.169 42.6405 35.5653 42.6405C34.9615 42.6405 34.4762 42.058 34.4762 41.3429C34.4762 40.6279 34.8881 40.6705 35.4895 40.6705C36.0909 40.6705 36.6567 40.6255 36.6567 41.3429ZM35.0775 48.1431C35.0775 48.8535 34.5875 49.4407 33.9861 49.4407C33.3848 49.4407 32.8189 49.4857 32.8189 48.7682C32.8189 48.0508 33.3848 46.8456 33.9861 46.8456C34.5875 46.8456 35.0775 47.4257 35.0775 48.1431Z" fill="#EAA0CA"/>
<path d="M38.011 39.7328C38.011 40.2064 37.6157 41.2079 37.2203 41.2079C36.8249 41.2079 36.581 40.2016 36.581 39.7328C36.558 39.6267 36.559 39.5168 36.584 39.4112C36.609 39.3055 36.6573 39.2068 36.7254 39.1223C36.7935 39.0378 36.8797 38.9696 36.9777 38.9227C37.0756 38.8759 37.1828 38.8516 37.2913 38.8516C37.3999 38.8516 37.507 38.8759 37.605 38.9227C37.7029 38.9696 37.7891 39.0378 37.8572 39.1223C37.9253 39.2068 37.9736 39.3055 37.9986 39.4112C38.0236 39.5168 38.0246 39.6267 38.0016 39.7328H38.011ZM36.2804 43.938C36.2969 44.1444 36.2317 44.3492 36.0989 44.5081C35.9661 44.6671 35.7762 44.7675 35.5701 44.788C35.1771 44.788 34.7817 45.0248 34.7817 44.563C34.7817 44.1013 35.1771 43.0879 35.5701 43.0879C35.7762 43.1083 35.9661 43.2088 36.0989 43.3678C36.2317 43.5267 36.2969 43.7315 36.2804 43.938ZM37.9353 50.5582C37.9353 51.0318 37.6985 50.7808 37.296 50.7808C37.0964 50.7457 36.9156 50.6413 36.7852 50.4861C36.6549 50.3308 36.5835 50.1346 36.5835 49.9319C36.5835 49.7292 36.6549 49.533 36.7852 49.3778C36.9156 49.2225 37.0964 49.1182 37.296 49.0831C37.6914 49.0831 37.9353 50.0894 37.9353 50.5582ZM40.1182 48.6782C40.1182 49.1518 39.7228 50.1557 39.3274 50.1557C38.932 50.1557 38.6882 49.1494 38.6882 48.6782C38.6651 48.5721 38.6661 48.4622 38.6911 48.3566C38.7161 48.2509 38.7644 48.1522 38.8325 48.0677C38.9007 47.9832 38.9868 47.915 39.0848 47.8681C39.1827 47.8213 39.2899 47.797 39.3984 47.797C39.507 47.797 39.6141 47.8213 39.7121 47.8681C39.81 47.915 39.8962 47.9832 39.9643 48.0677C40.0324 48.1522 40.0808 48.2509 40.1057 48.3566C40.1307 48.4622 40.1317 48.5721 40.1087 48.6782H40.1182ZM38.3875 47.3381C38.3875 47.8116 37.9921 48.8132 37.5967 48.8132C37.2013 48.8132 36.9575 47.8069 36.9575 47.3381C36.9344 47.232 36.9354 47.1221 36.9604 47.0164C36.9854 46.9108 37.0337 46.8121 37.1019 46.7275C37.17 46.643 37.2562 46.5748 37.3541 46.528C37.452 46.4811 37.5592 46.4568 37.6677 46.4568C37.7763 46.4568 37.8835 46.4811 37.9814 46.528C38.0793 46.5748 38.1655 46.643 38.2336 46.7275C38.3018 46.8121 38.3501 46.9108 38.3751 47.0164C38.4001 47.1221 38.4011 47.232 38.378 47.3381H38.3875ZM37.7104 42.953C37.7104 43.4265 37.315 44.4304 36.9196 44.4304C36.5242 44.4304 36.2804 43.4218 36.2804 42.953C36.2573 42.8469 36.2583 42.737 36.2833 42.6313C36.3083 42.5257 36.3566 42.427 36.4247 42.3424C36.4929 42.2579 36.5791 42.1897 36.677 42.1429C36.7749 42.096 36.8821 42.0717 36.9906 42.0717C37.0992 42.0717 37.2064 42.096 37.3043 42.1429C37.4022 42.1897 37.4884 42.2579 37.5565 42.3424C37.6246 42.427 37.673 42.5257 37.698 42.6313C37.7229 42.737 37.7239 42.8469 37.7009 42.953H37.7104Z" fill="#E0ADCD"/>
<path d="M45.1349 58.1378C44.8697 58.7818 44.5146 58.5261 43.9748 58.2112C43.7029 58.0255 43.504 57.7511 43.412 57.435C43.3201 57.1188 43.3407 56.7806 43.4705 56.478C43.7333 55.8339 44.3868 55.5664 44.9289 55.8789C45.4711 56.1915 45.3977 57.4937 45.1349 58.1378ZM40.5134 52.9761C40.2483 53.6201 39.5972 53.8876 39.055 53.5751C38.5129 53.2626 37.9896 53.0068 38.2524 52.3628C38.5152 51.7188 39.467 50.9279 40.0092 51.2405C40.5513 51.553 40.7762 52.3273 40.5134 52.9761ZM36.2992 51.9627C36.0364 52.6067 35.383 52.8766 34.8408 52.5617C34.2986 52.2468 33.7754 51.9958 34.0382 51.3518C34.301 50.7077 35.2528 49.9145 35.7949 50.2295C36.3371 50.5444 36.562 51.3186 36.2992 51.9627ZM43.6433 70.1755C43.3782 70.8195 43.023 70.5638 42.4832 70.2489C41.9434 69.934 41.7162 69.1597 41.979 68.5157C42.2418 67.8716 42.8952 67.6041 43.4374 67.9166C43.9795 68.2292 43.9061 69.5314 43.6433 70.1755Z" fill="#EAA0CA"/>
<path d="M43.7547 52.4506C43.726 52.5442 43.6769 52.6304 43.611 52.7029C43.5452 52.7754 43.4641 52.8324 43.3737 52.87C43.2832 52.9075 43.1855 52.9246 43.0877 52.9201C42.9899 52.9155 42.8942 52.8894 42.8077 52.8436C42.4525 52.6376 42.0074 52.6542 42.1803 52.2328C42.3531 51.8113 43.0776 51.1104 43.4327 51.3164C43.6101 51.4383 43.7394 51.6183 43.7982 51.8254C43.857 52.0325 43.8416 52.2536 43.7547 52.4506ZM53.49 47.4215C53.3196 47.8453 53.1893 47.4972 52.8342 47.2912C52.6557 47.1697 52.5252 46.9897 52.4651 46.7822C52.405 46.5748 52.4192 46.3529 52.5051 46.1547C52.5342 46.0613 52.5835 45.9754 52.6494 45.9032C52.7153 45.8309 52.7963 45.774 52.8867 45.7365C52.977 45.6991 53.0745 45.6819 53.1722 45.6862C53.2699 45.6905 53.3655 45.7163 53.4521 45.7617C53.8144 45.9677 53.6629 47 53.49 47.4215ZM42.0429 51.9605C42.0136 52.0536 41.9642 52.1393 41.8981 52.2113C41.8321 52.2833 41.751 52.3399 41.6607 52.3771C41.5704 52.4144 41.473 52.4314 41.3754 52.4269C41.2778 52.4224 41.1824 52.3965 41.0959 52.3511C40.9171 52.2299 40.7862 52.0499 40.7261 51.8423C40.666 51.6347 40.6804 51.4127 40.7668 51.2146C40.9397 50.7932 41.0699 51.1412 41.425 51.3472C41.7801 51.5532 42.2158 51.5366 42.0429 51.9605Z" fill="#E0ADCD"/>
<path d="M31.7086 53.5116C31.4245 54.1438 31.0789 53.8715 30.5462 53.5329C30.2792 53.3382 30.0884 53.0564 30.0067 52.7362C29.9251 52.4159 29.9576 52.0772 30.0987 51.7784C30.3828 51.1462 31.0457 50.907 31.5761 51.2456C32.1064 51.5842 31.9928 52.8794 31.7086 53.5116Z" fill="#EAA0CA"/>
<path d="M32.987 55.0333C32.8 55.4477 32.6816 55.0925 32.3336 54.8723C32.1607 54.7428 32.0374 54.558 31.984 54.3487C31.9306 54.1394 31.9504 53.9181 32.04 53.7216C32.0722 53.6283 32.125 53.5434 32.1944 53.4732C32.2637 53.403 32.348 53.3492 32.4408 53.3158C32.5337 53.2824 32.6329 53.2703 32.7311 53.2802C32.8293 53.2902 32.924 53.3221 33.0083 53.3735C33.3563 53.5937 33.1717 54.619 32.987 55.0333ZM30.1365 54.5408C29.9518 54.9552 29.2037 55.6205 28.8556 55.4003C28.5076 55.1801 28.6899 54.1525 28.8769 53.7429C28.9089 53.6497 28.9614 53.5648 29.0305 53.4946C29.0997 53.4244 29.1837 53.3705 29.2764 53.3371C29.3691 53.3037 29.4682 53.2916 29.5662 53.3016C29.6643 53.3115 29.7588 53.3434 29.8429 53.3948C30.0146 53.5242 30.1372 53.7081 30.1906 53.9164C30.244 54.1246 30.2249 54.3449 30.1365 54.5408Z" fill="#E0ADCD"/>
<path d="M35.4588 59.0965C35.346 59.1946 35.2124 59.2658 35.0681 59.3047C34.9238 59.3436 34.7725 59.3493 34.6257 59.3213C34.4788 59.2932 34.3403 59.2322 34.2205 59.1428C34.1007 59.0534 34.0028 58.938 33.9341 58.8052C33.7622 58.5212 33.6921 58.1872 33.7351 57.8581C33.7781 57.5289 33.9318 57.2242 34.1708 56.9939C34.6585 56.5748 34.8692 56.9939 35.2244 57.5787C35.5795 58.1636 35.9465 58.675 35.4588 59.0965Z" fill="#EAA0CA"/>
<path d="M37.3482 59.4539C37.0285 59.731 36.1123 59.9393 35.8803 59.5605C35.6483 59.1816 36.1904 58.3529 36.51 58.0783C36.5838 58.0138 36.6713 57.967 36.7658 57.9413C36.8603 57.9156 36.9594 57.9117 37.0557 57.93C37.1519 57.9482 37.2427 57.9881 37.3213 58.0466C37.3998 58.1051 37.4641 58.1807 37.5091 58.2677C37.623 58.4537 37.6691 58.6733 37.6398 58.8895C37.6105 59.1056 37.5075 59.305 37.3482 59.4539ZM33.2121 57.2188C32.8924 57.4934 31.9738 57.7042 31.7442 57.3229C31.5145 56.9417 32.0543 56.1178 32.3739 55.8407C32.4475 55.7763 32.5348 55.7295 32.6291 55.7038C32.7235 55.6781 32.8224 55.6742 32.9185 55.6925C33.0145 55.7107 33.1052 55.7506 33.1835 55.8091C33.2619 55.8676 33.3259 55.9432 33.3707 56.0301C33.4833 56.2168 33.5289 56.4362 33.5001 56.6523C33.4712 56.8684 33.3696 57.0682 33.2121 57.2188ZM32.7954 59.667C32.5903 59.6235 32.4097 59.503 32.2908 59.3303C32.1719 59.1577 32.1237 58.946 32.1561 58.7389C32.1964 58.2653 32.0283 57.7776 32.4213 57.8249C32.8143 57.8723 33.6169 58.4405 33.579 58.907C33.5411 59.3734 33.1884 59.712 32.7954 59.667Z" fill="#E0ADCD"/>
<path d="M37.8807 55.8025C38.1696 55.175 38.5129 55.4521 39.0408 55.8025C39.3063 56.0002 39.4944 56.2844 39.5726 56.6061C39.6508 56.9277 39.6143 57.2665 39.4694 57.5641C39.1781 58.1916 38.5223 58.4189 37.9873 58.0732C37.4522 57.7275 37.5966 56.43 37.8807 55.8025Z" fill="#EAA0CA"/>
<path d="M38.1175 59.0235C38.3093 58.6139 38.4229 58.9691 38.7686 59.1964C38.9399 59.3277 39.0612 59.5136 39.1125 59.7233C39.1637 59.933 39.1418 60.1539 39.0503 60.3495C39.0167 60.4422 38.9627 60.5263 38.8923 60.5955C38.822 60.6647 38.737 60.7172 38.6436 60.7492C38.5503 60.7812 38.451 60.7919 38.353 60.7805C38.255 60.7691 38.1607 60.7359 38.0772 60.6833C37.7411 60.4584 37.9376 59.4308 38.1175 59.0235ZM40.0115 57.3921C40.2033 56.9801 40.9586 56.3266 41.3042 56.5539C41.6499 56.7812 41.4557 57.8018 41.264 58.2114C41.2303 58.3038 41.1763 58.3875 41.1061 58.4565C41.0359 58.5254 40.9512 58.5778 40.8582 58.6098C40.7652 58.6417 40.6662 58.6526 40.5684 58.6414C40.4707 58.6302 40.3767 58.5974 40.2933 58.5452C40.1219 58.4139 40.0006 58.228 39.9494 58.0183C39.8981 57.8086 39.9201 57.5877 40.0115 57.3921ZM47.4977 25.1669C47.242 24.8094 47.5616 24.807 47.8623 24.5039C47.9294 24.4328 48.0119 24.378 48.1034 24.3437C48.1949 24.3093 48.293 24.2963 48.3904 24.3057C48.4877 24.3151 48.5815 24.3465 48.6648 24.3977C48.7481 24.4489 48.8186 24.5184 48.8709 24.601C48.9947 24.7806 49.0539 24.9969 49.0389 25.2145C49.0238 25.4322 48.9354 25.6383 48.788 25.7991C48.4873 26.1045 47.7534 25.5244 47.4977 25.1669ZM44.2731 26.938C44.2731 27.4115 43.8777 28.4131 43.4847 28.4131C43.0917 28.4131 42.8431 27.4068 42.8431 26.938C42.8201 26.8319 42.8211 26.722 42.8461 26.6164C42.871 26.5107 42.9194 26.412 42.9875 26.3275C43.0556 26.243 43.1418 26.1748 43.2397 26.1279C43.3377 26.0811 43.4448 26.0568 43.5534 26.0568C43.6619 26.0568 43.7691 26.0811 43.867 26.1279C43.965 26.1748 44.0511 26.243 44.1193 26.3275C44.1874 26.412 44.2357 26.5107 44.2607 26.6164C44.2857 26.722 44.2867 26.8319 44.2636 26.938H44.2731Z" fill="#E0ADCD"/>
<path d="M31.6991 59.7948C31.415 60.427 31.0693 60.1547 30.5366 59.8161C30.2696 59.6214 30.0789 59.3396 29.9972 59.0194C29.9155 58.6991 29.948 58.3604 30.0892 58.0616C30.3733 57.4294 31.0362 57.1902 31.5665 57.5288C32.0968 57.8674 31.9832 59.1626 31.6991 59.7948Z" fill="#EAA0CA"/>
<path d="M32.1797 33.1079C32.1797 33.5815 31.9429 33.3329 31.5404 33.3329C31.3394 33.2992 31.1567 33.1953 31.025 33.0397C30.8933 32.884 30.821 32.6867 30.821 32.4828C30.821 32.2789 30.8933 32.0816 31.025 31.926C31.1567 31.7704 31.3394 31.6665 31.5404 31.6328C31.9358 31.6328 32.1797 32.6391 32.1797 33.1079Z" fill="#E0ADCD"/>
<path d="M0.504364 80.0347H107.044" stroke="#F43B3B" stroke-width="0.471036" stroke-miterlimit="10"/>
</g>
<defs>
<clipPath id="clip0_21_189">
<rect width="111" height="80.3902" fill="white"/>
</clipPath>
</defs>
</svg>
