<svg width="98" height="93" viewBox="0 0 98 93" fill="none" xmlns="http://www.w3.org/2000/svg">
<g clip-path="url(#clip0_21_172)">
<path d="M90.6088 79.5063C90.5367 79.244 90.4107 78.9905 90.3791 78.7247C90.3414 78.4077 90.2148 78.1359 90.0716 77.8669C89.9198 77.5817 89.755 77.3025 89.581 77.0302C89.1656 76.3804 88.6537 75.8097 88.1064 75.2698C87.5961 74.7663 87.1194 74.2323 86.6668 73.6771C86.3303 73.2645 86.0688 72.8112 85.9214 72.2929C85.7501 71.6905 85.798 71.1143 86.0796 70.5568C86.1947 70.3289 86.3169 70.1045 86.4294 69.8754C86.6975 69.3296 86.8041 68.7498 86.8038 68.1436C86.8034 67.4692 86.6542 66.825 86.4322 66.1955C85.9942 64.9534 85.3763 63.7973 84.7097 62.667C83.5318 60.6699 82.2664 58.7295 80.8942 56.8601C80.119 55.8039 79.422 54.6891 78.5358 53.7158C78.4332 53.6031 78.3539 53.4692 78.2625 53.346C78.0086 53.0039 77.7568 52.6603 77.4994 52.3209C76.8485 51.4624 76.3 50.5424 75.8385 49.5699C75.7881 49.4635 75.7562 49.3483 75.7158 49.2372C75.7568 49.1568 75.8117 49.2217 75.8606 49.2234C76.0059 49.27 76.1483 49.3338 76.2972 49.36C76.7373 49.4375 77.0003 49.1603 76.8784 48.7355C76.8037 48.4752 76.6898 48.2255 76.5843 47.9749C76.3134 47.332 76.0248 46.6962 75.7663 46.0484C75.3856 45.0944 75.1525 44.1009 75.0369 43.0807C75.0128 42.8679 74.9859 42.6527 75.0203 42.4019C75.208 42.4852 75.3298 42.6019 75.4627 42.6995C75.8745 43.0021 76.2777 43.3184 76.7373 43.5477C76.9191 43.6385 77.1076 43.727 77.3031 43.7774C77.6944 43.8784 77.9794 43.5902 77.8873 43.1935C77.8531 43.0463 77.7851 42.9055 77.7208 42.7672C77.4409 42.1652 77.1603 41.5639 76.9425 40.9354C76.2301 38.8792 75.8518 36.7528 75.6352 34.5959C75.4577 32.828 75.4962 31.0528 75.5589 29.2811C75.6102 27.8336 75.7291 26.3887 75.8035 24.9418C75.9182 22.7101 75.9346 20.4775 75.8308 18.2446C75.8102 17.8008 75.7382 17.3642 75.6638 16.9275C75.52 16.0838 75.2054 15.289 74.9268 14.488C74.3361 12.7892 73.313 11.3443 72.1502 9.99408C71.321 9.03131 70.3284 8.24999 69.2923 7.52763C68.1426 6.72595 66.9073 6.07825 65.5804 5.61738C65.2275 5.49484 64.8586 5.4192 64.5026 5.30491C62.2962 4.59666 60.0843 4.58957 57.8601 5.22288C55.655 5.8508 53.6747 6.92832 51.8098 8.23433C51.1121 8.72286 50.4372 9.24399 49.7536 9.75246C48.6872 10.5457 47.6184 11.3359 46.5576 12.1365C45.3441 13.0524 44.067 13.8599 42.6832 14.4971C41.4622 15.0593 40.2409 15.6212 39.0742 16.2943C37.7946 17.0327 36.6595 17.9503 35.6357 19.0104C35.5653 19.0834 35.4908 19.1601 35.4466 19.2492C35.3668 19.4101 35.3586 19.5824 35.4797 19.7301C35.5867 19.8608 35.7324 19.8927 35.8962 19.8506C36.0272 19.817 36.1596 19.7884 36.2914 19.7576C36.3945 19.7077 36.5033 19.7286 36.6125 19.7321C36.6283 19.74 36.6508 19.6989 36.6602 19.7388C36.6129 19.7616 36.5758 19.7968 36.548 19.8422C35.1824 20.589 33.935 21.4986 32.7934 22.556C31.7883 23.4869 30.9101 24.5205 30.2115 25.7023C29.7239 26.5271 29.3615 27.4048 29.1141 28.3293C29.0662 28.5082 29.027 28.698 29.0338 28.8809C29.0474 29.2486 29.386 29.4118 29.6877 29.2066C29.799 29.1309 29.8939 29.03 29.9922 28.9364C30.1767 28.7609 30.3588 28.5828 30.5954 28.4757C30.6241 28.4757 30.6428 28.4779 30.6435 28.4833C30.6478 28.5197 30.6338 28.5481 30.6028 28.568C29.809 29.4615 29.1615 30.452 28.6194 31.5163C27.6628 33.3947 27.072 35.3851 26.7655 37.465C26.7533 37.5481 26.7392 37.6349 26.7502 37.7168C26.7713 37.8738 26.8366 38.0122 26.9962 38.0766C27.1463 38.1372 27.3159 38.0837 27.4475 37.9325C27.5475 37.8176 27.6391 37.6956 27.7344 37.5767C27.9771 37.5309 27.8833 37.6723 27.848 37.7811C27.8338 37.8649 27.8266 37.9507 27.8042 38.0322C27.4031 39.4924 27.029 40.9609 26.5907 42.4099C25.8954 44.7083 25.131 46.9827 23.899 49.0668C23.6735 49.4484 23.5073 49.8602 23.376 50.2841C23.3308 50.4298 23.2569 50.5859 23.2747 50.7274C23.302 50.944 23.207 51.0733 23.0807 51.2192C22.1215 52.327 21.1589 53.4321 20.2148 54.5529C19.0841 55.8951 17.9735 57.2542 16.8486 58.6015C16.3681 59.1769 15.8702 59.7378 15.3865 60.3107C14.812 60.9911 14.3278 61.7288 13.9877 62.5563C13.6047 63.4881 13.4385 64.4492 13.5819 65.4547C13.6396 65.8592 13.6981 66.2637 13.7441 66.6695C13.8183 67.3237 13.6556 67.9183 13.2736 68.4549C13.0754 68.7333 12.8557 68.9925 12.6177 69.2375C12.046 69.8259 11.4195 70.3488 10.7561 70.8309C10.2327 71.2113 9.71481 71.6002 9.20832 72.0028C8.36641 72.672 7.83768 73.5428 7.55616 74.58C7.25929 75.6736 7.13234 76.7866 7.12596 77.9144C7.12132 78.7326 7.17619 79.5466 7.33433 80.3542C7.59729 81.6972 8.04952 82.9809 8.54912 84.2469C9.22403 85.9572 10.0082 87.6199 10.8391 89.2599C11.0159 89.6089 11.2075 89.9511 11.4087 90.2865C11.8532 91.0274 12.4111 91.6615 13.1683 92.1015C13.2858 92.1697 13.3963 92.2498 13.5101 92.3244C13.6372 92.4945 13.8218 92.4268 13.982 92.4271C15.7665 92.4313 17.551 92.4297 19.3354 92.4276C19.5391 92.4274 19.7429 92.4145 19.9466 92.4074C19.979 92.4084 20.0116 92.412 20.0435 92.409C20.0572 92.4078 20.0696 92.393 20.0825 92.3843C20.0687 92.3646 20.0583 92.3331 20.0403 92.328C20.0107 92.3195 19.9763 92.3281 19.9439 92.3295L19.9439 92.3295L19.6592 92.3051C19.4621 92.1879 19.2478 92.2102 19.0341 92.2285L18.8291 92.2327L18.524 92.2303H18.5239C18.1813 92.1955 17.8385 92.1961 17.4954 92.2206H17.4953C16.7518 92.1424 16.0073 92.1882 15.2631 92.2036L15.2577 92.2075L15.2576 92.2075C15.243 92.1979 15.2274 92.1899 15.2111 92.1837C15.035 92.1024 14.8391 92.1183 14.6532 92.0845C14.2045 91.8777 13.794 91.6075 13.3814 91.3381C12.9896 91.0823 12.6593 90.7675 12.3909 90.3893C12.2038 90.1258 12.0185 89.8577 11.8663 89.5735C11.537 88.9583 11.2162 88.3377 10.9155 87.7082C10.0275 85.8493 9.19157 83.9705 8.54335 82.009C7.79102 79.7323 7.68602 77.4385 8.1965 75.105C8.4308 74.0339 8.93763 73.1355 9.82221 72.4672C9.98537 72.3439 10.1427 72.2129 10.3071 72.0915C10.6635 71.8282 11.0226 71.5688 11.3806 71.3079C12.0297 70.8348 12.6317 70.3078 13.1907 69.7313C13.524 69.3876 13.8263 69.0194 14.0692 68.6055C14.4633 67.934 14.5999 67.2112 14.4892 66.442C14.4553 66.206 14.4047 65.9724 14.3708 65.7364C14.2124 64.6318 14.3131 63.5674 14.8136 62.5488C15.178 61.8071 15.6561 61.1506 16.1891 60.5269C16.9643 59.6199 17.7458 58.718 18.5062 57.7987C19.9836 56.0123 21.4489 54.2159 22.9772 52.4724C24.5964 50.6252 26.2746 48.8367 28.1267 47.2159C29.0704 46.3901 30.1027 45.7109 31.2293 45.1683C31.6752 44.9536 32.1361 44.7771 32.6159 44.657C33.6645 44.3946 34.7342 44.3257 35.8107 44.3313C35.8537 44.3315 35.8965 44.3619 35.9509 44.3826C35.9315 44.4926 35.9192 44.5937 35.8954 44.692C35.6698 45.6207 35.8219 46.4862 36.3473 47.2802C36.5443 47.5779 36.7716 47.856 36.9912 48.1382C37.2633 48.4879 37.5464 48.829 37.8163 49.1803C38.1285 49.5868 38.3913 50.0253 38.6045 50.4913C38.8278 50.9793 38.9715 51.4909 38.8662 52.0285C38.748 52.6316 38.53 53.2057 38.269 53.7626C38.2117 53.8847 38.1323 53.9379 37.9905 53.9232C37.4507 53.8674 37.0364 54.1022 36.6927 54.4979C36.4355 54.794 36.2083 55.1148 36.0142 55.4557C35.8119 55.8107 35.6186 56.1708 35.4203 56.528C35.1229 57.0639 34.8457 57.6124 34.522 58.1319C33.9184 59.1004 33.3043 60.0631 32.6645 61.0079C31.507 62.7172 30.252 64.3519 28.8428 65.8649C28.4363 66.3013 28.0433 66.7508 27.657 67.2053C27.4812 67.412 27.3293 67.6403 27.1811 67.8684C27.0887 68.0105 27.0253 68.17 27.0037 68.3434C26.9594 68.6988 27.0912 68.9412 27.4237 69.071C27.5656 69.1263 27.7185 69.1536 27.8667 69.1922C28.0971 69.2522 28.3284 69.3086 28.5582 69.3706C29.8115 69.7088 30.9172 70.3449 31.9389 71.1198C32.6856 71.6862 33.4132 72.2708 34.2869 72.5934C34.292 72.6633 34.3038 72.6987 34.2955 72.7286C33.8432 74.3653 33.1586 75.8978 32.2333 77.3226C31.9736 77.7225 31.7167 78.1244 31.4661 78.5301C31.3048 78.7911 31.1729 79.0676 31.0742 79.3595C30.9405 79.7551 30.89 80.1522 31.0022 80.5643C31.061 80.7801 31.1424 80.986 31.2505 81.1779C31.4305 81.4973 31.4546 81.8214 31.3324 82.1617C31.2521 82.3859 31.1846 82.6157 31.0882 82.8327C30.8011 83.4783 30.6457 84.1531 30.587 84.8554C30.5183 85.6784 30.2921 86.4608 29.9425 87.208C29.7045 87.7168 29.4679 88.2263 29.2249 88.7326C28.7902 89.6378 28.1808 90.4075 27.3951 91.0318C27.1832 91.2002 26.9518 91.3534 26.7088 91.4714C25.9393 91.8451 25.1274 92.0938 24.2829 92.2346C24.1502 92.1939 24.0186 92.2265 23.8872 92.2422C23.6397 92.2718 23.3925 92.3046 23.1452 92.3361C23.0641 92.3198 22.983 92.304 22.9117 92.3672C22.9815 92.4337 23.0626 92.4168 23.1435 92.4008C23.1422 92.3792 23.1427 92.3576 23.1452 92.3361L23.1435 92.4008C24.2255 92.4588 25.3083 92.4198 26.3907 92.4293C26.4755 92.43 26.5602 92.4243 26.6128 92.3408C27.2778 92.0914 27.8448 91.6905 28.3562 91.2057C28.7415 90.8405 29.0528 90.4126 29.3727 89.9919C29.4187 89.9314 29.4492 89.8355 29.5702 89.8824C29.5873 90.5287 29.6933 91.1676 29.8003 91.8059C29.902 92.4127 29.93 92.4296 30.5526 92.3766C30.5831 92.3741 30.6114 92.3465 30.6602 92.3199C30.6324 92.146 30.6074 91.9629 30.5734 91.7814C30.4066 90.8932 30.2494 90.0042 30.2811 89.0943C30.2859 88.9591 30.3027 88.8172 30.2058 88.7024C30.1251 88.6068 30.1564 88.5128 30.2002 88.4192C30.3444 88.1108 30.4929 87.8045 30.6362 87.4957C31.0123 86.6858 31.2584 85.8418 31.3323 84.9475C31.3829 84.334 31.5092 83.7346 31.7633 83.1682C31.812 83.0595 31.854 82.9478 31.9002 82.838C32.2053 82.1128 32.2812 81.4017 31.8526 80.6831C31.6418 80.3297 31.6514 79.9301 31.8119 79.5481C31.904 79.3291 32.0039 79.1111 32.1233 78.9062C32.3119 78.5826 32.5131 78.2659 32.7207 77.9541C33.6325 76.585 34.3518 75.1243 34.8346 73.5495C34.8744 73.4197 34.918 73.2889 34.9793 73.1684C35.3104 72.5172 35.6284 71.8582 35.9875 71.2225C36.4564 70.3925 36.9547 69.579 37.4489 68.7637C37.8463 68.1082 38.2584 67.4618 38.6604 66.8092C39.706 65.1119 40.6557 63.3597 41.6056 61.6085C42.2307 60.4561 42.7811 59.2658 43.2249 58.0294C43.3171 57.7724 43.4186 57.5164 43.3916 57.2365C43.3758 57.0726 43.4362 56.9394 43.5151 56.8048C43.8768 56.1878 44.2348 55.5686 44.5962 54.9513C44.6432 54.8711 44.6656 54.7603 44.8167 54.7577C44.9381 54.99 45.0768 55.2251 45.1872 55.4728C45.5777 56.3489 46.0901 57.1522 46.6449 57.9293C46.9621 58.3736 47.3071 58.7952 47.7545 59.1225C48.4706 59.6465 49.2422 59.7738 50.07 59.444C50.8492 59.1335 51.5771 58.7289 52.2222 58.1864C53.0849 57.4607 53.8863 56.6724 54.6235 55.8193C55.0582 55.3163 55.4894 54.8102 55.9251 54.3081C55.9869 54.2369 56.0298 54.1304 56.1721 54.1419C56.2412 54.2677 56.3174 54.3999 56.3875 54.5352C57.3436 56.3792 58.2965 58.225 59.2548 60.0679C61.3695 64.1349 63.5789 68.1468 66.1785 71.9306C66.3834 72.2288 66.5536 72.5327 66.6036 72.8994C66.6238 73.0482 66.6948 73.1906 66.7468 73.3344C66.9553 73.9112 67.2032 74.4714 67.4696 75.0233C67.5746 75.2406 67.6531 75.4562 67.6342 75.7057C67.6173 75.928 67.6758 76.1395 67.7609 76.35C67.9074 76.7123 68.0402 77.0815 68.1552 77.455C68.3109 77.9605 68.5005 78.4508 68.717 78.9332C68.9258 79.3983 69.1469 79.8582 69.293 80.351C69.455 80.8976 69.4365 81.4215 69.207 81.9452C69.0637 82.2722 68.9389 82.608 68.8179 82.9442C68.4657 83.9238 68.4237 84.9079 68.7918 85.8952C68.8928 86.1662 68.9781 86.4437 69.0899 86.7102C69.2749 87.1516 69.5088 87.5645 69.8199 87.9341C70.0153 88.1661 70.321 88.3253 70.3952 88.6345C70.4661 88.9296 70.4648 89.2424 70.4918 89.5478C70.5038 89.6835 70.5083 89.82 70.5144 89.9562C70.558 90.9325 70.4816 91.8957 70.2048 92.8379C70.1809 92.9194 70.1684 93.0039 70.1678 93.0889C70.1672 93.2449 70.2835 93.3866 70.4331 93.4242C70.58 93.4612 70.7092 93.4165 70.7978 93.3005C70.858 93.2217 70.8979 93.1235 70.9305 93.0283C71.3111 91.916 71.5028 90.7853 71.2525 89.613C71.2418 89.5632 71.2292 89.511 71.2337 89.4614C71.2388 89.406 71.1897 89.3272 71.28 89.3C71.3031 89.3036 71.3223 89.3016 71.3356 89.3095C71.4088 89.3529 71.4812 89.3977 71.5527 89.4439C73.4577 90.6757 75.5209 91.5378 77.7221 92.0732C78.9603 92.3744 80.2067 92.4811 81.4695 92.2181C82.321 92.0407 83.1652 91.8425 83.9532 91.4618C85.2485 90.8359 86.4448 90.0662 87.4806 89.0557C89.3358 87.2456 90.51 85.0898 90.8152 82.4978C90.9335 81.4924 90.8793 80.4891 90.6088 79.5063ZM72.8775 31.1299L72.9156 31.055L72.9737 31.1146L72.9741 31.1169L72.9742 31.117C73.0882 31.1581 73.0643 31.248 73.0511 31.3341L73.0811 31.7026L73.0812 31.7029C73.1486 31.8454 73.1688 31.9953 73.1514 32.1512L73.1566 32.2534L73.1851 32.6035L73.1853 32.6039C73.2681 32.7503 73.2777 32.9088 73.2607 33.0715C73.3151 33.3902 73.406 33.7041 73.3851 34.0326V34.0328C73.4651 34.1447 73.4784 34.2709 73.4637 34.4031C73.5187 34.6315 73.5934 34.8564 73.5878 35.0956L73.5879 35.0958C73.6509 35.1976 73.6881 35.3055 73.6652 35.4275L73.688 35.6112C73.7952 36.0177 73.8992 36.425 74.0103 36.8303C74.2199 37.5949 74.4579 38.3505 74.7321 39.0947C74.7667 39.1886 74.7904 39.2865 74.8191 39.3826C74.8655 39.4146 74.8912 39.4565 74.8825 39.5149L74.9138 39.6092C75.0451 39.8388 75.153 40.078 75.2134 40.3368C75.3112 40.493 75.3842 40.6596 75.4236 40.8402C75.5748 41.1437 75.7265 41.447 75.8765 41.7511C75.9023 41.8034 75.884 41.849 75.8293 41.8661C75.8014 41.8749 75.7559 41.8727 75.7372 41.8553C75.6883 41.8097 75.6411 41.7579 75.6087 41.7C75.4928 41.493 75.3774 41.2851 75.3208 41.0515C75.216 40.8987 75.1452 40.7312 75.1049 40.5505C74.9693 40.3235 74.8595 40.0859 74.8062 39.825C74.7831 39.8081 74.7776 39.7867 74.7898 39.7608C74.7411 39.7272 74.7156 39.6824 74.7233 39.6218C74.6953 39.5967 74.6863 39.566 74.6964 39.5297C74.6382 39.4694 74.5977 39.402 74.6079 39.3137C74.2474 38.5108 74.0197 37.6636 73.786 36.8191C73.7055 36.5281 73.6542 36.229 73.5896 35.9336L73.5567 35.769L73.5566 35.7688C73.4873 35.7008 73.4716 35.6177 73.4891 35.5255L73.4618 35.3468C73.3979 35.2455 73.3636 35.1373 73.3856 35.0162L73.357 34.7674L73.3569 34.7672C73.2769 34.657 73.2631 34.5324 73.2779 34.4016L73.2579 34.2323C73.2531 34.2235 73.2488 34.2145 73.2451 34.2052C73.1831 34.0737 73.1604 33.935 73.1774 33.789C73.1065 33.4656 73.0351 33.1422 73.0494 32.8076L73.0492 32.807C72.9808 32.6638 72.9589 32.5134 72.9818 32.3564L72.9457 31.8894L72.9456 31.8892C72.8784 31.7442 72.8584 31.5922 72.8783 31.4343C72.849 31.333 72.8283 31.2316 72.8775 31.1299ZM73.6768 49.0415L73.6722 49.0361C73.6241 49.018 73.5939 48.9865 73.594 48.9322L73.4618 48.7467C73.4085 48.7276 73.3761 48.6915 73.3699 48.6341C72.8911 48.1597 72.4099 47.6877 71.9346 47.2097C71.746 47.02 71.5262 46.8552 71.4103 46.6019C71.3312 46.5541 71.3096 46.475 71.3021 46.3918C71.2949 46.3117 71.2787 46.1957 71.3656 46.1782C71.5017 46.1507 71.5023 46.2843 71.5222 46.3775C71.5291 46.4094 71.5281 46.443 71.5307 46.4759C71.8277 46.8442 72.1873 47.1499 72.5269 47.4758C72.9021 47.8357 73.2972 48.1778 73.5856 48.6184C73.6368 48.6348 73.6683 48.6668 73.6689 48.7232L73.6797 48.7397C73.7115 48.7587 73.7349 48.7889 73.7453 48.8244L73.7951 48.9104C74.1953 49.4199 74.4499 50.0055 74.6787 50.6041C74.6957 50.6488 74.6952 50.7036 74.6899 50.7523C74.6869 50.7804 74.6627 50.8207 74.6393 50.8283C74.6138 50.8365 74.5733 50.8196 74.5483 50.8014C74.523 50.783 74.5009 50.7521 74.4906 50.7222C74.2863 50.1295 73.9677 49.5923 73.6768 49.0415ZM73.0802 42.8332C73.1522 42.9826 73.1642 43.1415 73.1524 43.3039C73.1791 43.5109 73.2887 43.7022 73.2681 43.918C73.329 44.0431 73.3831 44.1701 73.3799 44.3133L74.2124 46.3244C74.3175 46.5133 74.4248 46.7008 74.5261 46.8916C74.5549 46.946 74.6022 47.0185 74.5209 47.0655C74.4197 47.1239 74.3677 47.0383 74.326 46.9706C74.2299 46.8148 74.1285 46.6602 74.092 46.4757C73.7623 45.8514 73.4742 45.2098 73.2828 44.5281C73.2195 44.4031 73.1559 44.2782 73.1624 44.1321C73.0632 44.0199 73.0524 43.8826 73.0515 43.7425C72.989 43.6394 72.9535 43.53 72.9745 43.4077C72.9406 43.2925 72.9216 43.1763 72.9487 43.0566L72.9487 43.0562V43.0564C72.8735 42.7989 72.8522 42.542 72.961 42.2872L72.9678 42.2785C72.9994 42.2527 73.0296 42.2542 73.0584 42.2832C73.1356 42.4637 73.109 42.6482 73.0801 42.8329L73.0802 42.8332ZM67.1445 8.62471C67.1691 8.49949 67.237 8.51187 67.3016 8.58606C67.3272 8.61552 67.3178 8.67536 67.3244 8.72136L67.5275 9.3369C67.5873 9.42263 67.65 9.50695 67.6587 9.6166C67.8234 9.80958 67.9408 10.032 68.0558 10.256C68.0847 10.2835 68.1085 10.3159 68.1263 10.3517C68.1591 10.3654 68.1734 10.3899 68.169 10.4253C68.3621 10.6177 68.5255 10.8335 68.6747 11.0608C69.007 11.3799 69.3247 11.7122 69.6008 12.0823C69.8092 12.2569 69.9751 12.4655 70.0999 12.7071C70.4574 13.1184 70.7121 13.5964 70.9753 14.0679C71.4807 14.9731 71.8523 15.9331 72.1241 16.9323C72.146 17.0131 72.1489 17.099 72.1606 17.1825C72.2237 17.249 72.2482 17.3266 72.2284 17.417L72.2576 17.6011C72.3246 17.7006 72.3583 17.8078 72.3349 17.9286L72.3621 18.1791V18.1793V18.1792C72.5021 18.6475 72.5669 19.1268 72.57 19.615C72.57 19.6152 72.5701 19.6154 72.5701 19.6157C72.6478 19.7966 72.6611 19.9855 72.6385 20.1787C72.6736 20.4016 72.6896 20.6255 72.6696 20.851L72.6699 20.8528C72.7523 21.17 72.7598 21.4929 72.7417 21.8177C72.7704 22.2068 72.8087 22.5958 72.7645 22.9863L72.7645 22.9869V22.9862C72.8623 23.5587 72.8671 24.1344 72.8233 24.7115C72.821 24.741 72.7904 24.7684 72.7727 24.7968L72.7733 24.7969L72.7733 24.797C72.7575 24.8225 72.7449 24.8661 72.7251 24.8697C72.6643 24.8806 72.6493 24.8362 72.6525 24.7838C72.6089 24.4621 72.6051 24.1403 72.6487 23.8183L72.6486 23.8176V23.8182L72.6482 23.8157C72.6248 23.7103 72.6123 23.6043 72.606 23.498C72.5607 23.0758 72.5588 22.6514 72.5666 22.2265L72.5654 22.0195C72.5235 21.8011 72.518 21.5813 72.541 21.3605L72.5409 21.3601V21.3603C72.5317 21.3315 72.5244 21.3021 72.519 21.2723C72.4593 21.0142 72.4491 20.7517 72.4656 20.4868L72.4346 19.9206L72.4339 19.9187C72.3623 19.7391 72.3428 19.5525 72.3617 19.361C72.3332 19.0865 72.2427 18.8199 72.2568 18.54C72.2014 18.311 72.1305 18.0848 72.1333 17.8455C72.0673 17.7459 72.0334 17.6387 72.0544 17.5181C71.8705 16.8454 71.6925 16.1714 71.4273 15.5237C71.0974 14.7177 70.6953 13.9508 70.2187 13.2223C70.1354 13.095 70.0595 12.9628 69.9802 12.8328C69.7848 12.646 69.6289 12.4275 69.4757 12.2067C69.1422 11.8895 68.8268 11.5557 68.5491 11.1877C68.3404 11.0157 68.1813 10.8038 68.0512 10.5686L68.0447 10.5593C68.0177 10.5289 67.993 10.4964 67.9708 10.4623C67.7918 10.2435 67.6314 10.0137 67.5476 9.73919C67.4795 9.65899 67.4237 9.57298 67.4176 9.46357C67.2967 9.34679 67.2504 9.19559 67.2212 9.03661C67.168 8.97485 67.1261 8.90928 67.1474 8.82201C67.1466 8.7563 67.1455 8.6905 67.1445 8.62471ZM64.4611 48.2185C64.4716 48.2768 64.5008 48.3398 64.4877 48.3922C64.4736 48.4488 64.4197 48.4929 64.3712 48.404C64.2622 48.3308 64.2563 48.2247 64.2774 48.11C64.2363 47.9755 64.2414 47.8411 64.2784 47.7069C64.2327 47.4811 64.321 47.2707 64.3762 47.0638C64.5364 46.4627 64.7271 45.8704 65.0816 45.3475C65.1395 45.1766 65.2319 45.0294 65.3759 44.9175C65.7311 44.3903 66.1926 43.97 66.7037 43.5998C66.7221 43.5453 66.7583 43.5125 66.8168 43.507L66.8229 43.5023C66.8365 43.4518 66.8664 43.4203 66.9213 43.418L66.9406 43.404C66.9605 43.3717 66.9904 43.3469 67.0257 43.3334C67.0363 43.2999 67.059 43.2846 67.0939 43.2874C67.1466 43.1917 67.2286 43.1311 67.3288 43.0925C67.4791 42.93 67.6415 42.7824 67.8389 42.6779C67.8542 42.6262 67.8866 42.5925 67.9404 42.5814C68.2431 42.1531 68.4957 41.7057 68.5908 41.1769C68.6606 40.7895 68.6614 40.407 68.6162 40.0201C68.6007 39.887 68.5904 39.7533 68.5777 39.6198L68.3431 38.5198C68.1644 38.0953 68.1301 37.6477 68.1373 37.1948C68.1379 37.1557 68.1747 37.0899 68.2043 37.0839C68.2803 37.0686 68.3203 37.1254 68.3343 37.1977C68.3375 37.2141 68.3411 37.2306 68.3429 37.2472C68.3806 37.5955 68.4181 37.9438 68.4556 38.2921C68.5567 38.6099 68.6728 38.9244 68.6798 39.264L68.6798 39.2641C68.76 39.3712 68.7722 39.493 68.757 39.6209C68.9328 40.3316 68.9162 41.0364 68.6638 41.7255C68.5303 42.0902 68.3751 42.4494 68.0479 42.6948C68.0383 42.7519 68.0006 42.7817 67.9484 42.7973C67.8286 42.9845 67.6537 43.1077 67.4643 43.2139H67.4642L67.4642 43.214L67.4515 43.2177C67.4422 43.2759 67.406 43.3045 67.3493 43.3105C67.3272 43.3587 67.2963 43.3958 67.238 43.3979L67.2128 43.4167C67.2053 43.4312 67.195 43.4441 67.1824 43.4546C67.1699 43.4651 67.1554 43.473 67.1399 43.4779C66.9357 43.6541 66.7335 43.8327 66.5268 44.0059C66.1507 44.3211 65.8252 44.6856 65.4988 45.0493C65.4208 45.2089 65.3355 45.3635 65.2045 45.4875C65.0762 45.7834 64.935 46.0746 64.8222 46.3764C64.6005 46.9692 64.4356 47.5759 64.4611 48.2185ZM66.1528 48.0105C66.2261 47.9418 66.2989 47.8608 66.388 47.8225C67.0233 47.549 67.6782 47.4153 68.3682 47.5805C68.5945 47.5859 68.8226 47.5807 69.0287 47.6986C69.193 47.6866 69.3559 47.6827 69.502 47.7785L69.5019 47.7787L69.5023 47.7786C69.7188 47.8106 69.9518 47.7604 70.1461 47.906L70.146 47.9061C70.2168 47.9618 70.2052 48.0199 70.1235 48.0273C69.9461 48.0432 69.7687 48.0255 69.5986 47.9643L69.3121 47.908C69.0179 47.9412 68.742 47.8309 68.4586 47.7885C67.68 47.6717 66.9373 47.7067 66.2568 48.1554C66.2374 48.1682 66.1883 48.1562 66.1654 48.1392C66.1197 48.1053 66.1108 48.0498 66.1528 48.0105ZM70.1144 31.2226C70.1144 31.2226 70.1144 31.2226 70.1144 31.2226C70.1052 31.1629 70.0959 31.1033 70.0865 31.0436C70.0036 30.9485 69.9892 30.8366 70.0069 30.7169L69.9769 30.4638L69.9768 30.4635C69.8903 30.3195 69.8839 30.1631 69.9057 30.0023C69.8986 29.8698 69.8876 29.7373 69.886 29.6047C69.8853 29.5407 69.8986 29.4759 69.9652 29.4387C70.0152 29.4107 70.0787 29.5034 70.0839 29.6162C70.0953 29.8657 70.1055 30.1152 70.1162 30.3647L70.1163 30.3648C70.1879 30.4744 70.2111 30.5935 70.185 30.7221L70.2116 30.9058C70.3047 31.2105 70.3999 31.5144 70.4887 31.8203C70.5037 31.8721 70.4674 31.9184 70.4091 31.9214C70.3807 31.9229 70.3383 31.9087 70.3238 31.8871C70.1893 31.6867 70.1175 31.4651 70.1144 31.2226ZM66.0493 14.0527C66.0742 14.0436 66.1204 14.0583 66.1408 14.079C66.1752 14.1137 66.1998 14.1595 66.2227 14.2037C66.4645 14.6709 66.6995 15.1417 66.9473 15.6056C67.6313 16.8861 68.1083 18.2428 68.451 19.6498C68.4669 19.715 68.4654 19.7844 68.472 19.8518C68.5402 19.9509 68.5744 20.0582 68.552 20.1794L68.5775 20.3568C68.6466 20.4583 68.6749 20.569 68.6522 20.6911L68.6805 20.9445V20.9447C68.7885 21.1338 68.7866 21.3412 68.7814 21.5493L68.7815 21.5496C68.8594 21.6613 68.874 21.7861 68.8572 21.9175L68.8843 22.1824L68.8847 22.1833C68.9545 22.3261 68.9798 22.4763 68.9584 22.6342C68.9918 22.7505 69.0077 22.8682 68.9851 22.9888L68.9852 22.989C69.067 23.17 69.0824 23.3602 69.0624 23.5552L69.0653 23.764C69.1106 24.1029 69.1222 24.4416 69.0624 24.7802C69.0983 24.933 69.031 25.0593 68.9585 25.1843C68.9019 25.2958 68.832 25.2734 68.7885 25.1846C68.7493 25.1045 68.7957 25.0265 68.8513 24.9614C68.9199 24.4066 68.8577 23.8514 68.8556 23.2964L68.8552 23.2952C68.7913 23.1502 68.7642 22.9994 68.7873 22.8412L68.755 22.471C68.7504 22.4618 68.7464 22.4524 68.7429 22.4427C68.6859 22.3087 68.6607 22.1693 68.6794 22.0225C68.6429 21.7827 68.552 21.551 68.5726 21.3027C68.5073 21.0485 68.4391 20.7947 68.4389 20.5292C68.3744 20.4574 68.3579 20.3735 68.3762 20.2808C68.0956 19.037 67.7512 17.8121 67.213 16.6526C66.906 15.9911 66.5565 15.3495 66.2332 14.6954C66.1439 14.5146 66.0283 14.3416 66.0059 14.1337C66.003 14.1071 66.0271 14.0609 66.0493 14.0527ZM65.296 18.5979C65.3371 18.5389 65.4038 18.5166 65.4729 18.5421C65.616 18.5949 65.6573 18.7211 65.6853 18.8544C66.0369 19.6631 66.3148 20.4937 66.434 21.3716C66.4942 21.4423 66.514 21.5234 66.496 21.6142H66.4961C66.4988 21.6475 66.5018 21.6809 66.5046 21.7142C66.5367 21.7935 66.5549 21.8741 66.5271 21.9589L66.5271 21.9591C66.6067 22.0701 66.6197 22.1949 66.6023 22.3259C66.6392 22.4419 66.6557 22.5594 66.6292 22.6802L66.6293 22.6805V22.6804C66.7131 22.8614 66.7246 23.0523 66.7049 23.2473C66.7449 23.5345 66.7603 23.8225 66.735 24.1119L66.7351 24.1125V24.1121C66.8157 24.5588 66.812 25.0056 66.7348 25.4525C66.7626 25.8791 66.7371 26.3044 66.7073 26.7297C66.7084 26.9975 66.7107 27.2653 66.7105 27.533C66.7099 28.2198 66.7083 28.9066 66.707 29.5933L66.7096 29.6944L66.7356 30.0638C66.7365 30.0658 66.7372 30.0678 66.7381 30.0699C66.8004 30.2111 66.8287 30.358 66.809 30.5128L66.8354 30.7701L66.8355 30.7703C66.904 30.88 66.9335 30.9987 66.9174 31.1279C67.0363 31.5536 67.1507 31.9804 67.2751 32.4045C67.4618 33.0412 67.7098 33.6555 67.9678 34.2659C68.0892 34.3968 68.1961 34.5368 68.2464 34.7121C68.2691 34.794 68.2431 34.8275 68.1574 34.8018C67.9691 34.7364 67.907 34.5713 67.8447 34.4063C67.6939 34.2174 67.6181 33.9904 67.5273 33.7717C67.2402 33.0801 67.028 32.3639 66.8342 31.6419C66.8125 31.5612 66.8145 31.4741 66.8055 31.39L66.8054 31.3898C66.7326 31.3159 66.7194 31.2252 66.7315 31.1272L66.7054 30.9656L66.7054 30.9655C66.636 30.8587 66.6109 30.7425 66.6315 30.6166L66.6041 30.353C66.6041 30.3529 66.6041 30.3529 66.604 30.3528C66.5334 30.2089 66.5124 30.0572 66.535 29.899L66.5304 29.7982C66.4938 29.5109 66.459 29.2237 66.5109 28.9345C66.4332 28.6231 66.4343 28.3117 66.5108 28.0004C66.4545 27.4046 66.4996 26.81 66.5309 26.2153L66.5315 26.1148C66.5285 26.0146 66.5174 25.914 66.5237 25.8145C66.5711 25.0618 66.5312 24.309 66.5303 23.5562L66.5044 22.9915C66.4986 22.9781 66.4936 22.9643 66.4894 22.9502C66.4298 22.7827 66.4108 22.6094 66.4265 22.4312L66.4022 22.1667C66.4021 22.1666 66.4021 22.1665 66.4021 22.1664C66.3438 22.0577 66.3143 21.943 66.3314 21.8189L66.3199 21.7138L66.2921 21.5465C66.2329 21.4754 66.2101 21.3951 66.2307 21.3039C66.0732 20.5397 65.8221 19.8023 65.5873 19.0603C65.4828 18.9609 65.4924 18.7688 65.3073 18.7295C65.2633 18.72 65.2675 18.6386 65.296 18.5979ZM64.8285 22.5587C64.9616 22.3219 65.0647 22.0682 65.1802 21.8217C65.2081 21.762 65.2143 21.6847 65.3182 21.6927C65.3917 21.7686 65.3514 21.8715 65.3449 21.9603C65.3165 22.351 65.2924 22.7432 65.2367 23.1304C65.159 23.6714 64.9907 24.1901 64.8063 24.7043C64.6109 25.249 64.4263 25.7962 64.3378 26.3733C64.2152 27.1722 64.2254 27.9705 64.311 28.7693C64.4219 29.8037 64.653 30.8188 64.8199 31.8443C64.8609 32.0965 64.9156 32.3467 64.9489 32.5998C65.0006 32.9936 64.9663 33.3798 64.8283 33.7566C64.3701 35.007 63.804 36.2062 63.1331 37.3564C62.2286 38.9071 61.0702 40.2327 59.6323 41.3116C58.8407 41.9055 58.0177 42.4498 57.1434 42.9157C56.4824 43.2679 55.8325 43.6413 55.1657 43.9818C54.42 44.3627 53.6383 44.6543 52.8086 44.794C52.2163 44.8937 51.6262 44.8988 51.0333 44.7574C50.3514 44.5947 49.6936 44.3657 49.0528 44.0891C48.1791 43.7119 47.5224 43.0776 47.0232 42.2795C46.4542 41.3695 45.8962 40.4526 45.3411 39.534C44.5836 38.2805 44.0839 36.9326 43.8618 35.4814C43.7923 35.0276 43.6921 34.5779 43.5901 34.1299C43.549 33.9492 43.4798 33.7713 43.399 33.6039C42.9841 32.745 42.9154 31.8342 43.0054 30.9064C43.083 30.1077 43.2449 29.3234 43.5256 28.568C43.8139 27.7924 44.2716 27.1151 44.7718 26.4659C45.1792 25.9373 45.6558 25.4733 46.1701 25.0484C46.4872 24.7863 46.8341 24.5681 47.2149 24.4142C47.9929 24.0997 48.795 23.8935 49.6405 23.8535C51.2081 23.7793 52.7711 23.6453 54.296 23.2507C56.8814 22.5817 59.3579 21.6505 61.5882 20.1447C61.6303 20.1167 61.6739 20.091 61.7187 20.0675C61.7328 20.06 61.752 20.0618 61.84 20.0489C61.6529 20.8121 61.4891 21.5237 61.3026 22.2291C61.0762 23.0848 60.8294 23.9351 60.5938 24.7884C60.4343 25.366 60.2106 25.916 59.9049 26.4321C59.8615 26.5052 59.8145 26.5782 59.7851 26.6572C59.7275 26.8123 59.746 26.9599 59.8668 27.0829C59.9964 27.215 60.151 27.2797 60.329 27.2015C60.4691 27.1398 60.6035 27.0659 60.7305 26.9804C62.4431 25.8281 63.8164 24.3596 64.8285 22.5587ZM43.1808 22.0257C43.2622 21.9252 43.3615 21.8495 43.4846 21.8067C43.5042 21.7559 43.5375 21.724 43.5952 21.7258C43.6493 21.6644 43.7075 21.6094 43.7939 21.5986C43.8128 21.5526 43.8429 21.5232 43.8965 21.5276C44.2755 21.2668 44.665 21.0259 45.1103 20.8918L45.1112 20.8911C45.2012 20.8076 45.3081 20.7716 45.4298 20.7764C45.5196 20.6771 45.6402 20.6787 45.7603 20.6789L45.7885 20.6839C45.8689 20.5918 45.9767 20.5862 46.0867 20.5919C46.146 20.5951 46.1524 20.6413 46.1551 20.6877C46.1412 20.7161 46.1323 20.7654 46.1128 20.77C45.4514 20.9262 44.8476 21.2239 44.245 21.5246C44.2177 21.5765 44.1769 21.6072 44.1163 21.6073L44.0946 21.6187C44.0785 21.6508 44.0526 21.6685 44.0169 21.6718L43.916 21.7279C43.8934 21.778 43.8575 21.8082 43.7999 21.8066L43.7801 21.835L43.7455 21.833H43.745L43.7454 21.833C43.7176 21.892 43.6725 21.9251 43.6057 21.9256L43.6023 21.9248C43.5716 21.9408 43.547 21.9646 43.5211 21.9869L43.6023 21.9248C43.5844 21.985 43.5427 22.0141 43.4813 22.0174C43.4394 22.0735 43.3943 22.1251 43.3186 22.1341C43.0091 22.4403 42.6576 22.7056 42.4112 23.0734C42.3862 23.1107 42.3266 23.1423 42.2912 23.0883C42.2677 23.0524 42.2553 22.9843 42.274 22.9505C42.3303 22.8484 42.3955 22.7483 42.4728 22.6613C42.6844 22.4232 42.9019 22.1897 43.1808 22.0258H43.181L43.1808 22.0257ZM62.2098 17.3453C62.4386 17.1471 62.6661 16.9473 62.8978 16.7526C62.93 16.7255 62.987 16.6917 63.0241 16.7563C63.0498 16.8008 63.0596 16.851 63.021 16.8951C62.8775 17.0592 62.7335 17.2231 62.5372 17.3283C62.5207 17.38 62.4879 17.4108 62.4318 17.4126L62.4155 17.424C62.3889 17.4526 62.358 17.477 62.324 17.4962C62.3131 17.5285 62.2909 17.5414 62.2574 17.5349C62.2315 17.5906 62.19 17.6241 62.1268 17.6266C62.1268 17.6266 61.9072 17.8203 61.8167 17.8249L61.8044 17.8316C61.7774 17.8602 61.7447 17.8828 61.7085 17.898L61.6203 17.941C61.594 17.9898 61.5558 18.019 61.4981 18.0169C61.4229 18.0732 61.3581 18.1506 61.2497 18.1406L61.2496 18.1407C61.2175 18.2011 61.1682 18.234 61.0985 18.2336L61.0868 18.2388C61.0361 18.2978 60.9793 18.3454 60.8944 18.3389L60.8861 18.3423C60.8354 18.4048 60.7755 18.4493 60.6895 18.4429L60.6835 18.4453C60.6342 18.5123 60.5711 18.5519 60.4848 18.5457L60.4792 18.5477C60.4298 18.6145 60.3664 18.6537 60.2803 18.6473L60.2737 18.6497C60.2234 18.7138 60.1614 18.7544 60.076 18.7476L60.0664 18.7511C60.0083 18.8148 59.9415 18.8595 59.8502 18.8524L59.8186 18.8566L59.8185 18.8566C59.7625 18.9517 59.6672 18.969 59.5697 18.9819C59.4488 19.0816 59.3125 19.1466 59.1559 19.1658C59.0898 19.2147 58.9956 19.1968 58.9352 19.2591L58.8961 19.2648C58.8957 19.2649 58.8955 19.265 58.8951 19.265L58.896 19.2649C58.8584 19.3228 58.8063 19.3531 58.7359 19.3485L58.6995 19.3741L58.6551 19.3721C58.5931 19.4416 58.5165 19.474 58.4231 19.4646L58.3836 19.4704C58.2488 19.5849 58.0859 19.6303 57.9166 19.66L57.9166 19.6599V19.66C57.0341 20.0166 56.1393 20.3334 55.1995 20.5059C54.9499 20.631 54.6843 20.6888 54.4063 20.6951L54.4063 20.695C54.4046 20.695 54.3864 20.6943 54.3864 20.6943L54.3861 20.6945C54.2787 20.7678 54.1619 20.8046 54.0307 20.7835L53.8206 20.8122L53.78 20.8228C53.4545 20.925 53.1248 21.0041 52.7806 21.0031C52.7799 21.0034 52.7447 21.0251 52.7447 21.0251C52.7447 21.0251 52.7035 21.0179 52.7032 21.0179L52.7027 21.0177L52.7029 21.0179C52.5277 21.117 52.3379 21.1238 52.1442 21.1067C51.9996 21.2314 51.8245 21.2135 51.6529 21.2122L51.6322 21.2087C51.4967 21.324 51.3348 21.3213 51.1714 21.3114L51.1704 21.3106C51.0794 21.391 50.9734 21.4154 50.8553 21.3949L50.6617 21.4322C50.3488 21.5652 50.0244 21.6594 49.6901 21.7208C49.6554 21.7876 49.5981 21.8116 49.526 21.8076L49.4947 21.8316L49.4554 21.828L48.4231 22.3618C48.4103 22.4159 48.3703 22.4348 48.3205 22.4411L47.8868 22.9162C47.7106 22.9288 47.7887 22.8201 47.8035 22.7416C47.8573 22.5322 48.0125 22.416 48.1903 22.3205C48.2329 22.2532 48.2914 22.2101 48.3726 22.2026L48.3829 22.1979C48.3993 22.1402 48.4419 22.1198 48.4972 22.1176C48.7128 21.9408 48.9587 21.8213 49.222 21.7348L49.3229 21.7005C49.3487 21.6829 49.3761 21.6677 49.4048 21.6551C49.7411 21.4931 50.0892 21.3682 50.4614 21.3184C50.5164 21.3074 50.5715 21.2963 50.6266 21.2852H50.6266C50.8527 21.1621 51.1054 21.1363 51.3517 21.0893C51.6659 21.0293 51.9813 20.9754 52.2962 20.9189L52.5931 20.8815C52.822 20.7646 53.0775 20.778 53.3211 20.7329C53.4285 20.7383 53.5402 20.7737 53.6343 20.6874L53.6533 20.6688L53.6766 20.6817C53.6768 20.6817 53.6769 20.6816 53.677 20.6816H53.6769C53.7486 20.625 53.8285 20.597 53.921 20.6145L54.2252 20.5636C54.4591 20.4641 54.705 20.4166 54.9566 20.3931L57.7104 19.5545C57.8251 19.4399 57.9857 19.4387 58.1253 19.3855C58.2539 19.3266 58.3742 19.2446 58.5233 19.2427C58.5563 19.2281 58.588 19.211 58.6184 19.1915L59.5275 18.8163C59.9886 18.5552 60.467 18.3295 60.9523 18.1178C61.0501 18.0166 61.17 17.9546 61.3051 17.9197L61.3052 17.9196C61.3141 17.9061 61.3257 17.8946 61.3391 17.8856C61.3525 17.8767 61.3676 17.8705 61.3835 17.8675L61.4946 17.8122C61.5295 17.7837 61.6451 17.7244 61.675 17.7066C61.7016 17.6517 61.7452 17.6228 61.8062 17.6201L61.8125 17.6165C61.8401 17.5875 61.8732 17.5642 61.9098 17.5479C61.9259 17.5161 61.9517 17.5025 61.987 17.507L61.9871 17.5069C62.0141 17.4551 62.0536 17.421 62.1143 17.4169L62.1266 17.4096C62.1499 17.383 62.1782 17.3611 62.2098 17.3453ZM55.4076 15.3272C55.4433 15.2528 55.4671 15.1699 55.5477 15.1267C55.7421 14.8087 56.0398 14.6114 56.3556 14.4352C56.3825 14.3817 56.4234 14.3489 56.4853 14.347L56.4934 14.3421C56.5207 14.3134 56.553 14.2901 56.5889 14.2734C56.6059 14.2419 56.6323 14.2279 56.668 14.2314C56.6946 14.1766 56.7369 14.1459 56.7991 14.1453C56.9045 14.0422 57.0237 13.9621 57.1681 13.9241C57.1964 13.8707 57.2392 13.8401 57.3011 13.8398L57.3165 13.8325C57.5297 13.663 57.7601 13.5227 58.0148 13.4243L58.026 13.4177C58.0533 13.394 58.0833 13.3736 58.1153 13.3568L58.2143 13.3098C58.2364 13.2628 58.2693 13.2328 58.3251 13.2383C58.4517 13.1402 58.5819 13.0486 58.74 13.007C58.7683 12.9827 58.7994 12.9619 58.8326 12.945L58.9271 12.8995C58.9498 12.8503 58.9851 12.8211 59.0422 12.826C59.0571 12.7972 59.0803 12.7866 59.1118 12.7941C59.14 12.7391 59.185 12.7111 59.2466 12.7097L59.2584 12.7032C59.2817 12.6779 59.3104 12.6583 59.3423 12.6458L59.4435 12.5951C59.467 12.5503 59.4992 12.5188 59.5544 12.5225L60.672 11.7708C60.7441 11.6816 60.8109 11.5868 60.8916 11.5061C60.9175 11.4802 60.9849 11.4765 61.0254 11.4888C61.0854 11.5072 61.0752 11.5683 61.0527 11.6106C60.9906 11.7279 60.9189 11.8389 60.791 11.8974L60.7909 11.8974C60.4913 12.2068 60.1283 12.4245 59.7492 12.619C59.7318 12.6478 59.7066 12.6652 59.6735 12.6711L59.5693 12.7259C59.5476 12.773 59.5142 12.8021 59.4593 12.7985C59.4452 12.8278 59.4226 12.8379 59.3914 12.8288C59.3627 12.882 59.3202 12.9132 59.2577 12.9124L59.2397 12.9219C59.2318 12.936 59.2206 12.9481 59.2071 12.957C59.1935 12.966 59.1781 12.9716 59.162 12.9734L59.0528 13.0306C59.0315 13.0745 59.0007 13.1034 58.948 13.0988C58.8185 13.1971 58.6857 13.2895 58.5265 13.3347C58.5066 13.3626 58.4769 13.382 58.4433 13.389L58.3381 13.4405C58.3164 13.4851 58.2847 13.5139 58.2316 13.5092C58.2126 13.5398 58.1854 13.5517 58.1501 13.5448C57.9583 13.7055 57.7431 13.8267 57.5139 13.9247C57.2852 14.0907 57.0495 14.2453 56.7914 14.3629C56.7767 14.4045 56.7508 14.4298 56.7036 14.4255L56.6152 14.4725C56.3048 14.7439 55.9347 14.945 55.6725 15.2731C55.6419 15.3315 55.6164 15.3934 55.579 15.447C55.5508 15.4874 55.5062 15.5172 55.451 15.4909C55.3741 15.454 55.3758 15.3937 55.4076 15.3272ZM41.448 18.5425C41.4697 18.431 41.5576 18.3862 41.648 18.344L41.6638 18.3312C41.6877 18.3026 41.7161 18.2783 41.748 18.2591C41.9299 18.0806 42.1211 17.915 42.3609 17.8167L42.361 17.8167C42.4006 17.7455 42.4651 17.7133 42.5423 17.7008C42.6622 17.5655 42.8198 17.4907 42.9838 17.4265C43.0443 17.3726 43.102 17.3134 43.1922 17.3145L43.2293 17.3046L43.2293 17.3045C43.2611 17.2389 43.3155 17.2107 43.3864 17.2097L43.3925 17.2069C43.4415 17.1396 43.5058 17.1016 43.5909 17.1041L43.5936 17.1031C43.6418 17.031 43.71 16.9988 43.7956 17.0007L43.7971 17.0004C43.8452 16.9273 43.9144 16.8963 44.0002 16.8985L44.0019 16.8981C44.0506 16.8265 44.1193 16.7956 44.2047 16.7986L44.2093 16.7969C44.2598 16.731 44.3249 16.6954 44.4094 16.6999L44.4185 16.6965C44.4731 16.6343 44.5379 16.5939 44.6245 16.6004C44.7735 16.492 44.9397 16.4227 45.1191 16.3834C45.3452 16.2436 45.5877 16.1446 45.8483 16.0909C46.0434 15.9895 46.2428 15.9 46.4631 15.8681C46.5308 15.7883 46.62 15.7675 46.7191 15.7734L46.7196 15.7732C46.8195 15.6899 46.9352 15.6529 47.0646 15.6571C47.1185 15.5789 47.1979 15.5661 47.285 15.5733V15.5734L47.2851 15.5733C47.4692 15.4716 47.6602 15.3891 47.8708 15.3599C48.0288 15.2546 48.1969 15.1747 48.3884 15.1538L48.3966 15.1537C48.4453 15.0762 48.52 15.0559 48.6053 15.059L48.609 15.058C48.6655 14.9938 48.7338 14.9556 48.822 14.9614C49.1696 14.7686 49.52 14.5814 49.8922 14.4389L49.8924 14.4388H49.8923C50.1588 14.2373 50.4483 14.0751 50.7521 13.9373L50.758 13.932C50.7773 13.8856 50.808 13.8555 50.8623 13.8595C50.8782 13.8303 50.9026 13.8181 50.9355 13.8229C50.9627 13.7662 51.0071 13.736 51.0706 13.7353L52.1676 13.0032C52.1895 12.9484 52.2288 12.9167 52.2884 12.9119L52.2962 12.9067C52.326 12.8805 52.3575 12.8562 52.3905 12.8341L52.5883 12.6981C52.6081 12.6493 52.6405 12.617 52.6962 12.6151L52.7162 12.6021C52.7361 12.5733 52.7642 12.5513 52.797 12.5389C52.8539 12.4765 52.9105 12.4136 52.9995 12.3969L53.004 12.3954C53.0409 12.3705 53.0752 12.3418 53.1063 12.3099L53.1269 12.296C53.1463 12.2658 53.175 12.2428 53.2087 12.2304C53.4321 12.0261 53.6624 11.8304 53.9238 11.6749C54.0692 11.5094 54.2394 11.3744 54.4295 11.2639C54.609 11.061 54.8205 10.8972 55.0496 10.7547C55.1914 10.591 55.3599 10.4527 55.5479 10.3454C55.7266 10.1401 55.9401 9.97682 56.1689 9.83204C56.3485 9.62907 56.565 9.47163 56.7923 9.32752C56.903 9.19203 57.0377 9.08707 57.1947 9.0103C57.3405 8.84353 57.5156 8.71405 57.7078 8.60613C57.7253 8.55633 57.7572 8.52458 57.8125 8.522L57.8308 8.5091C57.8532 8.47954 57.8824 8.45584 57.9159 8.44002C57.9268 8.40644 57.9498 8.39167 57.9848 8.3957C58.0095 8.33961 58.0512 8.30585 58.1127 8.2983L58.1146 8.29919C58.1292 8.24423 58.1641 8.21365 58.2217 8.21046L58.2345 8.20164C58.2612 8.17286 58.2922 8.14843 58.3264 8.12923C58.3369 8.09687 58.3588 8.08351 58.3924 8.08909C58.4178 8.03337 58.4606 8.00073 58.5213 7.99168L58.5214 7.99173L58.5213 7.99163C58.6339 7.85727 58.7782 7.76751 58.9363 7.69716L58.9506 7.6883C58.9768 7.66246 59.0064 7.64031 59.0385 7.62245C59.2608 7.44645 59.4902 7.28179 59.7572 7.17819C60.1382 6.9196 60.5385 6.69937 60.9808 6.56271C61.1275 6.45001 61.3033 6.40522 61.4745 6.3496L61.4746 6.34955C61.6459 6.20637 61.8445 6.2755 62.046 6.26378C62.0547 6.4123 61.9483 6.41052 61.866 6.43453L61.3348 6.59933L59.8858 7.30374C59.6888 7.46408 59.4752 7.59797 59.2462 7.70753C59.2177 7.73304 59.1866 7.75546 59.1533 7.7744C59.1391 7.80662 59.1146 7.82003 59.0798 7.81469C58.966 7.95186 58.8173 8.0398 58.6589 8.11404H58.6588L58.6463 8.11718L58.6463 8.11723C58.6327 8.17369 58.5968 8.20253 58.5392 8.20483L58.5199 8.21792C58.5013 8.24582 58.4743 8.26716 58.4428 8.27893C58.353 8.37319 58.2582 8.46071 58.1333 8.50751L58.1108 8.52383C58.0892 8.5508 58.0621 8.57279 58.0312 8.58831C57.8101 8.79387 57.5777 8.98465 57.3176 9.13965C57.2113 9.27602 57.0761 9.37592 56.9227 9.45283C56.7409 9.65538 56.5255 9.81638 56.2954 9.95918C56.1141 10.1577 55.9045 10.3218 55.6779 10.4651C55.532 10.63 55.3657 10.7705 55.1747 10.8809C54.997 11.0861 54.7835 11.2478 54.5548 11.391C54.4085 11.5556 54.2412 11.6943 54.0475 11.8003C53.8611 12.006 53.6408 12.1694 53.4047 12.3128C53.3815 12.3389 53.3541 12.361 53.3237 12.3781C53.2712 12.4396 53.2173 12.4991 53.133 12.5169C53.1107 12.5691 53.0744 12.6034 53.0152 12.6081L53.0045 12.6157C52.9759 12.6428 52.9449 12.6675 52.9119 12.6892C52.8585 12.7511 52.803 12.8101 52.718 12.8277C52.6992 12.8783 52.6656 12.9091 52.6094 12.9096L52.5899 12.9222C52.566 12.9501 52.5367 12.9727 52.5037 12.9888C52.4896 13.0223 52.4645 13.0372 52.4284 13.0335C52.4047 13.0875 52.3656 13.1202 52.3048 13.1223C51.9127 13.4372 51.4967 13.7162 51.0532 13.9538C51.0435 13.9938 51.0215 14.0163 50.9776 14.0085L50.8766 14.0573C50.6692 14.2403 50.4311 14.3714 50.1746 14.4711H50.1744L50.1745 14.4712C49.655 14.8168 49.0968 15.0829 48.5073 15.2849C48.3934 15.3931 48.2452 15.4202 48.1016 15.4583C47.9089 15.5637 47.706 15.6417 47.4903 15.6853C47.4778 15.6938 47.4644 15.701 47.4504 15.7066C47.2018 15.8412 46.9358 15.9268 46.6593 15.9837C46.4656 16.0806 46.2678 16.1664 46.0522 16.2024C45.8307 16.339 45.5876 16.4217 45.3384 16.4892L43.318 17.4384C43.2913 17.4948 43.2457 17.5188 43.1848 17.5171C43.1748 17.5457 43.1553 17.5554 43.1265 17.546C42.9973 17.6746 42.8391 17.755 42.6719 17.8206C42.6194 17.8775 42.5647 17.9306 42.4821 17.9395L42.4821 17.9395V17.9396C42.3656 18.0743 42.2158 18.1633 42.0616 18.2464C42.0287 18.2701 41.9973 18.2957 41.9675 18.3232L41.9377 18.3445C41.9213 18.3744 41.894 18.3969 41.8615 18.4073C41.8504 18.4423 41.8265 18.4585 41.7899 18.4557C41.7333 18.5481 41.6619 18.6206 41.5473 18.6344C41.4997 18.687 41.4537 18.661 41.4194 18.6228C41.3908 18.591 41.4067 18.5583 41.448 18.5425ZM40.7295 28.569C40.7688 28.4105 40.8605 28.2809 40.958 28.1546C40.983 28.1194 41.0066 28.0831 41.0287 28.046L41.0808 27.9454C41.0912 27.9114 41.1104 27.8807 41.1365 27.8565L41.1394 27.8508C41.1407 27.7903 41.1655 27.7455 41.2244 27.7234C41.2204 27.695 41.2297 27.672 41.2524 27.6545C41.3869 27.4039 41.4774 27.3242 41.5238 27.4046C41.6098 27.5537 41.4687 27.6394 41.4106 27.7472C41.4039 27.7597 41.3833 27.7647 41.3691 27.7731H41.369L41.369 27.7732C41.3695 27.788 41.3664 27.8027 41.3601 27.816C41.3538 27.8294 41.3444 27.8411 41.3328 27.8502C41.3421 27.9151 41.3085 27.9565 41.2572 27.9884L41.2571 27.9885C41.2648 28.0191 41.2548 28.0422 41.2273 28.0577C41.2017 28.0989 41.1639 28.1324 41.1504 28.1812C41.155 28.218 41.1414 28.246 41.1096 28.2652C41.0935 28.3026 41.0711 28.3369 41.0432 28.3667L41.0416 28.3699C41.0397 28.4371 41.0083 28.4863 40.9507 28.5198C40.9472 28.5957 40.9221 28.6591 40.85 28.6957C40.374 29.6232 40.0602 30.6096 39.7771 31.6088C39.6334 32.1163 39.4472 32.611 39.1957 33.0774C39.099 33.2567 39.0097 33.4419 38.861 33.5877C38.8618 33.6365 38.8354 33.6634 38.7906 33.6753L38.7803 33.6893C38.7491 33.7884 38.6873 33.8622 38.596 33.9113C38.3181 34.2768 38 34.6056 37.6712 34.9247C37.4948 35.1845 37.2919 35.4222 37.0695 35.6437C37.0597 35.6989 37.0359 35.7429 36.978 35.7601L36.9722 35.7704C36.9153 35.8864 36.8612 36.0038 36.7984 36.1164C36.7887 36.1338 36.7359 36.1401 36.7094 36.1315C36.6845 36.1234 36.6527 36.0903 36.6507 36.0659C36.639 35.9263 36.7004 35.8133 36.7953 35.7158C36.9954 35.3695 37.2537 35.0706 37.5446 34.7984C37.8179 34.4269 38.1415 34.1012 38.4709 33.7808C38.5102 33.6812 38.5714 33.6001 38.6676 33.5488C38.6648 33.5155 38.679 33.4928 38.7101 33.4807C38.7101 33.4289 38.7391 33.399 38.7848 33.3818L38.789 33.375C38.7905 33.314 38.8209 33.2729 38.8757 33.2485C39.2919 32.4622 39.5619 31.6212 39.8021 30.7691C40.0012 30.0628 40.2505 29.3764 40.6153 28.7365C40.6488 28.6779 40.6912 28.6247 40.7295 28.569ZM29.9797 41.9716C29.9766 42.0197 29.983 42.071 29.9678 42.115C29.9523 42.1596 29.9136 42.1893 29.8568 42.1889C29.7913 42.1883 29.7741 42.1398 29.7726 42.0962C29.768 41.9665 29.7643 41.834 29.8654 41.7299L30.1316 40.737C30.1157 40.6818 30.1366 40.6396 30.1781 40.6046L30.2069 40.4402C30.1934 40.342 30.2137 40.2536 30.2818 40.1788L30.3008 40.032L30.3102 39.9265C30.2931 39.8331 30.318 39.7509 30.3763 39.6775L30.4175 39.4118C30.4045 39.314 30.4182 39.223 30.4857 39.1459C30.4649 38.7517 30.5807 38.3728 30.6161 37.9849C30.5967 37.8274 30.6062 37.6741 30.6823 37.5305L30.6824 37.5303L30.72 37.1628C30.7001 37.0339 30.7121 36.911 30.7885 36.8003C30.7806 36.4204 30.9028 36.0645 31.0007 35.7059C31.2833 34.6712 31.667 33.6778 32.2407 32.7653C32.3402 32.4983 32.4996 32.2671 32.6722 32.0437C32.6943 32.0092 32.7184 31.9759 32.7442 31.944L32.7456 31.9413C32.7507 31.88 32.7832 31.8383 32.8374 31.812C32.8334 31.7762 32.8478 31.751 32.8806 31.7364C32.8976 31.701 32.9213 31.6693 32.9503 31.6429C33.0545 31.4411 33.1784 31.2538 33.3498 31.1016C33.3919 30.9859 33.4607 30.8898 33.5607 30.8169C33.7062 30.5497 33.8987 30.3184 34.1073 30.0992C34.1242 30.0653 34.1487 30.0357 34.1789 30.0129L34.1903 29.9974C34.2228 29.9662 34.2522 29.9317 34.278 29.8947L34.2803 29.8888V29.8888C34.4213 29.6588 34.5834 29.4459 34.7855 29.2655C34.812 29.1759 34.8732 29.1142 34.9475 29.0627C35.1023 28.8053 35.3011 28.583 35.5033 28.3633C35.5372 28.2768 35.603 28.2172 35.6825 28.2829C35.7634 28.3497 35.7116 28.4237 35.6365 28.474C35.5214 28.6647 35.3912 28.8432 35.2219 28.9904C35.2123 29.0472 35.1846 29.0886 35.126 29.1039L35.1242 29.1089C35.084 29.2292 35.0054 29.3199 34.9054 29.3941C34.7636 29.6254 34.604 29.8425 34.401 30.0248C34.3797 30.1083 34.3204 30.1626 34.2561 30.213C34.2409 30.2461 34.2173 30.2747 34.1877 30.2959L34.1736 30.3155C34.142 30.3465 34.1145 30.3806 34.0903 30.4176C33.9811 30.6129 33.8523 30.793 33.6839 30.9425L33.6838 30.9424L33.6838 30.9425C33.6403 31.0601 33.567 31.1559 33.4687 31.2331C33.3554 31.4601 33.1948 31.6536 33.0346 31.8475C33.0122 31.882 32.9877 31.915 32.961 31.9463L32.9579 31.952C32.954 32.0141 32.9207 32.0563 32.8678 32.0852C32.8743 32.1187 32.8618 32.1422 32.8304 32.1557C32.8074 32.191 32.7833 32.2255 32.7581 32.2593C32.6492 32.489 32.5322 32.7138 32.3614 32.9055C32.3205 32.9975 32.2853 33.0924 32.2379 33.1809C31.7164 34.1554 31.3214 35.1767 31.0886 36.259C31.0673 36.3579 31.0323 36.4539 31.0037 36.5512C31.0187 36.6941 30.9949 36.8296 30.935 36.9582C30.9308 36.9692 30.9257 36.9799 30.9197 36.9902L30.8959 37.2671C30.9168 37.4403 30.8973 37.6078 30.8354 37.7695C30.8312 37.7825 30.8262 37.7953 30.8205 37.8078L30.7962 38.0836C30.8274 38.3657 30.7424 38.6335 30.6946 38.9058C30.7112 39.053 30.6861 39.1925 30.6252 39.3254C30.6215 39.3351 30.6172 39.3445 30.6123 39.3535L30.5916 39.5191C30.569 39.5445 30.5583 39.573 30.5531 39.6029C30.5622 39.6051 30.5717 39.6102 30.5816 39.6186C30.6002 39.7116 30.5736 39.7929 30.5176 39.8667C30.5107 40.0092 30.5173 40.1549 30.4204 40.2761C30.4091 40.3307 30.3977 40.3854 30.3863 40.44C30.3982 40.5388 30.385 40.6303 30.3105 40.7043V40.7044L30.2848 40.8497C30.2957 40.9497 30.2815 41.0423 30.2057 41.1167C30.2046 41.4213 30.0744 41.6917 29.9797 41.9716ZM36.1783 38.0307C35.9506 38.7472 35.6052 39.4065 35.1934 40.0327C35.1951 40.0903 35.1633 40.1258 35.1158 40.1511L35.0657 40.2434C35.0534 40.2769 35.0328 40.3066 35.0059 40.33L35.0005 40.3392C34.9977 40.3983 34.9665 40.4378 34.9175 40.4652C34.9159 40.467 34.9143 40.468 34.9126 40.468C34.9171 40.5049 34.9025 40.5312 34.869 40.547C34.8529 40.5825 34.83 40.6144 34.8016 40.6409C34.5821 41.0264 34.3329 41.3883 33.9817 41.6688C33.9669 41.7213 33.9397 41.7602 33.8792 41.7632C33.8696 41.8221 33.8383 41.8601 33.7769 41.869L33.7768 41.869V41.8691C33.7675 41.9289 33.7345 41.9659 33.6733 41.9751L33.6733 41.9751V41.9752C33.6652 42.0349 33.6321 42.0698 33.5717 42.0776C33.5625 42.1379 33.5278 42.1726 33.4674 42.1816C33.4587 42.2434 33.4217 42.2766 33.3616 42.2865C33.3534 42.3482 33.3151 42.3786 33.2565 42.3883C33.2535 42.4492 33.2139 42.4762 33.1612 42.4912C32.9037 42.8178 32.5789 43.0702 32.249 43.3168C32.0731 43.5214 31.8643 43.6859 31.6347 43.8255C31.3132 44.1307 30.9613 44.3912 30.5476 44.5592C30.4855 44.5843 30.4194 44.6037 30.3535 44.6127C30.3348 44.6152 30.3073 44.5735 30.289 44.5484C30.2802 44.5363 30.2759 44.5112 30.2826 44.4996C30.2985 44.4721 30.3172 44.4368 30.3434 44.4261C30.7728 44.2519 31.1184 43.9442 31.5042 43.701C31.6853 43.5001 31.8971 43.3362 32.1225 43.1889C32.4127 42.8949 32.7136 42.6133 33.0515 42.3736C33.0702 42.319 33.1071 42.2861 33.1648 42.2777C33.1737 42.2164 33.2127 42.1859 33.2704 42.175C33.2775 42.1151 33.3146 42.0857 33.371 42.076C33.4066 41.9797 33.4728 41.9141 33.5685 41.8779L33.5686 41.8779V41.8778C33.5781 41.8194 33.6092 41.7821 33.6702 41.7739C33.6789 41.7163 33.709 41.6793 33.7692 41.6713C33.7775 41.6126 33.8116 41.5758 33.8662 41.5563L34.7148 40.435C34.7148 40.3826 34.7447 40.3518 34.7896 40.332L34.7898 40.3298C34.7942 40.2661 34.8259 40.2205 34.8812 40.1903C34.8727 40.1612 34.8826 40.1413 34.9109 40.1307C34.9407 40.0925 34.9771 40.0586 34.9911 40.0098L35.0366 39.9213C35.0504 39.8852 35.0719 39.8526 35.0995 39.8256L35.1019 39.821C35.1045 39.757 35.1357 39.7108 35.1901 39.6791C35.2893 39.4834 35.3866 39.2867 35.4879 39.0921C35.6918 38.7003 35.8841 38.3037 36.0109 37.8786C36.0249 37.8313 36.0461 37.7833 36.0761 37.745C36.0931 37.7232 36.1378 37.7067 36.1639 37.7131C36.1873 37.7188 36.2193 37.7603 36.2177 37.7839C36.212 37.8667 36.2033 37.9519 36.1783 38.0307ZM35.9248 24.7928C35.9186 24.8506 35.8874 24.8856 35.8301 24.8969L35.8277 24.904C35.5955 25.2708 35.3113 25.6055 35.1375 26.0085C35.0102 26.3034 34.9043 26.6029 34.9945 26.9321L34.9944 26.9322L34.9945 26.9322C35.1275 27.0747 35.2835 27.1491 35.4845 27.1124C35.5451 27.1013 35.6288 27.1011 35.6269 27.191C35.6252 27.2693 35.5431 27.2915 35.4807 27.3035C35.2332 27.3512 35.0189 27.3054 34.8845 27.0651C34.7177 26.9299 34.7217 26.7414 34.7479 26.56C34.7717 26.3957 34.8139 26.2299 34.8759 26.076C35.0714 25.5911 35.3342 25.1464 35.7112 24.7766C36.0591 24.3108 36.4543 23.8915 36.9226 23.5439C37.0975 23.3318 37.3135 23.1709 37.5528 23.0392C37.9305 22.7178 38.3354 22.4386 38.7934 22.2421C38.9374 22.1332 39.0915 22.0446 39.2691 22.0023C39.4491 21.8452 39.6735 21.7893 39.8959 21.7311C39.9494 21.7172 39.9901 21.7533 40.0124 21.7995C40.0382 21.8527 40.0115 21.9002 39.9642 21.9177C39.7788 21.9862 39.5909 22.0478 39.4038 22.112C39.2405 22.1919 39.0772 22.2717 38.9139 22.3516L38.9138 22.3516V22.3516L37.6801 23.1612C37.4947 23.3553 37.2774 23.5093 37.0563 23.6584C36.6791 24.0364 36.302 24.4146 35.9248 24.7928ZM42.5882 57.5348C42.4046 58.1196 42.1787 58.6899 41.9232 59.2469C40.9491 61.3708 39.7873 63.3946 38.6088 65.4081C37.8861 66.6428 37.122 67.8533 36.3802 69.0769C36.0359 69.6448 35.694 70.2143 35.3639 70.7905C35.2035 71.0704 35.0753 71.3686 34.9277 71.6561C34.8398 71.8273 34.7353 71.88 34.5103 71.8539C34.4748 71.8402 34.3951 71.8127 34.3179 71.7795C33.8618 71.5837 33.4241 71.3526 33.0492 71.0247C32.4562 70.506 31.793 70.085 31.1307 69.6693C30.2158 69.0951 29.2084 68.7197 28.1547 68.4883C27.6859 68.3853 27.7868 68.2764 27.9908 68.0012C28.1833 67.7414 28.3976 67.4974 28.6089 67.2521C28.8203 67.0067 29.0346 66.7634 29.2566 66.5275C31.1566 64.5089 32.7752 62.276 34.2739 59.9512C34.9849 58.8482 35.6646 57.7279 36.2618 56.5578C36.5406 56.0117 36.8455 55.4781 37.2431 55.0053C37.3639 54.8616 37.482 54.7141 37.6721 54.6558C37.8227 54.6096 37.9629 54.5866 38.1005 54.7106C38.5978 55.1587 39.1808 55.4711 39.7725 55.7755C40.2125 56.0019 40.6621 56.2007 41.1186 56.3889C41.5273 56.5574 41.9366 56.7264 42.3345 56.9184C42.657 57.0738 42.699 57.1816 42.5882 57.5348ZM43.5398 55.2527C43.3571 55.5601 43.1827 55.8724 43.0085 56.1847C42.9506 56.2885 42.8761 56.3455 42.7627 56.2853C42.1297 55.949 41.4469 55.7286 40.7961 55.4353C40.285 55.205 39.794 54.9299 39.295 54.6727C39.2346 54.6413 39.1778 54.6033 39.1258 54.5594C38.837 54.316 38.833 54.3244 38.9804 54.0162C39.1863 53.5858 39.3405 53.1349 39.4875 52.6808C39.7833 51.7671 39.6492 50.8986 39.2353 50.0566C39.0018 49.5817 38.7323 49.1273 38.4064 48.7095C38.05 48.2526 37.6859 47.8019 37.3252 47.3484C37.1447 47.1214 36.9751 46.8875 36.8387 46.6301C36.4909 45.9737 36.4569 45.2971 36.708 44.604C36.8943 44.0898 37.1349 43.6032 37.4721 43.1684C37.5661 43.0472 37.6545 42.9217 37.7419 42.7957C38.2781 42.0223 38.4076 41.1708 38.2257 40.2602C38.2056 40.1601 38.1916 40.0577 38.1606 39.961C38.0605 39.6487 38.164 39.3885 38.3682 39.161C38.4928 39.0222 38.6279 38.8889 38.7754 38.7753C39.1979 38.4499 39.4604 38.0268 39.5997 37.5166C39.7214 37.0705 39.8352 36.6173 39.791 36.1567C39.7175 35.3913 40.1112 34.9592 40.7338 34.6183C41.4362 34.2337 42.1338 34.2679 42.8548 34.5199C42.9476 34.5524 42.9963 34.6152 43.018 34.6974C43.0482 34.8116 43.0733 34.9294 43.0814 35.047C43.1924 36.6573 43.6856 38.1508 44.483 39.5437C44.9736 40.4008 45.5012 41.2366 46.0139 42.081C46.3055 42.5613 46.6117 43.0324 46.8603 43.538C47.0939 44.013 47.2772 44.5067 47.4464 45.0071C47.5967 45.4515 47.6021 45.9109 47.6033 46.4478C47.6408 47.1387 47.4474 47.8459 47.1226 48.5411C46.0472 50.8425 44.8371 53.0704 43.5398 55.2527ZM55.6863 53.4302C54.4562 54.8194 53.316 56.2919 51.8818 57.4913C51.2884 57.9876 50.6342 58.3719 49.9306 58.6872C49.2492 58.9925 48.6448 58.8936 48.0804 58.4206C47.7634 58.1549 47.5092 57.8355 47.2693 57.5049C46.7989 56.8566 46.3805 56.1757 46.0108 55.4638C45.7836 55.0262 45.5342 54.5999 45.285 54.1742C45.1977 54.0251 45.1896 53.8961 45.2786 53.7471C45.4444 53.4696 45.5999 53.1859 45.7595 52.9048C45.8163 52.8048 45.8969 52.7733 46.0138 52.7853C48.2187 53.0109 50.2253 52.4108 52.1057 51.3046C52.77 50.9137 53.3683 50.4371 53.8779 49.8541C53.9323 49.7918 53.9765 49.7117 54.0771 49.7026C54.1956 49.8455 54.2288 50.0294 54.297 50.1963C54.6512 51.0633 55.0521 51.9085 55.4738 52.7442C55.5504 52.8961 55.6204 53.0517 55.7039 53.1997C55.7531 53.2869 55.7488 53.3597 55.6863 53.4302ZM66.9433 71.7189C66.891 71.6521 66.8496 71.5768 66.8015 71.5065C65.1442 69.0866 63.6424 66.5721 62.2192 64.0085C60.7556 61.3722 59.3999 58.6796 58.0087 56.0055C57.1992 54.4495 56.3737 52.9017 55.6184 51.3183C55.2225 50.4882 54.8553 49.6458 54.6009 48.7582C54.431 48.1653 54.3154 47.565 54.3162 46.9467C54.3167 46.5375 54.3235 46.1282 54.3378 45.7194C54.3425 45.5851 54.375 45.4511 54.4033 45.3188C54.4339 45.1762 54.52 45.0918 54.6629 45.034C55.8504 44.5535 56.9535 43.9057 58.0573 43.2663C59.4628 42.4522 60.7757 41.5088 61.8821 40.3017C62.5524 39.5704 63.1622 38.7955 63.664 37.9385C64.1375 37.1299 64.5935 36.3121 64.952 35.4439C64.9744 35.3896 64.9704 35.3116 65.089 35.2832C65.381 35.7655 65.6845 36.2543 65.9744 36.7509C66.1167 36.9945 66.142 37.2705 66.1038 37.5456C66.0191 38.156 66.1255 38.7307 66.3844 39.286C66.4703 39.4701 66.5218 39.6688 66.5481 39.8745C66.6214 40.4498 66.48 40.9535 66.0822 41.3823C65.4416 42.0727 64.7431 42.6905 63.9319 43.1798C63.4218 43.4874 62.9307 43.8269 62.4347 44.1576C61.663 44.6722 61.3176 45.4103 61.2912 46.324C61.2733 46.9445 61.3461 47.5546 61.5293 48.1412C61.7776 48.9367 62.0116 49.7378 62.3184 50.5148C62.6832 51.4389 63.1699 52.298 63.7124 53.1243C66.0049 56.6162 68.3882 60.0438 71.0056 63.303C71.8493 64.3536 72.7421 65.3622 73.6578 66.3506C74.0047 66.7248 74.3426 67.1074 74.6966 67.4995C74.558 67.5862 74.4467 67.6622 74.3296 67.7282C72.0158 69.0329 69.7014 70.3365 67.3869 71.6401C67.3128 71.6819 67.2347 71.7171 67.1628 71.7622C67.0729 71.8187 67.001 71.7927 66.9433 71.7189ZM68.3479 75.0878C68.1119 74.598 67.881 74.1055 67.6591 73.6092C67.5552 73.377 67.474 73.1344 67.3869 72.895C67.2812 72.6043 67.2953 72.5576 67.5603 72.4079C68.7445 71.739 69.9305 71.0731 71.1156 70.4056C72.3154 69.7297 73.515 69.0533 74.7147 68.3772C74.8035 68.3271 74.8913 68.2751 74.9818 68.228C75.1794 68.1251 75.2317 68.1264 75.3841 68.279C75.9896 68.8854 76.5006 69.5589 76.8409 70.346C76.7791 70.4908 76.6445 70.5408 76.536 70.6193C75.9708 71.0282 75.3977 71.4265 74.84 71.8454C73.7219 72.6852 72.5341 73.4131 71.3061 74.0775C70.4513 74.5399 69.5318 74.8507 68.6314 75.2058C68.4849 75.2636 68.4234 75.2443 68.3479 75.0878ZM89.4679 84.7857C89.1462 85.5421 88.7712 86.2623 88.3148 86.9444C87.8362 87.6597 87.2463 88.2702 86.596 88.8268C86.312 89.0698 85.993 89.2715 85.751 89.5648C85.6886 89.6404 85.5893 89.6884 85.5016 89.7399C85.1787 89.9298 84.8487 90.1082 84.5299 90.3047C83.3617 91.0245 82.0743 91.3893 80.7297 91.5709C79.9979 91.6697 79.2633 91.6204 78.5408 91.4754C76.126 90.9909 73.8876 90.0714 71.8266 88.7212C71.265 88.3534 70.7937 87.8864 70.3512 87.3876C70.1922 87.2083 70.0699 87.003 69.9615 86.7894C69.659 86.1931 69.4581 85.5606 69.3137 84.9111C69.2467 84.6101 69.2696 84.3013 69.3267 83.9962C69.4277 83.4576 69.6054 82.944 69.8146 82.4393C69.9122 82.2037 70.0144 81.9673 70.0814 81.7222C70.2148 81.2347 70.1942 80.7445 70.054 80.2581C69.95 79.8975 69.8241 79.5453 69.6664 79.2049C69.3081 78.4319 68.9725 77.6508 68.7519 76.8242C68.687 76.5812 68.5864 76.3476 68.4921 76.0812C69.0477 75.8609 69.5813 75.6413 70.1208 75.4374C70.7914 75.184 71.4334 74.8731 72.0591 74.5251C73.2371 73.87 74.3713 73.1489 75.4467 72.3342C75.9762 71.9329 76.5242 71.5559 77.0676 71.1732C77.7118 70.7195 77.7688 70.4728 77.4031 69.7598C77.0894 69.148 76.7055 68.5907 76.2075 68.1126C76.0476 67.9589 75.9001 67.7928 75.7665 67.6158C75.3857 67.111 74.9613 66.6443 74.5283 66.1861C72.2516 63.7765 70.2291 61.162 68.2926 58.4773C67.0162 56.7076 65.796 54.8993 64.584 53.0855C64.1675 52.4622 63.7741 51.8234 63.4374 51.1524C63.3014 50.8815 63.1839 50.6012 63.0534 50.3149C63.4975 50.0333 63.9596 49.8604 64.4127 49.6695C64.4283 49.6629 64.4457 49.6604 64.4614 49.6539C66.3117 48.891 68.1919 48.9922 70.0796 49.4749C72.7076 50.1469 75.0046 51.4326 77.002 53.2593C77.7328 53.9275 78.3922 54.6696 78.9698 55.4739C80.1727 57.1486 81.4058 58.8028 82.5113 60.5455C83.3873 61.9265 84.2695 63.3043 84.9987 64.7717C85.3021 65.3822 85.5795 66.003 85.7875 66.6544C85.8969 66.9969 85.9793 67.3444 86.0262 67.6988C86.1108 68.3378 86.0318 68.9572 85.7509 69.5428C85.6405 69.7731 85.5168 69.9969 85.4031 70.2255C85.0388 70.9581 84.9487 71.7115 85.1927 72.5058C85.3864 73.1362 85.7003 73.6947 86.1164 74.1988C86.5616 74.7381 87.0262 75.2604 87.5236 75.753C87.9359 76.1612 88.3265 76.5882 88.6794 77.0504C89.3225 77.8928 89.7316 78.8412 89.9297 79.8743C90.2514 81.5525 90.1455 83.1926 89.4679 84.7857Z" fill="#E2E2E2"/>
<path d="M30.1781 40.604L30.1317 40.7361C30.1495 40.6929 30.1649 40.6488 30.1781 40.604Z" fill="#E2E2E2"/>
<path d="M53.1395 40.9183C53.1234 40.7468 53.0734 40.5855 53.0066 40.4281C52.8663 40.097 52.677 39.7943 52.4601 39.5098C51.7203 38.5394 50.834 37.7268 49.8087 37.0659C49.5224 36.8813 49.2228 36.7199 48.9019 36.6047C48.6945 36.5302 48.4832 36.4618 48.258 36.4605C47.8691 36.4581 47.4418 36.7149 47.4764 37.2687C47.4861 37.424 47.5227 37.5694 47.5749 37.7146C47.6969 38.0543 47.8823 38.3582 48.0926 38.6479C48.8005 39.6225 49.671 40.4273 50.6662 41.1005C50.9625 41.3009 51.2734 41.4763 51.6042 41.6137C51.8405 41.7118 52.0817 41.7944 52.2647 41.7901C52.8978 41.7981 53.1918 41.475 53.1395 40.9183ZM51.5982 40.7853C51.5646 40.8519 51.4916 40.8554 51.4241 40.8554C51.4079 40.8554 51.3896 40.853 51.3757 40.8455C51.1675 40.7341 50.9855 40.592 50.8583 40.3895C50.8053 40.3051 50.8796 40.166 51.0448 40.1616C51.1812 40.1849 51.36 40.2606 51.4852 40.4321C51.5339 40.499 51.5784 40.5716 51.6089 40.648C51.6245 40.687 51.6178 40.7466 51.5982 40.7853Z" fill="white" fill-opacity="0.43"/>
<path d="M61.416 32.6598C61.2414 32.3049 60.9733 32.1679 60.584 32.2388C60.4296 32.2669 60.2927 32.3329 60.1667 32.4188C59.61 32.7983 59.2563 33.3242 59.0775 33.9686C59.0225 34.1669 59.0257 34.3745 59.0562 34.5767C59.1517 35.2078 59.73 35.5149 60.3143 35.2544C60.4567 35.191 60.5793 35.103 60.6921 34.9994C61.1483 34.5807 61.3378 34.0146 61.5382 33.4556C61.5548 33.4093 61.549 33.3549 61.5531 33.3095C61.5243 33.0856 61.5167 32.8646 61.416 32.6598ZM60.3623 34.6869C60.3297 34.7127 60.2606 34.7244 60.2261 34.707C60.1938 34.6905 60.1658 34.625 60.1703 34.5849C60.1819 34.4805 60.2457 34.4 60.3357 34.3466C60.3598 34.3323 60.4048 34.3291 60.4272 34.3425C60.4512 34.3569 60.4598 34.3969 60.4761 34.4274C60.496 34.5379 60.4426 34.6232 60.3623 34.6869ZM60.7054 33.0812C60.6932 33.1325 60.6797 33.2526 60.6363 33.3608C60.5028 33.6937 60.3184 33.9972 60.064 34.2531C59.9934 34.3242 59.9171 34.3894 59.8139 34.4201C59.6645 34.4646 59.5375 34.38 59.5428 34.2223C59.5456 34.1381 59.5474 34.0494 59.5747 33.9714C59.7166 33.5661 59.9286 33.2029 60.2487 32.91C60.2859 32.8759 60.3296 32.8484 60.3721 32.8207C60.4476 32.7714 60.5298 32.7588 60.6129 32.7954C60.6764 32.8234 60.7103 32.9111 60.7054 33.0812Z" fill="#DCDCDC"/>
<path d="M51.8533 27.7277C51.523 27.3461 50.9511 27.2722 50.5044 27.5351C50.417 27.5865 50.3302 27.6454 50.2591 27.7168C49.7815 28.1967 49.4318 28.7521 49.2818 29.4201C49.2595 29.5191 49.2424 29.6216 49.2416 29.7226C49.2375 30.2664 49.5973 30.6608 50.14 30.7149C50.4392 30.7447 50.7208 30.6816 50.9678 30.5151C51.6648 30.0451 51.9914 29.3588 52.0898 28.6794C52.0891 28.2496 52.0517 27.9569 51.8533 27.7277ZM50.651 29.9752C50.6045 29.9944 50.5512 29.9661 50.5357 29.916C50.4963 29.7882 50.5561 29.696 50.6581 29.6252C50.6701 29.6168 50.6871 29.6157 50.6992 29.612C50.7657 29.6031 50.7956 29.6508 50.7998 29.6959C50.8111 29.8177 50.7728 29.9248 50.651 29.9752ZM50.9136 28.7155C50.8088 29.0987 50.6109 29.4308 50.3447 29.7224C50.2885 29.784 50.2197 29.8375 50.1483 29.8808C50.0743 29.9255 49.9861 29.9383 49.9056 29.8963C49.8202 29.8517 49.8122 29.7644 49.8072 29.6554C49.8477 29.2749 50.05 28.9447 50.2867 28.6317C50.3786 28.5101 50.4826 28.3998 50.6236 28.3286C50.7799 28.2496 50.9472 28.3425 50.9436 28.5161C50.9422 28.5829 50.9312 28.651 50.9136 28.7155ZM38.5818 82.1396C38.5879 81.6029 38.7224 81.0932 38.9316 80.6058C39.1261 80.1528 39.353 79.7139 39.5579 79.2653C39.7203 78.9098 39.8791 78.5521 40.0242 78.1893C40.1448 77.8877 40.2286 77.5784 40.1555 77.2437C40.1095 77.033 40.1766 76.839 40.3192 76.6759C40.4199 76.5609 40.5602 76.5284 40.6891 76.5868C40.8089 76.6411 40.8993 76.7481 40.8754 76.8654C40.7996 77.2373 40.9325 77.6099 40.842 77.9817C40.7451 78.3801 40.6261 78.7688 40.4509 79.1394C40.2255 79.6162 39.9964 80.0913 39.7716 80.5684C39.5824 80.9699 39.4327 81.3821 39.3686 81.8265C39.2761 82.4686 39.4185 83.0486 39.8046 83.5609C40.428 84.388 41.2104 85.0385 42.1021 85.5589C42.3092 85.6798 42.5357 85.7452 42.7786 85.7701C43.053 85.7981 43.1963 85.9443 43.1787 86.1347C43.163 86.305 43.0147 86.4316 42.7798 86.4664C42.5563 86.4995 42.3402 86.466 42.1263 86.3936C41.915 86.322 41.7193 86.2212 41.532 86.1036C40.7181 85.5932 39.9928 84.9791 39.3739 84.2426C38.8635 83.6351 38.5732 82.9433 38.5818 82.1396ZM27.8008 55.2115C27.7744 54.068 28.0947 53.0261 28.6961 52.062C29.0036 51.569 29.3607 51.1139 29.7366 50.6725C29.7697 50.6337 29.8075 50.5988 29.8387 50.5587C29.9396 50.4287 30.1707 50.4029 30.3033 50.4979C30.4322 50.5903 30.4659 50.795 30.3653 50.9603C30.2948 51.0762 30.207 51.1821 30.1229 51.2892C29.7641 51.7458 29.4577 52.2362 29.1732 52.7416C28.6169 53.7299 28.4581 54.7932 28.6005 55.9031C28.7418 57.0041 29.0209 58.074 29.3983 59.1184C29.4675 59.3097 29.5335 59.5043 29.575 59.7029C29.6131 59.8855 29.5315 60.0285 29.3966 60.0877C29.2377 60.1575 29.0535 60.1075 28.9549 59.9423C28.8683 59.7972 28.7998 59.6397 28.7379 59.482C28.3133 58.3994 28.0434 57.2751 27.8646 56.129C27.8174 55.8271 27.8207 55.5175 27.8008 55.2115ZM28.0019 84.8398C28.0225 85.2839 27.9685 85.7244 27.9388 86.1661C27.9319 86.2684 27.9169 86.3678 27.8606 86.4586C27.7903 86.572 27.6888 86.6191 27.5604 86.6121C27.4295 86.6049 27.3408 86.5366 27.2852 86.4173C27.2235 86.285 27.2575 86.1496 27.2611 86.0148C27.3107 84.1613 27.118 82.3464 26.4348 80.603C26.1244 79.8108 25.799 79.0262 25.4333 78.258C25.375 78.1356 25.317 78.0109 25.2794 77.8814C25.2518 77.786 25.2455 77.6803 25.2513 77.5805C25.2588 77.4502 25.3449 77.3651 25.4616 77.316C25.5869 77.2632 25.7005 77.3031 25.7883 77.3928C25.8584 77.4646 25.9227 77.549 25.9662 77.6391C26.751 79.2654 27.4853 80.9109 27.8068 82.7051C27.9331 83.4105 27.974 84.1249 28.0019 84.8398ZM20.127 68.6441C20.1261 67.991 20.2687 67.4874 20.5361 67.0201C20.7222 66.6949 20.9127 66.3719 21.1124 66.0551C21.4361 65.5415 21.6496 64.9938 21.6815 64.3815C21.6858 64.2987 21.7026 64.2095 21.7404 64.1373C21.7993 64.0244 21.9054 63.9673 22.0373 63.9785C22.1676 63.9895 22.267 64.0584 22.3042 64.181C22.3333 64.2766 22.3366 64.3821 22.339 64.4835C22.3522 65.0232 22.2142 65.5311 21.9851 66.0128C21.8611 66.2735 21.7042 66.5187 21.5601 66.7696C21.4244 67.0059 21.2776 67.2362 21.1503 67.4768C20.8298 68.0821 20.7867 68.7156 21.0175 69.3565C21.2736 70.0678 21.6238 70.727 22.1779 71.2595C22.2885 71.3658 22.3963 71.4744 22.4617 71.6179C22.5171 71.7396 22.4975 71.8476 22.4231 71.9537C22.3454 72.0645 22.2352 72.0901 22.1103 72.0829C21.9832 72.0756 21.8888 72.001 21.7966 71.9253C21.5582 71.7294 21.3523 71.5026 21.169 71.255C20.7909 70.7444 20.5098 70.1822 20.2955 69.5864C20.2381 69.4271 20.1981 69.2592 20.1706 69.0919C20.1404 68.9075 20.1338 68.7191 20.127 68.6441ZM59.2609 70.8943C59.2306 71.8529 59.0402 72.7308 58.7196 73.58C58.5868 73.9319 58.3927 74.2543 58.1461 74.54C57.5751 75.2014 56.9256 75.7741 56.1805 76.233C55.9049 76.4027 55.6164 76.5504 55.2876 76.5912C55.2039 76.6016 55.1183 76.6158 55.0352 76.6089C54.8875 76.5964 54.774 76.4907 54.7464 76.3595C54.7168 76.2183 54.7662 76.0849 54.893 76.0073C54.9792 75.9546 55.0737 75.9134 55.1682 75.8767C56.1832 75.4824 56.9499 74.7676 57.6405 73.957C57.8408 73.7219 57.9729 73.4432 58.0751 73.1528C58.3134 72.4753 58.4486 71.7742 58.5235 71.0624C58.5572 70.7414 58.5613 70.416 58.4844 70.0968C58.4764 70.0637 58.4664 70.0307 58.4624 69.9971C58.4328 69.7476 58.5518 69.563 58.756 69.5397C58.9256 69.5203 59.0743 69.6489 59.1351 69.8808C59.1738 70.0288 59.21 70.1791 59.2269 70.3306C59.2495 70.5332 59.2522 70.738 59.2609 70.8943Z" fill="#FFF5F5"/>
<path d="M19.0113 74.7149C17.9471 74.6745 16.7868 74.5023 15.6526 74.1776C15.019 73.9962 14.4732 73.6519 14.01 73.1824C13.9149 73.0859 13.8261 72.979 13.755 72.8641C13.6558 72.7038 13.7013 72.5001 13.838 72.4075C13.9632 72.3226 14.1291 72.3372 14.2594 72.4497C14.3107 72.4939 14.3536 72.5477 14.4013 72.5962C14.7788 72.9803 15.2261 73.2463 15.74 73.4085C16.5556 73.6659 17.3924 73.8121 18.2407 73.8972C18.8519 73.9585 19.4643 73.9837 20.0772 73.9045C20.1944 73.8894 20.3156 73.8908 20.4338 73.8997C20.5652 73.9096 20.6502 73.9905 20.6885 74.1161C20.7305 74.2541 20.6843 74.4039 20.5713 74.4787C20.4567 74.5547 20.3265 74.5911 20.1932 74.625C19.8418 74.7146 19.4847 74.716 19.0113 74.7149ZM63.0555 84.1508C62.9549 84.9398 62.577 85.7443 61.7719 86.311C61.4712 86.5226 61.1245 86.6027 60.7659 86.6409C60.716 86.6462 60.664 86.6424 60.614 86.6355C60.4415 86.6117 60.3204 86.5 60.2983 86.3489C60.278 86.2099 60.3696 86.0538 60.5298 85.9913C60.6716 85.9358 60.8218 85.9019 60.968 85.8572C61.2865 85.7598 61.5481 85.579 61.7546 85.318C62.0117 84.9929 62.186 84.6268 62.2826 84.225C62.3306 84.0255 62.3317 83.8175 62.2858 83.6175C62.2089 83.2787 62.0667 83.0034 61.6552 83.0077C61.6218 83.0081 61.5871 83.0013 61.555 82.9915C61.3976 82.9429 61.2924 82.7966 61.3063 82.649C61.3207 82.4971 61.4371 82.3685 61.6097 82.3551C62.0384 82.3219 62.4224 82.4215 62.6931 82.7869C62.9558 83.1417 63.0632 83.5464 63.0555 84.1508Z" fill="#E2E2E2"/>
<path d="M40.4154 70.8227C40.6236 70.8351 40.7623 70.9954 40.7376 71.1726C40.7285 71.2384 40.7099 71.3086 40.6752 71.3641C40.4588 71.7105 40.4965 72.0865 40.5594 72.4567C40.6517 73.0008 40.8525 73.5044 41.1923 73.9468C41.2856 74.0682 41.3757 74.1927 41.4584 74.3215C41.5034 74.3917 41.5402 74.471 41.5619 74.5514C41.5951 74.6743 41.5658 74.7888 41.4664 74.8761C41.3698 74.961 41.197 74.9817 41.0824 74.912C41.011 74.8686 40.9459 74.8104 40.8884 74.7491C40.1146 73.9241 39.7441 72.9498 39.8112 71.8159C39.8298 71.5003 39.9459 71.2198 40.1365 70.9706C40.212 70.8719 40.3118 70.8089 40.4154 70.8227Z" fill="#DCDCDC"/>
<path d="M27.7343 37.576C27.7695 37.5214 27.7964 37.4581 27.8424 37.415C27.8794 37.3804 27.9408 37.3908 27.9463 37.4547C27.9564 37.574 27.9381 37.6894 27.8479 37.7806C27.808 37.7134 27.8348 37.6093 27.7343 37.576Z" fill="#E5E5E5"/>
<path d="M82.141 85.4663C81.162 85.4942 80.2192 85.3011 79.3104 84.934C79.0584 84.8322 78.8118 84.7147 78.6044 84.5325C78.3889 84.3432 78.2564 84.1143 78.2893 83.8167C78.3142 83.5916 78.5234 83.4541 78.7301 83.5171C78.8168 83.5435 78.8917 83.5943 78.9216 83.6732C79.0513 84.0152 79.3532 84.1291 79.6541 84.2524C80.6504 84.6606 81.6896 84.7799 82.7542 84.7018C83.2625 84.6645 83.7701 84.6029 84.2597 84.4484C84.4859 84.377 84.7164 84.3106 84.9308 84.2114C85.3383 84.0226 85.7075 83.7844 85.8585 83.3213C85.9047 83.1797 86.0076 83.0993 86.163 83.0958C86.3306 83.092 86.4628 83.1986 86.4834 83.36C86.5034 83.5169 86.4625 83.6606 86.3975 83.8035C86.2447 84.1393 85.998 84.3929 85.7062 84.6059C85.3598 84.8588 84.9737 85.0359 84.5628 85.153C83.7734 85.3779 82.9682 85.4935 82.141 85.4663Z" fill="#E2E2E2"/>
<path d="M75.4133 56.9114C75.3823 57.8462 75.3027 58.7765 75.1123 59.6946C75.0637 59.9289 75.0005 60.1584 74.8318 60.3404C74.7237 60.457 74.5966 60.5328 74.4287 60.5198C74.2555 60.5063 74.1144 60.3357 74.143 60.1672C74.1486 60.134 74.1566 60.0993 74.1723 60.07C74.4791 59.4975 74.5004 58.8588 74.5657 58.2384C74.6439 57.4963 74.7096 56.7483 74.608 55.9996C74.5483 55.5604 74.4553 55.1304 74.2969 54.7156C74.2302 54.5408 74.1637 54.3742 73.9681 54.2885C73.7856 54.2086 73.7591 54.0324 73.7789 53.8539C73.8128 53.5498 74.144 53.4061 74.39 53.5897C74.5563 53.7139 74.6695 53.8861 74.772 54.0625C75.0393 54.5226 75.2077 55.0209 75.3035 55.5415C75.3866 55.9931 75.4468 56.4488 75.4133 56.9114Z" fill="#DCDCDC"/>
<path d="M82.5041 76.8872C82.5068 77.0634 82.4241 77.1955 82.2779 77.2488C82.1417 77.2985 81.9693 77.25 81.871 77.1131C81.8131 77.0325 81.7755 76.9345 81.7423 76.8396C81.306 75.5931 80.6606 74.4593 79.8852 73.3962C79.6447 73.0664 79.3967 72.7419 79.1449 72.4207C78.9454 72.1664 78.7368 71.919 78.4705 71.7287C78.4292 71.6991 78.3885 71.667 78.354 71.63C78.2626 71.5325 78.2444 71.3649 78.312 71.2519C78.3792 71.1394 78.4851 71.0872 78.6114 71.0938C78.7509 71.1011 78.8754 71.1598 78.9785 71.2535C79.1672 71.4249 79.366 71.5879 79.5358 71.7767C80.7177 73.0906 81.6604 74.5562 82.3116 76.2036C82.399 76.4247 82.4931 76.6444 82.5041 76.8872Z" fill="#FFF5F5"/>
<path d="M73.7036 81.9646C73.9464 81.9561 74.1061 82.1961 74.0126 82.4238C73.9456 82.587 73.8145 82.6988 73.7012 82.8248C73.2471 83.3297 72.9609 83.9262 72.78 84.5717C72.614 85.1635 72.6818 85.7537 72.8626 86.3339C72.8979 86.447 72.9491 86.5565 72.9712 86.6718C72.9952 86.7976 72.9461 86.907 72.8322 86.9769C72.7161 87.0481 72.539 87.0457 72.4516 86.9508C72.3726 86.8652 72.2979 86.7642 72.2568 86.6565C71.9452 85.8415 71.8223 85.0156 72.1136 84.1621C72.319 83.5606 72.5886 82.996 72.9863 82.4974C73.114 82.3374 73.2538 82.1892 73.4216 82.068C73.508 82.0056 73.5979 81.9673 73.7036 81.9646Z" fill="#DCDCDC"/>
<path d="M86.304 77.2795C86.1391 77.2846 86.0103 77.2488 85.8833 77.1953C85.1392 76.8813 84.477 76.4493 83.9378 75.8423C83.8485 75.7417 83.7731 75.627 83.7026 75.5119C83.6591 75.4411 83.6273 75.3595 83.6074 75.2785C83.5586 75.0808 83.6253 74.9095 83.7682 74.8364C83.9335 74.7518 84.1409 74.7949 84.2544 74.9823C84.647 75.6303 85.2468 76.0389 85.8741 76.417C86.0165 76.5028 86.1627 76.5743 86.3486 76.5687C86.638 76.56 86.7759 76.6803 86.7715 76.8776C86.7668 77.0941 86.5795 77.264 86.3284 77.2794C86.3115 77.2804 86.2945 77.2795 86.304 77.2795Z" fill="#C3C3C3"/>
<path d="M82.8118 71.5376C82.9199 70.8969 83.1377 70.423 83.4879 70.011C83.602 69.8769 83.7395 69.7806 83.9168 69.7551C84.1398 69.7229 84.3368 69.8839 84.3354 70.0936C84.3346 70.2018 84.3026 70.3024 84.2026 70.353C83.8447 70.5342 83.7472 70.8862 83.6339 71.2222C83.5853 71.3665 83.5659 71.5211 83.4839 71.6537C83.3805 71.8209 83.2082 71.8937 83.0516 71.84C82.8968 71.7869 82.8023 71.6153 82.8118 71.5376Z" fill="white"/>
<path d="M50.8227 24.7739C52.1198 24.8755 53.1694 25.3934 53.8102 26.5828C53.971 26.8811 54.103 27.195 54.2478 27.502C54.3185 27.6518 54.309 27.7996 54.2261 27.9407C54.1965 27.9922 54.1542 28.0353 54.1032 28.0659C54.0523 28.0965 53.9944 28.1136 53.935 28.1155C53.8756 28.1174 53.8166 28.1042 53.7638 28.0769C53.711 28.0497 53.666 28.0094 53.6331 27.9599C53.5952 27.9042 53.5696 27.8399 53.5407 27.7784C53.4466 27.579 53.3474 27.3816 53.2611 27.1788C52.8227 26.1485 51.9964 25.6657 50.9292 25.5316C50.5347 25.482 50.1505 25.5532 49.7813 25.7003C49.6872 25.7379 49.5979 25.7897 49.5014 25.8184C49.3546 25.8621 49.2132 25.808 49.1424 25.6971C49.0609 25.5692 49.0814 25.3935 49.1912 25.2757C49.3105 25.1479 49.4649 25.0714 49.6222 25.0109C50.0054 24.8634 50.4033 24.7802 50.8227 24.7739Z" fill="#E2E2E2"/>
<path d="M52.3942 35.3447C52.3959 34.9291 52.5014 34.6597 52.6602 34.4152C52.799 34.2011 52.9526 33.997 53.1199 33.8044C53.4995 33.3685 53.8897 32.9417 54.279 32.5143C54.4109 32.3694 54.5495 32.3456 54.6872 32.4282C54.8426 32.5214 54.9188 32.7039 54.8324 32.8667C54.7459 33.0298 54.6278 33.1784 54.51 33.3223C54.1653 33.7435 53.8113 34.1573 53.4663 34.5783C53.348 34.7227 53.2432 34.8771 53.1892 35.0619C53.1107 35.3308 53.1777 35.5305 53.4253 35.6623C53.5589 35.7333 53.7049 35.79 53.852 35.825C54.1983 35.9075 54.5379 36.0254 54.898 36.0431C54.9318 36.0448 54.9661 36.0483 54.9989 36.0564C55.1638 36.097 55.27 36.2204 55.2775 36.3774C55.285 36.5316 55.1939 36.6919 55.0446 36.7367C54.9332 36.7702 54.8072 36.7932 54.6941 36.7765C54.1558 36.6971 53.6209 36.5947 53.1237 36.3609C52.6473 36.137 52.4102 35.7525 52.3942 35.3447ZM60.2991 29.5838C61.1129 29.5768 61.7826 29.8972 62.346 30.4741C63.0806 31.2262 63.4402 32.1445 63.5693 33.1691C63.576 33.2197 63.5781 33.2709 63.5755 33.3219C63.5648 33.5101 63.4419 33.6504 63.2685 33.6771C63.1047 33.7022 62.9213 33.6014 62.8698 33.4255C62.8079 33.2138 62.7694 32.9947 62.729 32.7773C62.6074 32.1225 62.311 31.5582 61.8646 31.0672C61.3646 30.5172 60.7524 30.238 60.0035 30.2785C59.9186 30.283 59.8332 30.2972 59.7491 30.2912C59.6114 30.2813 59.4866 30.1689 59.4561 30.0431C59.4242 29.9112 59.4859 29.7773 59.6044 29.6893C59.7219 29.6022 59.8559 29.5902 59.9925 29.5846C60.0945 29.5804 60.1968 29.5838 60.2991 29.5838Z" fill="#DCDCDC"/>
</g>
<defs>
<clipPath id="clip0_21_172">
<rect width="96.0561" height="93.4364" fill="white" transform="translate(0.971962)"/>
</clipPath>
</defs>
</svg>
