<svg width="32" height="32" viewBox="0 0 32 32" fill="none" xmlns="http://www.w3.org/2000/svg">
<g opacity="0.22" clip-path="url(#clip0_21_363)">
<path d="M2.98721 10.4154C5.60282 8.41304 8.59005 10.6895 8.59005 10.6895C8.59005 10.6895 9.8477 7.94293 13.1077 7.81196M12.5622 12.6269C15.1778 10.6246 18.165 12.901 18.165 12.901C18.165 12.901 19.1175 9.26802 22.4113 9.23553M7.05681 22.2343C7.81733 22.5233 8.57784 22.8123 9.85823 22.3714C12.3205 21.5236 11.6423 19.5538 14.1045 18.7059C16.6653 17.8242 17.1466 19.8618 19.7074 18.9801C22.1697 18.1323 21.4914 16.1624 23.9537 15.3146C25.2341 14.8737 25.9946 15.1627 26.7551 15.4517M9.09161 28.1438C9.85213 28.4328 10.6126 28.7218 11.893 28.2809C14.3553 27.4331 13.6771 25.4633 16.1393 24.6154C18.7001 23.7337 19.1814 25.7713 21.7422 24.8896C24.2045 24.0417 23.5262 22.0719 25.9885 21.2241C27.2689 20.7832 28.0294 21.0722 28.7899 21.3612" stroke="white" stroke-linecap="round" stroke-linejoin="round"/>
</g>
<defs>
<clipPath id="clip0_21_363">
<rect width="25" height="25" fill="white" transform="translate(0 8.13916) rotate(-19)"/>
</clipPath>
</defs>
</svg>
