<svg width="98" height="109" viewBox="0 0 98 109" fill="none" xmlns="http://www.w3.org/2000/svg">
<path d="M42.4562 44.3545C42.5471 44.3612 42.5758 44.4296 42.6014 44.501C42.6511 44.5809 42.6433 44.6548 42.5782 44.7228C42.4517 44.699 42.3242 44.6768 42.26 44.5429C42.3253 44.48 42.3908 44.4172 42.4562 44.3545Z" fill="#C5BBBB"/>
<path d="M21.6561 90.7627C21.7495 90.8426 21.8211 90.9471 21.7102 91.0428C21.5977 91.14 21.5079 91.0653 21.4606 90.941C21.5762 90.9369 21.6123 90.8455 21.6561 90.7627Z" fill="white"/>
<path d="M89.1739 58.5397C89.162 56.9938 89.1749 55.4471 89.1253 53.9024C89.0534 51.657 88.1916 49.7478 86.5513 48.2037C85.9692 47.6557 85.3261 47.1845 84.6483 46.7593C81.791 44.9672 78.6855 43.7887 75.4083 43.0504C73.6557 42.6555 71.878 42.4062 70.078 42.3729C68.4316 42.3424 66.8081 42.058 65.1537 41.9834C65.1282 41.8674 65.094 41.773 65.0884 41.677C65.0406 40.853 65.07 40.0305 65.2019 39.2161C65.2775 38.7498 65.3832 38.2865 65.5063 37.8302C65.6214 37.4032 65.8312 37.0907 66.3474 37.0092C66.9242 36.918 67.3921 36.5596 67.8084 36.1517C68.4228 35.5497 68.8668 34.8321 69.2173 34.054C70.0028 32.3101 70.282 30.4805 70.096 28.5826C70.0252 27.8604 69.8411 27.1603 69.4972 26.5131C69.2105 25.9739 68.8308 25.5205 68.2707 25.245C68.1625 25.1918 68.0275 25.1721 68.0378 25.0062C69.3098 23.6594 71.1813 21.3517 72.1302 19.9579C72.5795 19.298 73.0018 18.6227 73.3 17.8777C73.8079 16.6082 74.0581 15.3018 73.8755 13.931C73.7549 13.0255 73.3925 12.2082 72.955 11.4216C72.1063 9.89563 71.1461 8.43945 70.1424 7.01249C69.5946 6.23375 68.9489 5.54137 68.1959 4.95474C67.2404 4.21029 66.156 3.83958 64.9437 3.80563C64.0496 3.78059 63.2135 3.98251 62.417 4.36647C61.3834 4.86462 60.3767 5.41304 59.474 6.12751C59.0354 6.47463 58.5448 6.57614 58.0069 6.56778C57.5128 6.56009 57.0971 6.34459 56.6824 6.11146C56.4104 5.95865 56.2122 5.75406 56.1073 5.45488C56.0416 5.2675 55.9644 5.08115 55.8677 4.9081C55.0709 3.48293 53.9233 2.59314 52.2291 2.55748C51.7294 2.54692 51.2342 2.59973 50.7452 2.7072C49.2656 3.03224 47.9239 3.66941 46.6715 4.50776C45.6549 5.18828 44.7041 5.95433 43.7724 6.74514C40.9173 9.16833 38.2453 11.7837 35.6562 14.4856C34.3615 15.8367 33.1468 17.2584 31.9772 18.7184C31.0727 19.8476 30.2202 21.0144 29.4832 22.2616C29.0522 22.9908 28.6478 23.7337 28.3115 24.5132C27.9525 25.3455 27.7319 26.2127 27.6733 27.1129C27.612 28.0543 27.7579 28.9634 28.3638 29.727C29.0026 30.5322 29.8149 30.9168 30.8637 30.6513C31.274 30.5471 31.688 30.4581 32.1049 30.3844C33.1381 30.2025 34.025 30.4933 34.761 31.2417C35.2164 31.7047 35.4521 32.273 35.5297 32.9069C35.5695 33.2311 35.6207 33.5523 35.749 33.85C36.0009 34.4345 36.4635 34.8797 37.2668 34.8357C37.5138 34.8221 37.7625 34.7813 38.0033 34.7237C38.6847 34.5604 39.3206 34.2754 39.9513 33.976C40.1951 33.8602 40.4184 33.6887 40.6996 33.6621C40.7869 33.7743 40.7507 33.8979 40.7422 34.015C40.6492 35.3073 40.574 36.6001 40.3919 37.8855C40.2834 38.6511 40.2704 39.4281 40.4823 40.1876C40.8055 41.3462 41.2952 42.4326 41.9147 43.4618C42.0942 43.76 42.2755 44.0569 42.456 44.3544C42.4766 44.4209 42.4832 44.4923 42.5267 44.5517C42.5282 44.552 42.5407 44.6181 42.5407 44.6181C42.5407 44.6181 42.4789 44.5917 42.4806 44.5923C42.407 44.581 42.3291 44.581 42.2598 44.5427C41.3683 44.1514 40.5212 43.6847 39.7452 43.0915C39.1751 42.6558 38.8671 42.0897 38.8171 41.3745C38.7946 41.0516 38.7421 40.7308 38.7129 40.4082C38.6471 39.6792 37.9554 39.1493 37.1376 39.3401C36.5564 39.4757 36.0736 39.7617 35.6902 40.2094C35.3091 40.6546 34.8521 40.9838 34.3125 41.2076C33.7908 41.424 33.3871 41.787 33.065 42.2454C32.979 42.3678 32.8959 42.4922 32.8123 42.6162C32.4847 43.1015 32.0813 43.4878 31.5214 43.7078C30.9535 43.9311 30.5 44.3219 30.1061 44.7831C29.9765 44.9347 29.8445 45.0844 29.7161 45.2371C29.2908 45.7428 28.7887 46.1369 28.1503 46.343C27.9853 46.3962 27.8274 46.4735 27.67 46.5479C26.9401 46.8925 26.5983 47.4856 26.5802 48.2775C26.5687 48.78 26.6553 49.2721 26.7912 49.7527C26.9912 50.4597 27.419 50.9904 28.0806 51.3217C28.2583 51.4107 28.4432 51.4849 28.6225 51.5707C28.7575 51.6354 28.8888 51.7079 29.0576 51.7954C26.8919 52.5598 25.1759 53.8313 23.7964 55.5756C22.7678 56.876 21.9439 58.2889 21.3796 59.8501C21.049 60.7648 20.782 61.6985 20.5866 62.6508C20.1657 64.7022 19.8255 66.7658 19.6279 68.8527C19.4393 70.8451 19.4645 72.8381 19.5991 74.8296C19.6933 76.2218 19.8384 77.6107 19.9774 78.9995C20.0915 80.1401 20.1965 81.2831 20.3643 82.4163C20.7768 85.2012 21.2233 87.981 21.656 90.7629C21.6945 90.936 21.6307 90.997 21.4604 90.9411C20.5178 90.1127 19.4683 89.4576 18.3266 88.9341C17.6168 88.6085 16.8875 88.3686 16.1179 88.2767C14.7866 88.1179 13.5185 88.3211 12.4345 89.1601C10.7971 90.4273 9.6268 92.0476 8.96583 94.0155C8.6578 94.9328 8.71829 95.8332 9.22886 96.6799C9.42632 97.0073 9.67612 97.2854 10.0272 97.4441C10.6173 97.7108 11.2162 97.9795 11.8619 98.0561C12.4333 98.1239 12.8867 98.3518 13.3236 98.721C14.2107 99.4707 15.189 100.057 16.4069 100.072C16.7472 100.076 17.0348 100.214 17.2932 100.422C17.5648 100.642 17.8221 100.88 18.1055 101.082C18.8327 101.601 19.6319 101.918 20.5438 101.874C21.7759 101.813 22.7912 101.29 23.6421 100.417C23.7376 100.319 23.7852 100.148 23.9921 100.183C24.1026 100.506 24.2133 100.836 24.3287 101.164C24.8076 102.527 25.2829 103.894 25.9551 105.175C27.0859 107.33 28.717 109.004 30.8897 110.125C32.0142 110.706 33.2264 111.036 34.4806 111.034C36.2976 111.031 38.0491 110.595 39.6525 109.743C41.9109 108.543 43.6953 106.848 44.7417 104.461C44.8116 104.301 44.8876 104.144 44.9616 103.987C45.056 103.786 45.1061 103.536 45.2576 103.397C45.442 103.227 45.6719 103.46 45.8892 103.469C46.0135 103.474 46.137 103.497 46.2612 103.507C47.5535 103.602 48.8445 103.73 50.1385 103.784C53.8506 103.941 57.5654 104.013 61.2803 104.043C62.9996 104.056 64.7205 104.074 66.4394 103.954C68.1553 103.834 69.8729 103.738 71.5907 103.649C73.2896 103.562 74.9593 103.29 76.604 102.871C78.1121 102.486 79.5276 101.888 80.7738 100.931C81.1717 100.626 81.5377 100.288 81.8396 99.8879C82.3209 99.2492 82.7132 98.5525 83.0798 97.846C83.4344 97.1623 83.71 96.4379 84.0505 95.7463C85.1231 93.5675 85.8283 91.2611 86.4423 88.9229C86.5623 88.4662 86.6513 87.9995 86.7241 87.5327C86.92 86.2775 87.1067 85.0208 87.2832 83.7629C87.4528 82.5537 87.6003 81.3415 87.7659 80.1319C88.043 78.1078 88.3131 76.0826 88.6122 74.0618C88.813 72.7054 89.022 71.3497 89.0984 69.9808C89.1706 68.6866 89.2181 67.3894 89.2206 66.0935C89.2261 63.5754 89.1932 61.0575 89.1739 58.5397ZM53.6802 7.6077C53.6923 7.56908 53.7411 7.5339 53.7816 7.51407C53.8704 7.47066 53.9266 7.53897 53.9418 7.60372C54.0144 7.91181 54.0751 8.22265 54.1401 8.53253C54.3934 8.94206 54.7167 9.27848 55.1509 9.49885C56.0475 9.65379 56.9189 9.56449 57.7667 9.23376C57.8336 9.20763 57.9115 9.20962 57.9844 9.19858C58.6865 8.85207 60.3843 8.00571 60.3843 8.00571C60.3979 7.99549 60.412 7.98685 60.4266 7.97923L60.5298 7.91448C60.5751 7.8974 61.2864 7.56819 61.2864 7.56819C61.2864 7.56819 61.3648 7.54377 61.362 7.54377C61.4122 7.46229 62.9402 7.04878 63.1487 7.10708L63.1491 7.10701H63.1488C63.6305 7.00694 64.0081 7.05536 64.5088 7.10721C64.6886 7.04391 64.8616 7.09048 65.0344 7.1402C65.1749 7.11928 65.3037 7.13787 65.4059 7.24823C66.0017 7.28959 66.5497 7.46503 67.0316 7.82663V7.82676L67.0317 7.82669C67.9331 8.28911 68.6577 8.95125 69.2361 9.77869L69.237 9.78335C69.2491 9.86682 69.3159 9.90489 69.375 9.94926C70.1223 10.8461 70.4913 11.8903 70.5794 13.0437L70.5795 13.0439C70.7251 13.4009 70.7314 13.7731 70.6981 14.1495C70.6528 14.2004 70.6742 14.262 70.6995 14.3002C70.759 14.9474 70.776 15.5945 70.6943 16.2413C70.6916 16.3413 70.689 16.4412 70.6864 16.5412C70.7162 16.7242 70.6962 16.8981 70.5913 17.0563L70.5429 17.4419C70.5755 17.6205 70.5383 17.7836 70.4336 17.9317C70.1985 19.4069 69.748 20.7909 68.7371 21.9375C68.7061 21.9849 68.6687 22.0279 68.626 22.0651L68.6082 22.0854C68.2695 22.6103 67.7825 22.9275 67.1876 23.0856C66.8065 23.187 66.4451 23.128 66.131 22.8855C65.9904 22.777 65.8938 22.6249 65.9605 22.4304C65.9742 22.3902 66.0218 22.3585 66.0594 22.3304C66.1097 22.2928 66.166 22.2998 66.1838 22.3532C66.2622 22.5867 66.4296 22.7165 66.6592 22.7753C66.9141 22.8406 67.1498 22.755 67.3845 22.673C67.6226 22.5899 67.8225 22.4436 68.0094 22.279C68.1571 22.1489 68.3003 22.0138 68.4456 21.8808C68.4702 21.7644 68.5505 21.6915 68.6431 21.6282C68.6785 21.5772 68.7172 21.5285 68.7588 21.4824L68.765 21.4734C68.8299 21.4271 68.8798 21.3699 68.8969 21.2892C69.646 20.056 69.9999 18.6861 70.2795 17.2906C70.2504 17.0817 70.286 16.8844 70.374 16.6965C70.3797 16.6823 70.3862 16.6681 70.3941 16.6543L70.4304 16.2451V14.1483C70.3813 13.9289 70.0819 12.0886 69.9768 11.7323C69.7851 11.0824 69.4134 10.5253 69.0559 9.96113C68.7981 9.69391 68.5433 9.42381 68.2819 9.1603C67.8251 8.70008 67.2884 8.34 66.7635 7.96565L65.3781 7.53485C65.3316 7.53283 65.2861 7.52039 65.245 7.49843L64.7052 7.38067L62.9478 7.38499C62.767 7.40234 62.2673 7.48246 62.2046 7.52032C62.2651 7.49521 61.2255 7.95104 60.799 8.11387C60.7189 8.14446 60.6419 8.18177 60.5681 8.2256C59.8377 8.65948 59.1085 9.09597 58.2914 9.35722C57.3017 9.83102 56.2754 10.065 55.1806 9.81655C55.0637 9.79001 54.9583 9.71325 54.8476 9.65982C54.4898 9.54336 54.2352 9.3125 54.0817 8.96943V8.96936C53.7884 8.64405 53.7185 8.23513 53.6588 7.82409C53.6482 7.75378 53.6589 7.67573 53.6802 7.6077ZM57.3952 22.6061C57.3577 22.2166 57.153 22.0237 56.7667 22.0146C56.4444 22.0072 56.1272 22.0647 55.8275 22.1978C55.5574 22.3178 55.2844 22.431 55.0126 22.5472C54.8362 22.681 54.6628 22.8189 54.482 22.9461C54.4235 22.9873 54.3408 23.0035 54.2835 22.9342C54.2306 22.8702 54.2398 22.7913 54.2903 22.7336C54.439 22.5636 54.6185 22.4352 54.8378 22.3691C55.3183 21.99 55.8754 21.7941 56.4717 21.7055C56.64 21.6804 56.8189 21.6913 56.9884 21.7162C57.3771 21.7735 57.6153 22.0197 57.6922 22.392C57.7419 22.6324 57.7351 22.8857 57.7414 23.1334C57.7471 23.357 57.717 23.5826 57.7368 23.8043C57.7681 24.155 57.8905 24.4302 58.3598 24.328C58.432 24.3123 58.508 24.3136 58.5823 24.3071L59.4837 23.8849L62.119 22.3592C62.2107 22.3524 62.2724 22.2989 62.3226 22.2277L62.3349 22.221C62.7142 21.8936 63.1566 21.6682 63.5982 21.4424C63.6859 21.3976 63.7906 21.3625 63.8459 21.4836C63.8987 21.5991 63.8077 21.6718 63.7258 21.7202C63.3628 21.935 62.995 22.1417 62.629 22.3513C61.7937 22.9266 60.9419 23.4738 60.0152 23.8942C59.9178 23.8952 59.8535 23.9512 59.7996 24.0243L59.7786 24.033C59.5178 24.2431 59.2135 24.3926 58.8879 24.4706C58.7021 24.612 58.483 24.6515 58.2593 24.6692C57.8073 24.7053 57.5574 24.5352 57.4556 24.0847C57.4072 23.8709 57.4138 23.6435 57.4069 23.4218C57.3982 23.15 57.4212 22.8759 57.3952 22.6061ZM39.5572 30.0955C39.2634 30.1527 38.7597 30.1115 38.307 30.0512C38.0218 30.0133 37.7534 29.8944 37.5335 29.7086C37.3137 29.5229 37.1517 29.278 37.0667 29.0031C36.9806 28.7247 36.9019 28.4605 36.8769 28.3477C36.8044 28.0202 36.7308 27.6927 36.6433 27.3689C36.6155 27.2664 36.5589 27.1115 36.4724 26.9573C36.3073 26.6629 36.0082 26.4701 35.6737 26.4252C35.2048 26.3623 34.749 26.424 34.2626 26.5363C34.0749 26.5796 33.0476 26.7248 32.921 26.7391C32.7109 26.8347 31.8593 26.776 31.7412 26.7457C31.4113 26.6756 31.2574 26.4404 31.1769 26.1393C31.1121 25.8968 31.1179 25.6516 31.1569 25.4053C31.2303 24.9407 31.767 23.733 31.8623 23.5624C32.7009 22.062 36.6665 17.1173 37.1755 16.6683C37.3509 16.4611 37.519 16.2474 37.7028 16.048C39.2194 14.4023 40.8295 12.8496 42.4506 11.3086C42.9342 10.8489 46.6667 7.27141 46.8876 7.21483C46.9261 7.20502 46.9861 7.2378 47.0106 7.26997C47.0329 7.29933 47.0607 7.35927 47.0404 7.37745C46.9156 7.48883 46.7607 7.60742 46.6294 7.71147C45.8868 8.42114 43.7552 10.4863 43.5806 10.658C42.0221 12.1905 40.4572 13.7165 38.9025 15.2527C38.374 15.775 37.869 16.3209 37.3532 16.8561C36.8347 17.4532 35.4448 19.041 35.4085 19.0981L35.4078 19.1C35.3656 19.1318 34.6892 19.9395 34.6676 20.014C34.511 20.2342 34.3624 20.4607 34.1965 20.6735C33.2985 21.8245 32.4984 23.0391 31.8049 24.3238C31.7209 24.5758 31.619 24.8234 31.5567 25.0807C31.4472 25.5322 31.3592 25.9899 31.6738 26.4075C31.7402 26.5247 31.8705 26.5308 31.9727 26.5505L32.6472 26.5432C32.7087 26.5303 32.7972 26.5422 32.8581 26.5267C32.9844 26.5221 35.0127 26.085 35.4983 26.1341C35.9806 26.183 36.2922 26.4073 36.6948 26.7628C36.7548 26.8158 36.799 26.8877 36.8285 26.9622C36.9122 27.1722 36.9896 27.3847 37.0605 27.5994C37.1929 28.0036 37.354 29.0863 37.4446 29.1023C37.8765 29.7817 38.5295 29.9165 39.2615 29.8164C39.8519 29.7356 40.4248 29.5712 40.9628 29.3133C41.6078 29.004 42.2416 28.6715 42.8802 28.349C42.9234 28.3151 43.7661 27.7645 43.7661 27.7645V27.7644C43.766 27.7645 43.8675 27.6848 43.9138 27.6549C43.9991 27.5684 48.9951 23.4007 48.9951 23.4007C48.995 23.4006 49.2086 23.1439 49.3005 23.2354C49.3805 23.315 49.356 23.4091 49.2918 23.4891C49.2639 23.5239 46.7458 25.8342 46.7458 25.8342C46.6961 25.8636 46.6604 25.9 46.6274 25.9352C46.5577 26.0315 45.7161 26.7281 45.4305 26.8853C45.3772 26.9192 45.3279 26.959 45.2835 27.004L45.2527 27.0245C45.1885 27.1093 44.6442 27.5421 44.4179 27.6392C44.3655 27.6638 44.2239 27.7776 44.2239 27.7776C44.1776 27.818 43.2304 28.4521 43.1783 28.4839C43.1548 28.528 40.7641 29.8607 39.5572 30.0955ZM41.4391 40.6738C41.1361 39.8362 41.025 38.9833 41.1462 38.1021C41.3127 36.8916 41.4349 35.6785 41.4293 34.4544C41.4278 34.1313 41.4919 33.8066 41.4758 33.4851C41.4634 33.2346 41.5896 33.1275 41.773 33.0275C42.3846 32.6942 43.0062 32.3771 43.6018 32.0172C44.1551 31.6829 44.6994 31.3268 45.2123 30.9342C45.747 30.525 46.3339 30.411 46.9718 30.5012C47.7947 30.6177 48.5713 30.8701 49.2443 31.3814C49.3032 31.4261 49.3578 31.4794 49.4226 31.513C49.5658 31.5874 49.7113 31.5873 49.8388 31.4773C49.9701 31.364 49.9634 31.212 49.9239 31.0645C49.8685 30.8571 49.701 30.7353 49.5348 30.6287C48.9866 30.2769 48.4009 30.0066 47.7618 29.8636C47.4949 29.804 47.2271 29.7488 46.8364 29.6651C47.3021 29.312 47.6524 29.0374 48.012 28.7754C49.623 27.6015 51.2923 26.513 52.9554 25.4158C53.1835 25.2653 53.4229 25.1294 53.6672 25.007C53.8439 24.9184 54.032 24.83 54.2242 24.7994C54.8857 24.694 54.9709 24.795 54.8026 25.3886C54.7484 25.58 54.6671 25.7643 54.6207 25.9573C54.5862 26.1003 54.5661 26.2538 54.578 26.3996C54.615 26.8542 54.9246 27.1367 55.3774 27.1006C55.6474 27.0791 55.9178 27.0085 56.1779 26.9276C56.7001 26.7653 57.2233 26.6009 57.732 26.4013C58.7971 25.9833 59.8528 25.5412 60.9131 25.1106C61.6066 24.8289 62.2566 24.4623 62.909 24.0992C63.1039 23.9908 63.3028 23.8789 63.5137 23.8124C63.8519 23.7057 64.0912 23.8641 64.182 24.2081C64.2736 24.5548 64.2282 24.9001 64.1883 25.2474C64.131 25.7453 64.1215 26.24 64.2709 26.729C64.3543 27.0016 64.487 27.2306 64.7281 27.3885C64.937 27.5255 65.1572 27.5043 65.3297 27.3136C65.4799 27.1477 65.6092 26.9629 65.7555 26.7933C66.0508 26.4511 66.3813 26.1516 66.8025 25.9679C67.3979 25.7082 67.9154 25.8025 68.3753 26.2603C68.626 26.5099 68.7992 26.8105 68.9384 27.1339C69.1673 27.6654 69.2989 28.2235 69.3472 28.7953C69.4972 30.5697 69.1997 32.2708 68.4476 33.8864C68.1517 34.5221 67.7821 35.1143 67.27 35.6023C66.827 36.0246 66.3369 36.3551 65.6813 36.2994C65.4144 36.2768 65.2797 36.4288 65.1724 36.6503C64.879 37.2562 64.6199 37.8731 64.4258 38.5197C63.3587 42.0761 61.3935 45.05 58.5626 47.4435C57.1591 48.6302 55.5803 49.5146 53.787 49.9789C52.0541 50.4276 50.3414 50.4048 48.6451 49.7801C48.3818 49.6832 48.2331 49.5437 48.1293 49.3011C48.0219 49.05 47.897 48.8046 47.7611 48.5675C47.2444 47.6655 46.556 46.9227 45.6772 46.3618C45.4884 46.2412 45.2916 46.133 45.1039 46.0109C44.6219 45.6971 44.1708 45.3446 43.8201 44.8834C42.8355 43.5887 41.9957 42.2128 41.4391 40.6738ZM62.9794 51.3723C62.5184 52.1427 61.9898 52.866 61.4102 53.5529C60.5415 54.5823 59.6342 55.5738 58.6268 56.4705C58.2344 56.8197 57.8202 57.139 57.3398 57.357C56.2395 57.8564 55.181 57.8236 54.1491 57.14C53.2455 56.5413 52.473 55.8122 51.8046 54.9651C51.6504 54.7695 51.4942 54.5755 51.3359 54.3832C50.7427 53.6622 50.0658 53.0489 49.174 52.7149C48.944 52.6288 48.8305 52.4833 48.8058 52.2209C48.7615 51.7509 48.6662 51.286 48.5979 50.8181C48.5792 50.6895 48.667 50.6352 48.777 50.6585C49.2385 50.7563 49.6943 50.8866 50.159 50.964C51.797 51.2367 53.383 50.9867 54.9311 50.4371C56.4489 49.8984 57.806 49.076 59.0455 48.0556C61.0556 46.4008 62.6046 44.376 63.8197 42.0849C63.9247 41.8871 64.029 41.689 64.1361 41.4923C64.1447 41.4765 64.1725 41.4709 64.3052 41.3983C64.3829 43.1005 64.4724 44.7406 64.5289 46.3817C64.5924 48.2203 63.8991 49.8353 62.9794 51.3723ZM28.5541 50.6974C27.9369 50.4052 27.5886 49.9303 27.4706 49.2747C27.4177 48.9808 27.3718 48.683 27.3586 48.3853C27.334 47.8341 27.5433 47.3943 28.0936 47.2155C29.2059 46.8543 30.0431 46.1443 30.7445 45.2358C31.0379 44.8558 31.423 44.5699 31.8718 44.395C32.5517 44.1301 33.0624 43.6659 33.4379 43.061C33.8204 42.4448 34.3199 41.9951 34.998 41.73C35.4978 41.5346 35.87 41.1613 36.2229 40.7698C36.512 40.4491 36.8413 40.1962 37.2813 40.1115C37.6835 40.034 37.8928 40.168 37.9522 40.586C38.0013 40.9314 38.0303 41.2796 38.0691 41.6265C38.1564 42.4053 38.4981 43.0473 39.0959 43.5561C39.5342 43.9293 40.0036 44.2581 40.5134 44.5227C41.5737 45.0732 42.6346 45.6231 43.7077 46.1476C44.2239 46.3999 44.7233 46.6768 45.2067 46.9836C46.6095 47.8738 47.4375 49.173 47.792 50.7681C48.1019 52.1627 48.1452 53.5793 48.0501 55.0079C47.9639 56.3033 47.7497 57.5819 47.6263 58.8717C47.5872 59.2804 47.5755 59.2782 47.1372 59.3998C46.1667 59.6691 45.1666 59.675 44.2031 59.7388C43.1502 59.6977 42.133 59.6289 41.1434 59.3359C40.9077 59.2662 40.7684 59.1536 40.6861 58.9072C40.4262 58.1283 40.1346 57.3599 39.8575 56.5867C39.3924 55.2885 38.5922 54.2148 37.5872 53.2959C36.5483 52.3461 35.2849 51.8355 33.9194 51.56C32.6953 51.3131 31.448 51.2528 30.2107 51.1122C29.6399 51.0474 29.0834 50.9478 28.5541 50.6974ZM23.4845 99.2952C22.727 100.531 21.6176 101.12 20.1806 101.096C19.8026 101.089 19.4515 100.956 19.0972 100.727C19.4968 99.7479 20.0403 98.9208 21.0595 98.5008C21.1506 98.4633 21.2408 98.4149 21.3178 98.3543C21.4219 98.2724 21.4714 98.151 21.4368 98.0223C21.4034 97.8981 21.3128 97.8103 21.1846 97.7708C20.9523 97.6993 20.7398 97.7731 20.5373 97.8732C20.0838 98.0975 19.7019 98.4145 19.3802 98.8035C19.0938 99.1495 18.8513 99.5296 18.658 99.935C18.5939 100.07 18.5558 100.218 18.411 100.315C17.7775 99.8557 17.2285 99.2137 16.3477 99.3056C16.2599 99.072 16.379 98.9246 16.4481 98.7813C16.8609 97.9246 17.3159 97.0981 18.1377 96.5466C18.3156 96.4272 18.344 96.2342 18.2479 96.0909C18.1213 95.9022 17.9204 95.8238 17.732 95.8967C17.5176 95.9798 17.3539 96.1341 17.1951 96.2939C16.5881 96.904 16.1606 97.6311 15.8169 98.4121C15.7181 98.6364 15.6308 98.8659 15.5201 99.1376C14.8379 98.9021 14.3345 98.5373 13.8405 98.1578C13.7223 98.067 13.6216 97.9537 13.5062 97.8588C13.0393 97.4747 13.0429 97.4776 13.2477 96.9543C13.5184 96.2627 13.9759 95.7121 14.5272 95.2303C14.6585 95.1156 14.804 95.0159 14.9261 94.8925C15.0164 94.8011 15.0475 94.6732 14.9885 94.5478C14.9332 94.4304 14.8407 94.3521 14.7069 94.3271C14.4891 94.2863 14.3202 94.3806 14.164 94.5149C13.5724 95.0238 13.057 95.5932 12.736 96.3165C12.6754 96.4531 12.6126 96.589 12.5599 96.7287C12.3089 97.3928 12.3084 97.3993 11.6137 97.2095C11.3505 97.1376 11.0955 97.0346 10.8394 96.9389C9.92646 96.5978 9.47454 95.878 9.57955 94.91C9.61165 94.6141 9.67283 94.323 9.77687 94.0377C10.3724 92.404 11.3701 91.0565 12.6857 89.9384C13.5702 89.1867 14.6209 88.9328 15.7556 89.0199C16.5047 89.0773 17.2196 89.2837 17.9114 89.5904C19.2929 90.203 20.4971 91.0796 21.6651 92.0198C21.8768 92.1902 21.985 92.3871 22.0461 92.6364C22.4553 94.3052 22.8666 95.9735 23.28 97.6413C23.3698 98.0039 23.468 98.3643 23.5649 98.7251C23.6194 98.9277 23.5986 99.1091 23.4845 99.2952ZM88.4623 64.8738C88.4299 66.4944 88.4137 68.1161 88.3373 69.7348C88.2726 71.104 88.0681 72.4614 87.8651 73.818C87.5628 75.8387 87.2932 77.8644 87.0155 79.8886C86.853 81.0738 86.7093 82.2616 86.5436 83.4463C86.3645 84.7293 86.1756 86.011 85.977 87.2913C85.8967 87.8075 85.8077 88.3259 85.6713 88.8294C85.0593 91.0904 84.3837 93.3295 83.3392 95.4395C82.8975 96.3318 82.496 97.244 82.0572 98.1378C81.6114 99.0459 80.9973 99.8151 80.1687 100.417C79.0002 101.266 77.6939 101.792 76.3077 102.144C74.8797 102.508 73.4299 102.752 71.9607 102.851C69.9954 102.983 68.0292 103.113 66.0613 103.19C63.4695 103.291 60.8755 103.284 58.2822 103.223C56.0882 103.171 53.8944 103.116 51.7003 103.069C49.9543 103.031 48.215 102.888 46.4751 102.753C46.1777 102.73 45.8796 102.707 45.6038 102.566C45.5078 102.446 45.5856 102.329 45.621 102.221C46.2274 100.368 46.5928 98.4596 46.8964 96.5398C47.0949 95.2849 47.2654 94.0243 47.4036 92.7614C47.5608 91.3246 47.7035 89.8844 47.789 88.4419C47.9394 85.9031 48.039 83.3613 48.1649 80.8211C48.2676 78.754 48.377 76.6873 48.4849 74.6204C48.5214 73.922 48.5229 73.2253 48.4309 72.5296C48.3702 72.0715 48.1899 71.6684 47.9092 71.3079C47.808 71.178 47.6297 71.1485 47.5093 71.2248C47.3649 71.3162 47.3254 71.4542 47.3488 71.6117C47.3595 71.6837 47.3831 71.76 47.4221 71.8207C47.7505 72.3329 47.7659 72.9093 47.7399 73.483C47.6396 75.6997 47.5217 77.9157 47.4155 80.1322C47.3594 81.3026 47.3361 82.4739 47.2571 83.6441C47.116 85.7336 47.0552 87.8287 46.8977 89.9167C46.6408 93.3243 46.1981 96.7092 45.4223 100.042C45.0088 101.818 44.4306 103.536 43.5145 105.13C43.0239 105.983 42.4099 106.718 41.6861 107.382C39.9968 108.933 37.9999 109.815 35.7578 110.172C34.1819 110.423 32.669 110.157 31.2566 109.44C29.1668 108.379 27.5989 106.766 26.5722 104.668C25.5409 102.56 24.794 100.338 24.1923 98.0724C23.7194 96.2916 23.2844 94.5005 22.8491 92.71C22.5193 91.3533 22.3087 89.9731 22.096 88.5943C21.7654 86.452 21.4244 84.3111 21.1189 82.1653C20.9538 81.0061 20.8417 79.839 20.7266 78.6734C20.5892 77.2842 20.4489 75.8945 20.3558 74.502C20.2308 72.6347 20.2176 70.7668 20.4031 68.8988C20.6275 66.6388 20.9816 64.4009 21.4895 62.1889C22.0507 59.7448 23.0998 57.5391 24.7539 55.6324C25.7667 54.465 26.9589 53.5398 28.3652 52.9069C29.4891 52.4011 30.6905 52.0832 31.9122 52.1009C33.4662 52.1234 34.9872 52.4463 36.326 53.3124C37.4854 54.0623 38.3377 55.0977 38.9096 56.3457C39.2929 57.1823 39.6093 58.0499 39.9437 58.9083C40.033 59.1377 40.0688 59.3875 40.1478 59.6217C40.1854 59.7332 40.1457 59.8103 40.1018 59.8989C39.5413 61.033 39.3626 62.2704 39.1363 63.4939C38.9823 64.3267 38.85 65.1636 38.6997 65.9971C38.6556 66.2415 38.5973 66.4855 38.5203 66.7215C38.2502 67.5504 37.7134 68.1399 36.9047 68.4759C36.6061 68.5999 36.2996 68.7082 36.0099 68.8502C35.2238 69.2354 34.8167 69.8699 34.7746 70.7496C34.7515 71.2316 34.8033 71.694 34.9965 72.138C35.0561 72.275 35.0991 72.4215 35.1739 72.5495C35.5513 73.1948 35.4157 73.7838 35.0177 74.3669C34.6234 74.9445 34.206 75.503 33.7476 76.0301C32.157 77.8589 30.7189 79.7996 29.4721 81.8786C28.2781 83.8695 27.2416 85.9359 26.4908 88.14C26.0622 89.398 25.8092 90.689 25.6788 92.0069C25.6126 92.6764 25.5534 93.3468 25.5082 94.018C25.4899 94.2898 25.4938 94.567 25.5863 94.8319C25.6809 95.1031 25.8855 95.253 26.0704 95.1857C26.287 95.1067 26.4247 94.8867 26.3296 94.6458C26.213 94.3505 26.2166 94.0593 26.2521 93.7639C26.3768 92.7249 26.4851 91.6827 26.6517 90.6501C26.9315 88.9146 27.5671 87.2904 28.308 85.7074C29.7205 82.6891 31.5094 79.91 33.6488 77.3548C34.2088 76.686 34.7581 76.0076 35.2918 75.3176C35.5345 75.0037 35.7546 74.6651 35.9361 74.3126C36.236 73.7303 36.2649 73.1209 36.0006 72.5089C35.892 72.2576 35.793 72.0021 35.6842 71.7508C35.5625 71.4699 35.5325 71.1778 35.5392 70.8741C35.5532 70.2393 35.821 69.7746 36.4127 69.5168C36.6409 69.418 36.8708 69.323 37.1022 69.232C38.247 68.7791 38.9786 67.9601 39.3121 66.7741C39.5083 66.0763 39.6211 65.3631 39.734 64.6501C39.9016 63.5916 40.0754 62.535 40.3434 61.4963C40.3932 61.3034 40.4378 61.1075 40.5096 60.9226C40.6171 60.6461 40.6811 60.3036 40.8836 60.1258C41.1248 59.9138 41.4426 60.1826 41.7238 60.2443C42.9032 60.5034 44.0908 60.5628 45.2923 60.4643C46.0123 60.4053 46.7224 60.2819 47.4582 60.1572C47.5973 60.5215 47.5982 60.819 47.5586 61.1175C47.4295 62.093 47.4454 63.0536 47.7688 63.9995C47.8921 64.3601 47.8261 64.735 47.7309 65.1053C47.6127 65.5633 47.5147 66.0263 47.4371 66.4929C47.3845 66.8112 47.3762 67.1388 47.4453 67.4593C47.4857 67.6471 47.6438 67.756 47.8283 67.7411C47.9959 67.7276 48.1128 67.6388 48.1485 67.4778C48.1806 67.3331 48.1935 67.1821 48.1962 67.0335C48.2062 66.5071 48.2713 65.9902 48.43 65.4865C48.6379 64.827 48.6648 64.1707 48.4391 63.504C48.2362 62.905 48.2167 62.2818 48.265 61.6545C48.3052 61.1327 48.3541 60.6097 48.216 60.0924C48.1974 60.0228 48.1699 59.9363 48.1944 59.8775C48.499 59.1464 48.4282 58.3564 48.553 57.5976C48.7636 56.3174 48.8645 55.0243 48.8693 53.7251C48.87 53.5317 48.9814 53.4691 49.1591 53.5518C49.5009 53.711 49.8037 53.9273 50.0822 54.1806C50.4902 54.5516 50.8322 54.9801 51.1698 55.4129C51.8964 56.3442 52.741 57.1454 53.7318 57.796C54.9888 58.6215 56.2924 58.666 57.6416 58.07C58.1467 57.8469 58.5976 57.5331 59.0076 57.1646C60.6273 55.709 62.0871 54.1121 63.3092 52.3037C63.8841 51.4528 64.3299 50.5373 64.724 49.5926C65.1337 48.6108 65.3137 47.5834 65.3029 46.5284C65.293 45.5566 65.2243 44.5855 65.1903 43.6139C65.1544 42.5882 65.0183 42.6908 66.0869 42.7699C66.8313 42.825 67.5686 42.9707 68.3123 43.0416C68.9817 43.1055 69.6555 43.1257 70.3276 43.1595C73.0543 43.2969 75.7141 43.77 78.3014 44.6635C80.404 45.3895 82.4347 46.2552 84.3108 47.4626C84.8784 47.8279 85.4189 48.2266 85.9205 48.6775C87.4877 50.0866 88.2899 51.8644 88.3548 53.9524C88.4114 55.7715 88.4179 57.5935 88.3901 59.4134C88.3625 61.2352 88.4986 63.0532 88.4623 64.8738Z" fill="white"/>
<path d="M42.5781 44.7233L42.6012 44.5015C42.6445 44.5546 42.6978 44.6029 42.7264 44.663C42.7392 44.6898 42.7132 44.7544 42.6849 44.7766C42.6426 44.81 42.5986 44.7816 42.5781 44.7233Z" fill="white"/>
<path d="M66.5379 86.2778C66.9865 86.2832 67.4343 86.3164 67.8788 86.3772C68.8715 86.5129 69.639 87.0266 70.3033 87.7354C70.4587 87.9013 70.587 88.0833 70.6145 88.3179C70.6301 88.4501 70.5954 88.5729 70.49 88.6512C70.3578 88.7494 70.1996 88.7436 70.0711 88.6518C69.9734 88.5822 69.9034 88.4727 69.8246 88.378C69.227 87.6587 68.4937 87.207 67.538 87.1145C66.9382 87.0564 66.3453 87.059 65.7478 87.1023C64.0287 87.2269 62.3388 87.5399 60.6648 87.9293C57.8295 88.589 55.0042 89.2921 52.2262 90.168C51.349 90.4446 50.4876 90.7708 49.6178 91.0711C49.2419 91.2014 48.864 91.3261 48.4844 91.4451C48.3676 91.4815 48.2417 91.5009 48.1193 91.5045C47.9456 91.5097 47.771 91.356 47.7536 91.1915C47.7358 91.0233 47.8317 90.9099 47.9676 90.8333C48.0303 90.798 48.1087 90.7914 48.1792 90.769C48.4866 90.6712 48.8029 90.5945 49.0994 90.4704C51.4023 89.507 53.8022 88.8525 56.2123 88.2327C57.7064 87.8486 59.2046 87.4802 60.7064 87.1276C62.2835 86.757 63.8788 86.4845 65.4931 86.3348C65.8401 86.3027 66.1896 86.2961 66.5379 86.2778Z" fill="white"/>
<path d="M68.9347 74.0191C68.932 70.9758 69.0894 68.5162 69.5108 66.0777C69.5828 65.661 69.6726 65.2469 69.768 64.8349C69.7949 64.7187 69.8516 64.5965 69.9298 64.5082C70.0358 64.3885 70.1899 64.3694 70.3409 64.4337C70.4999 64.5013 70.5691 64.6376 70.5327 64.7962C69.8995 67.557 69.7377 70.3662 69.7252 73.1833C69.7173 74.9515 69.7571 76.7235 69.9756 78.4835C70.037 78.9776 70.1267 79.4682 70.1973 79.9612C70.229 80.1824 70.2588 80.4054 70.2656 80.6282C70.2714 80.8144 70.1251 80.9734 69.9634 80.9987C69.8101 81.0226 69.6158 80.9029 69.5567 80.7343C69.5241 80.6413 69.5136 80.5407 69.494 80.4433C69.3024 79.4894 69.1631 78.5258 69.0978 77.5573C69.0057 76.1897 68.9697 74.8184 68.9347 74.0191Z" fill="white"/>
<path d="M53.6792 45.7192C53.0836 45.7368 52.4516 45.6087 51.8269 45.4368C51.3419 45.3033 50.9071 45.0662 50.5111 44.7595C50.2927 44.5904 50.1195 44.3846 50.0105 44.1226C49.9208 43.907 49.897 43.69 49.9367 43.4663C49.9795 43.2244 50.2138 43.0314 50.4011 43.0686C50.6116 43.1102 50.8579 43.3507 50.7813 43.5457C50.612 43.976 50.8741 44.1426 51.157 44.3013C51.4151 44.4461 51.6854 44.585 51.9674 44.6684C53.7352 45.1907 55.4053 44.9802 56.9568 43.959C57.1019 43.8635 57.24 43.7544 57.3937 43.6756C57.5346 43.6034 57.6839 43.6204 57.8034 43.7408C57.9227 43.8611 57.9473 44.0874 57.8289 44.2166C57.6962 44.3612 57.5488 44.5005 57.385 44.6072C56.2774 45.3286 55.0722 45.7404 53.6792 45.7192Z" fill="white"/>
<path d="M50.5069 38.4285C50.4833 38.1431 50.5827 37.8323 50.6975 37.5322C50.954 36.8612 51.268 36.2117 51.4361 35.5081C51.4527 35.4388 51.4955 35.3699 51.5427 35.3151C51.6435 35.1975 51.7703 35.1107 51.931 35.1776C52.0786 35.2391 52.1831 35.3601 52.1475 35.5273C52.0859 35.8177 52.0131 36.1071 51.9209 36.3891C51.7901 36.7895 51.6295 37.1801 51.497 37.58C51.4115 37.8378 51.3182 38.101 51.2905 38.3682C51.2304 38.9499 51.5651 39.2638 52.1363 39.1904C52.707 39.117 53.2438 38.928 53.7659 38.6911C53.9221 38.6202 54.0835 38.5539 54.2494 38.5132C54.3752 38.4823 54.4931 38.5367 54.5639 38.6575C54.633 38.7756 54.6287 38.903 54.5559 39.0092C54.4877 39.1086 54.4027 39.2111 54.3008 39.2702C53.5818 39.6863 52.7997 39.9372 51.9772 39.9981C51.1412 40.0601 50.5147 39.3761 50.5069 38.4285Z" fill="white"/>
<path d="M56.051 27.4189C56.6845 27.4222 57.2747 27.581 57.8231 27.901C58.3884 28.2309 58.8462 28.6849 59.2768 29.1661C59.5094 29.426 59.5091 29.684 59.32 29.8242C59.1538 29.9475 58.9456 29.9074 58.7242 29.7005C58.4163 29.4127 58.1336 29.0934 57.8026 28.8358C56.8309 28.0797 55.7706 28.0015 54.6517 28.4847C54.3706 28.6061 54.1558 28.8078 53.9381 29.0115C53.8421 29.1013 53.723 29.1306 53.5949 29.0824C53.4363 29.0227 53.3368 28.8007 53.4016 28.6528C53.5048 28.417 53.6868 28.247 53.8892 28.1015C54.534 27.6377 55.2593 27.4209 56.051 27.4189Z" fill="white"/>
<path d="M47.5052 32.0492C47.1329 31.8403 46.7213 31.8842 46.402 32.17C46.2326 32.3216 46.1018 32.5044 46.0234 32.7168C45.8507 33.1846 45.7126 33.6612 45.7171 34.2103C45.6962 34.5218 45.7687 34.8623 45.9003 35.1872C46.1528 35.8101 46.6774 36.1624 47.2807 36.1315C47.974 36.096 48.5191 35.6715 48.7109 35.0175C49.023 33.9535 48.4691 32.5898 47.5052 32.0492ZM47.3339 34.4081C47.3032 34.5653 47.2219 34.6816 47.067 34.7355C46.9182 34.7873 46.7221 34.7016 46.624 34.5467C46.4856 34.3283 46.4515 34.0856 46.4565 33.9065C46.4613 33.4631 46.5744 33.2571 46.7821 33.2419C46.9617 33.2287 47.1135 33.3712 47.2139 33.6826C47.2894 33.9166 47.3841 34.1514 47.3339 34.4081ZM48.0227 34.8018C47.8935 34.7555 47.8155 34.6005 47.8449 34.4472C47.8662 34.3356 47.9587 34.2994 48.0451 34.2581C48.1501 34.2726 48.2719 34.4617 48.2682 34.6027C48.2652 34.7241 48.1244 34.8381 48.0227 34.8018Z" fill="white"/>
<path d="M58.0512 32.2262C57.9186 31.759 57.6931 31.3508 57.3916 30.9825C57.1086 30.6367 56.7309 30.558 56.3111 30.6783C55.9804 30.773 55.7532 30.9967 55.5975 31.2965C55.3985 31.6797 55.3022 32.0879 55.3077 32.5208C55.3211 33.0582 55.4555 33.5574 55.8139 33.9709C56.323 34.5585 57.1324 34.5575 57.6354 33.9626C58.0612 33.4589 58.2407 32.8936 58.0512 32.2262ZM56.5994 32.8142C56.5638 32.8926 56.4887 32.9742 56.3725 32.975C56.2622 32.9757 56.176 32.9192 56.1278 32.8382C55.9467 32.5332 55.8575 32.21 55.9855 31.8567C56.0415 31.7021 56.1481 31.6115 56.3108 31.61C56.4474 31.6088 56.5485 31.7017 56.5882 31.8168C56.6514 31.9997 56.6808 32.1941 56.7195 32.3619C56.6764 32.5343 56.6585 32.6836 56.5994 32.8142ZM57.2883 33.3164C57.149 33.3094 57.0914 33.2057 57.1059 33.0652C57.117 32.9575 57.1719 32.8722 57.2788 32.8823C57.4163 32.8952 57.4625 33.0102 57.4748 33.1235C57.464 33.2512 57.3827 33.3212 57.2883 33.3164Z" fill="white"/>
</svg>
