<svg width="20" height="20" viewBox="0 0 20 20" fill="none" xmlns="http://www.w3.org/2000/svg">
<path d="M4.29834 9.5758C4.2375 10.7391 4.3075 11.9775 3.26834 12.7566C3.02942 12.9354 2.83555 13.1675 2.70216 13.4344C2.56877 13.7014 2.49955 13.9957 2.5 14.2941C2.5 15.125 3.15167 15.8333 4 15.8333H16C16.8483 15.8333 17.5 15.125 17.5 14.2941C17.5 13.6891 17.215 13.1191 16.7317 12.7566C15.6925 11.9775 15.7625 10.7391 15.7017 9.5758C15.6267 8.11421 14.9933 6.73722 13.9322 5.72922C12.8712 4.72122 11.4635 4.15918 10 4.15918C8.53648 4.15918 7.12885 4.72122 6.0678 5.72922C5.00675 6.73722 4.37333 8.11421 4.29834 9.5758Z" stroke="#1D1D1D" stroke-width="1.5" stroke-linecap="round" stroke-linejoin="round"/>
<path d="M12.5 15.8337C12.5 16.4967 12.2366 17.1326 11.7678 17.6014C11.2989 18.0703 10.663 18.3337 10 18.3337C9.33696 18.3337 8.70107 18.0703 8.23223 17.6014C7.76339 17.1326 7.5 16.4967 7.5 15.8337M8.75 2.60449C8.75 3.29449 9.31 4.16699 10 4.16699C10.69 4.16699 11.25 3.29449 11.25 2.60449C11.25 1.91449 10.69 1.66699 10 1.66699C9.31 1.66699 8.75 1.91449 8.75 2.60449Z" stroke="#1D1D1D" stroke-width="1.5" stroke-linecap="round" stroke-linejoin="round"/>
</svg>
