<svg width="20" height="20" viewBox="0 0 20 20" fill="none" xmlns="http://www.w3.org/2000/svg">
<path d="M2.72917 12.7466C2.02083 11.8266 1.66667 11.3658 1.66667 9.99992C1.66667 8.63325 2.02083 8.17409 2.72917 7.25325C4.14333 5.41659 6.515 3.33325 10 3.33325C13.485 3.33325 15.8567 5.41659 17.2708 7.25325C17.9792 8.17492 18.3333 8.63409 18.3333 9.99992C18.3333 11.3666 17.9792 11.8258 17.2708 12.7466C15.8567 14.5833 13.485 16.6666 10 16.6666C6.515 16.6666 4.14333 14.5833 2.72917 12.7466Z" stroke="#C5C5CE" stroke-width="1.5"/>
<path d="M12.5 10C12.5 10.663 12.2366 11.2989 11.7678 11.7678C11.2989 12.2366 10.663 12.5 10 12.5C9.33696 12.5 8.70107 12.2366 8.23223 11.7678C7.76339 11.2989 7.5 10.663 7.5 10C7.5 9.33696 7.76339 8.70107 8.23223 8.23223C8.70107 7.76339 9.33696 7.5 10 7.5C10.663 7.5 11.2989 7.76339 11.7678 8.23223C12.2366 8.70107 12.5 9.33696 12.5 10Z" stroke="#C5C5CE" stroke-width="1.5"/>
</svg>
