<svg width="20" height="20" viewBox="0 0 20 20" fill="none" xmlns="http://www.w3.org/2000/svg">
<path fill-rule="evenodd" clip-rule="evenodd" d="M17.75 10C17.75 14.2802 14.2802 17.75 10 17.75C5.71979 17.75 2.25 14.2802 2.25 10C2.25 5.71979 5.71979 2.25 10 2.25C14.2802 2.25 17.75 5.71979 17.75 10ZM19 10C19 14.9706 14.9706 19 10 19C5.02944 19 1 14.9706 1 10C1 5.02944 5.02944 1 10 1C14.9706 1 19 5.02944 19 10ZM12.8571 7.57143C12.8571 7.25584 13.113 7 13.4286 7C13.7442 7 14 7.25584 14 7.57143V12.4286C14 12.7442 13.7442 13 13.4286 13C13.113 13 12.8571 12.7442 12.8571 12.4286V7.57143ZM6.57143 9C6.25584 9 6 9.25584 6 9.57143V10.4286C6 10.7442 6.25584 11 6.57143 11C6.88702 11 7.14286 10.7442 7.14286 10.4286V9.57143C7.14286 9.25584 6.88702 9 6.57143 9ZM10 9C9.68441 9 9.42857 9.25584 9.42857 9.57143V10.4286C9.42857 10.7442 9.68441 11 10 11C10.3156 11 10.5714 10.7442 10.5714 10.4286V9.57143C10.5714 9.25584 10.3156 9 10 9Z" fill="#1D1D1D"/>
</svg>
