<svg width="40" height="40" viewBox="0 0 40 40" fill="none" xmlns="http://www.w3.org/2000/svg">
<circle cx="20" cy="20" r="20" fill="black" fill-opacity="0.2"/>
<path d="M13.2929 24.6064C12.9024 24.9969 12.9024 25.6301 13.2929 26.0206C13.6834 26.4111 14.3166 26.4111 14.7071 26.0206L13.2929 24.6064ZM26.3137 13.9998C26.3137 13.4475 25.866 12.9998 25.3137 12.9998L16.3137 12.9998C15.7614 12.9998 15.3137 13.4475 15.3137 13.9998C15.3137 14.5521 15.7614 14.9998 16.3137 14.9998L24.3137 14.9998L24.3137 22.9998C24.3137 23.5521 24.7614 23.9998 25.3137 23.9998C25.866 23.9998 26.3137 23.5521 26.3137 22.9998L26.3137 13.9998ZM14.7071 26.0206L26.0208 14.7069L24.6066 13.2927L13.2929 24.6064L14.7071 26.0206Z" fill="white"/>
</svg>
