<svg width="20" height="20" viewBox="0 0 20 20" fill="none" xmlns="http://www.w3.org/2000/svg">
<path d="M18.1712 8.368H17.5V8.33341H9.99999V11.6667H14.7096C14.0225 13.6072 12.1762 15.0001 9.99999 15.0001C7.23874 15.0001 4.99999 12.7613 4.99999 10.0001C4.99999 7.23883 7.23874 5.00008 9.99999 5.00008C11.2746 5.00008 12.4342 5.48091 13.3171 6.26633L15.6742 3.90925C14.1858 2.52216 12.195 1.66675 9.99999 1.66675C5.39791 1.66675 1.66666 5.398 1.66666 10.0001C1.66666 14.6022 5.39791 18.3334 9.99999 18.3334C14.6021 18.3334 18.3333 14.6022 18.3333 10.0001C18.3333 9.44133 18.2758 8.89591 18.1712 8.368Z" fill="#FFC107"/>
<path d="M2.62744 6.12133L5.36536 8.12925C6.10619 6.29508 7.90036 5.00008 9.99994 5.00008C11.2745 5.00008 12.4341 5.48091 13.317 6.26633L15.6741 3.90925C14.1858 2.52216 12.1949 1.66675 9.99994 1.66675C6.79911 1.66675 4.02327 3.47383 2.62744 6.12133Z" fill="#FF3D00"/>
<path d="M9.99996 18.3344C12.1525 18.3344 14.1083 17.5106 15.587 16.171L13.0079 13.9885C12.1432 14.6465 11.0864 15.0022 9.99996 15.001C7.83246 15.001 5.99204 13.6189 5.29871 11.6902L2.58121 13.7839C3.96037 16.4827 6.76121 18.3344 9.99996 18.3344Z" fill="#4CAF50"/>
<path d="M18.1712 8.36784H17.5V8.33325H10V11.6666H14.7096C14.3809 12.5901 13.7889 13.3971 13.0067 13.9878L13.0079 13.987L15.5871 16.1695C15.4046 16.3353 18.3333 14.1666 18.3333 9.99992C18.3333 9.44117 18.2758 8.89575 18.1712 8.36784Z" fill="#1976D2"/>
</svg>
