<svg width="40" height="40" viewBox="0 0 40 40" fill="none" xmlns="http://www.w3.org/2000/svg">
<circle cx="20" cy="20" r="20" fill="black" fill-opacity="0.15"/>
<path fill-rule="evenodd" clip-rule="evenodd" d="M12.5374 19.7293C12.5374 23.788 15.4801 26.5533 18.7854 27.1253C18.8753 27.1409 18.9613 27.174 19.0384 27.2228C19.1155 27.2716 19.1822 27.3352 19.2348 27.4098C19.2873 27.4844 19.3247 27.5686 19.3447 27.6576C19.3647 27.7466 19.367 27.8387 19.3514 27.9286C19.3358 28.0186 19.3027 28.1045 19.2539 28.1816C19.2051 28.2587 19.1416 28.3255 19.067 28.378C18.9924 28.4306 18.9081 28.4679 18.8191 28.4879C18.7301 28.5079 18.638 28.5102 18.5481 28.4946C14.6667 27.8226 11.1481 24.5506 11.1481 19.7293C11.1481 17.68 12.0801 16.0693 13.1681 14.8453C13.9481 13.968 14.8401 13.2546 15.5574 12.7093H13.3761C13.1993 12.7093 13.0297 12.6391 12.9047 12.514C12.7796 12.389 12.7094 12.2195 12.7094 12.0426C12.7094 11.8658 12.7796 11.6963 12.9047 11.5712C13.0297 11.4462 13.1993 11.376 13.3761 11.376H17.3761C17.5529 11.376 17.7225 11.4462 17.8475 11.5712C17.9725 11.6963 18.0427 11.8658 18.0427 12.0426V16.0426C18.0427 16.2195 17.9725 16.389 17.8475 16.514C17.7225 16.6391 17.5529 16.7093 17.3761 16.7093C17.1993 16.7093 17.0297 16.6391 16.9047 16.514C16.7796 16.389 16.7094 16.2195 16.7094 16.0426V13.5813L16.7081 13.584C15.9454 14.1573 15.0147 14.86 14.2081 15.768C13.2547 16.84 12.5374 18.1373 12.5374 19.7293ZM27.3481 20.2693C27.3481 16.2533 24.4681 13.5053 21.2054 12.892C21.1145 12.8765 21.0275 12.8432 20.9496 12.7938C20.8717 12.7444 20.8044 12.68 20.7517 12.6043C20.699 12.5286 20.6618 12.4432 20.6424 12.353C20.6231 12.2629 20.6218 12.1697 20.6388 12.0791C20.6558 11.9884 20.6907 11.9021 20.7415 11.825C20.7922 11.748 20.8577 11.6818 20.9343 11.6304C21.0109 11.579 21.0969 11.5433 21.1874 11.5255C21.2779 11.5077 21.3711 11.5081 21.4614 11.5266C25.2934 12.2466 28.7374 15.5 28.7374 20.2693C28.7374 22.3186 27.8054 23.928 26.7174 25.1533C25.9374 26.0306 25.0454 26.744 24.3281 27.2893H26.5094C26.6862 27.2893 26.8558 27.3595 26.9808 27.4846C27.1058 27.6096 27.1761 27.7792 27.1761 27.956C27.1761 28.1328 27.1058 28.3024 26.9808 28.4274C26.8558 28.5524 26.6862 28.6226 26.5094 28.6226H22.5094C22.3326 28.6226 22.163 28.5524 22.038 28.4274C21.913 28.3024 21.8427 28.1328 21.8427 27.956V23.956C21.8427 23.7792 21.913 23.6096 22.038 23.4846C22.163 23.3595 22.3326 23.2893 22.5094 23.2893C22.6862 23.2893 22.8558 23.3595 22.9808 23.4846C23.1058 23.6096 23.1761 23.7792 23.1761 23.956V26.416H23.1787C23.9401 25.84 24.8721 25.1386 25.6774 24.2293C26.6307 23.1586 27.3481 21.8626 27.3481 20.2693Z" fill="white"/>
</svg>
