<svg width="16" height="16" viewBox="0 0 16 16" fill="none" xmlns="http://www.w3.org/2000/svg">
<path d="M2.66666 8.66667C2.66666 7.40933 2.66666 6.78133 3.05732 6.39067C3.44799 6 4.07599 6 5.33332 6H10.6667C11.924 6 12.552 6 12.9427 6.39067C13.3333 6.78133 13.3333 7.40933 13.3333 8.66667V10C13.3333 11.8853 13.3333 12.8287 12.7473 13.414C12.162 14 11.2187 14 9.33332 14H6.66666C4.78132 14 3.83799 14 3.25266 13.414C2.66666 12.8287 2.66666 11.8853 2.66666 10V8.66667Z" stroke="white" stroke-width="1.2"/>
<path d="M10.6667 5.33333V4.66667C10.6667 3.95942 10.3857 3.28115 9.88564 2.78105C9.38555 2.28095 8.70727 2 8.00003 2C7.29278 2 6.6145 2.28095 6.11441 2.78105C5.61431 3.28115 5.33336 3.95942 5.33336 4.66667V5.33333" stroke="white" stroke-width="1.2" stroke-linecap="round"/>
<path d="M7.99999 11.3332C8.73637 11.3332 9.33332 10.7362 9.33332 9.99984C9.33332 9.26346 8.73637 8.6665 7.99999 8.6665C7.26361 8.6665 6.66666 9.26346 6.66666 9.99984C6.66666 10.7362 7.26361 11.3332 7.99999 11.3332Z" fill="white"/>
</svg>
