<svg width="40" height="40" viewBox="0 0 40 40" fill="none" xmlns="http://www.w3.org/2000/svg">
<circle cx="20" cy="20" r="20" fill="#FF2D55" fill-opacity="0.15"/>
<path d="M13.3333 20.8333C13.3333 19.2617 13.3333 18.4767 13.8217 17.9883C14.31 17.5 15.095 17.5 16.6667 17.5H23.3333C24.905 17.5 25.69 17.5 26.1783 17.9883C26.6667 18.4767 26.6667 19.2617 26.6667 20.8333V22.5C26.6667 24.8567 26.6667 26.0358 25.9342 26.7675C25.2025 27.5 24.0233 27.5 21.6667 27.5H18.3333C15.9767 27.5 14.7975 27.5 14.0658 26.7675C13.3333 26.0358 13.3333 24.8567 13.3333 22.5V20.8333Z" stroke="#FF2D55" stroke-width="1.5"/>
<path d="M23.3333 16.6667V15.8333C23.3333 14.9493 22.9821 14.1014 22.357 13.4763C21.7319 12.8512 20.8841 12.5 20 12.5C19.1159 12.5 18.2681 12.8512 17.643 13.4763C17.0179 14.1014 16.6667 14.9493 16.6667 15.8333V16.6667" stroke="#FF2D55" stroke-width="1.5" stroke-linecap="round"/>
<path d="M20 24.1668C20.9205 24.1668 21.6667 23.4206 21.6667 22.5002C21.6667 21.5797 20.9205 20.8335 20 20.8335C19.0795 20.8335 18.3333 21.5797 18.3333 22.5002C18.3333 23.4206 19.0795 24.1668 20 24.1668Z" fill="#FF2D55"/>
</svg>
