<svg width="18" height="14" viewBox="0 0 18 14" fill="none" xmlns="http://www.w3.org/2000/svg">
<path d="M3.0625 0.125C2.31658 0.125 1.60121 0.421316 1.07376 0.948762C0.546316 1.47621 0.25 2.19158 0.25 2.9375V11.0625C0.25 11.8084 0.546316 12.5238 1.07376 13.0512C1.60121 13.5787 2.31658 13.875 3.0625 13.875H14.9375C15.6834 13.875 16.3988 13.5787 16.9262 13.0512C17.4537 12.5238 17.75 11.8084 17.75 11.0625V2.9375C17.75 2.19158 17.4537 1.47621 16.9262 0.948762C16.3988 0.421316 15.6834 0.125 14.9375 0.125H3.0625ZM16.5 3.50187L9 7.54L1.5 3.50187V2.9375C1.5 2.5231 1.66462 2.12567 1.95765 1.83265C2.25067 1.53962 2.6481 1.375 3.0625 1.375H14.9375C15.3519 1.375 15.7493 1.53962 16.0424 1.83265C16.3354 2.12567 16.5 2.5231 16.5 2.9375V3.50187ZM1.5 4.92125L8.70375 8.80062C8.7948 8.84964 8.89659 8.8753 9 8.8753C9.10341 8.8753 9.2052 8.84964 9.29625 8.80062L16.5 4.92125V11.0625C16.5 11.4769 16.3354 11.8743 16.0424 12.1674C15.7493 12.4604 15.3519 12.625 14.9375 12.625H3.0625C2.6481 12.625 2.25067 12.4604 1.95765 12.1674C1.66462 11.8743 1.5 11.4769 1.5 11.0625V4.92125Z" fill="#1D1D1D"/>
</svg>
