<svg width="14" height="18" viewBox="0 0 14 18" fill="none" xmlns="http://www.w3.org/2000/svg">
<path d="M1.64249 5.57288C1.40374 4.00038 2.51249 2.58788 4.20624 2.07038C4.50681 1.9791 4.83085 2.00555 5.11265 2.14436C5.39445 2.28317 5.61291 2.52395 5.72374 2.81788L6.26749 4.26788C6.35502 4.50114 6.37085 4.75524 6.31294 4.99757C6.25503 5.2399 6.12603 5.45939 5.94249 5.62788L4.32499 7.10913C4.24516 7.18222 4.18568 7.27479 4.15237 7.37777C4.11907 7.48076 4.11308 7.59063 4.13499 7.69663L4.14999 7.76163L4.18874 7.92413C4.3904 8.71352 4.69687 9.47235 5.09999 10.1804C5.54014 10.9321 6.08568 11.617 6.71999 12.2141L6.76999 12.2591C6.85074 12.3308 6.94868 12.3803 7.05427 12.4029C7.15986 12.4255 7.2695 12.4203 7.37249 12.3879L9.46374 11.7291C9.7014 11.6545 9.95594 11.6526 10.1947 11.7236C10.4335 11.7947 10.6455 11.9355 10.8037 12.1279L11.7937 13.3291C12.2062 13.8291 12.1562 14.5641 11.6825 15.0054C10.3862 16.2141 8.60374 16.4616 7.36374 15.4654C5.84313 14.24 4.56168 12.7445 3.58374 11.0541C2.59623 9.36596 1.93838 7.50615 1.64249 5.57288ZM5.44499 7.77913L6.78499 6.54913C7.15228 6.2123 7.41053 5.77338 7.52657 5.28872C7.64261 4.80406 7.61116 4.29578 7.43624 3.82913L6.89374 2.37913C6.67118 1.78759 6.23179 1.30295 5.66484 1.02365C5.09788 0.744353 4.44587 0.691338 3.84124 0.875375C1.73749 1.51913 0.0487384 3.40538 0.406238 5.76163C0.656238 7.40663 1.23249 9.49913 2.50374 11.6841C3.55888 13.5068 4.94117 15.1192 6.58124 16.4404C8.44124 17.9341 10.9237 17.4241 12.5362 15.9216C12.9976 15.492 13.2777 14.9025 13.3193 14.2735C13.3609 13.6444 13.1608 13.0232 12.76 12.5366L11.77 11.3341C11.4533 10.9497 11.029 10.6687 10.5515 10.527C10.074 10.3854 9.56507 10.3896 9.08999 10.5391L7.35374 11.0854C6.90542 10.6232 6.51274 10.1101 6.18374 9.55663C5.86626 8.9969 5.61858 8.40037 5.44624 7.78038" fill="#1D1D1D"/>
</svg>
