<svg width="14" height="18" viewBox="0 0 14 18" fill="none" xmlns="http://www.w3.org/2000/svg">
<path d="M6.5 13.2301H7.5V7.57715H6.5V13.2301ZM7 6.00015C7.17467 6.00015 7.321 5.94115 7.439 5.82315C7.55633 5.70515 7.615 5.55915 7.615 5.38515C7.615 5.21048 7.556 5.06415 7.438 4.94615C7.32 4.82815 7.174 4.76948 7 4.77015C6.826 4.77081 6.68 4.82981 6.562 4.94715C6.444 5.06448 6.385 5.21081 6.385 5.38615C6.385 5.56148 6.444 5.70748 6.562 5.82415C6.68 5.94082 6.826 5.99948 7 6.00015ZM7 17.9621C4.99067 17.3655 3.32167 16.1485 1.993 14.3111C0.664333 12.4738 0 10.4035 0 8.10015V2.69215L7 0.0771484L14 2.69215V8.10015C14 10.4028 13.3357 12.4728 12.007 14.3101C10.6783 16.1475 9.00933 17.3641 7 17.9621ZM7 16.9011C8.73333 16.3511 10.1667 15.2511 11.3 13.6011C12.4333 11.9511 13 10.1178 13 8.10115V3.37515L7 1.14515L1 3.37515V8.10015C1 10.1168 1.56667 11.9501 2.7 13.6001C3.83333 15.2501 5.26667 16.3511 7 16.9011Z" fill="#1D1D1D"/>
</svg>
