<svg width="20" height="20" viewBox="0 0 20 20" fill="none" xmlns="http://www.w3.org/2000/svg">
<path fill-rule="evenodd" clip-rule="evenodd" d="M3.11111 6.73638V10V13.2636C3.11111 13.4404 3.18135 13.61 3.30637 13.735L6.26498 16.6936C6.39 16.8187 6.55957 16.8889 6.73638 16.8889H10H13.2636C13.4404 16.8889 13.61 16.8187 13.735 16.6936L16.6936 13.735C16.8187 13.61 16.8889 13.4404 16.8889 13.2636V10V6.73638C16.8889 6.55957 16.8187 6.39 16.6936 6.26498L13.735 3.30637C13.61 3.18135 13.4404 3.11111 13.2636 3.11111H10H6.73638C6.55957 3.11111 6.39 3.18135 6.26498 3.30637L3.30637 6.26498C3.18135 6.39 3.11111 6.55957 3.11111 6.73638ZM6.73638 2C6.26488 2 5.8127 2.1873 5.4793 2.5207L2.5207 5.4793C2.1873 5.8127 2 6.26488 2 6.73638V10V13.2636C2 13.7351 2.1873 14.1873 2.5207 14.5207L5.4793 17.4793C5.8127 17.8127 6.26488 18 6.73638 18H10H13.2636C13.7351 18 14.1873 17.8127 14.5207 17.4793L17.4793 14.5207C17.8127 14.1873 18 13.7351 18 13.2636V10V6.73638C18 6.26488 17.8127 5.8127 17.4793 5.4793L14.5207 2.5207C14.1873 2.1873 13.7351 2 13.2636 2H10H6.73638ZM9.11111 6.44444C9.11111 5.95352 9.50908 5.55556 10 5.55556C10.4909 5.55556 10.8889 5.95352 10.8889 6.44444V10.8889C10.8889 11.3798 10.4909 11.7778 10 11.7778C9.50908 11.7778 9.11111 11.3798 9.11111 10.8889V6.44444ZM10 12.6667C9.50908 12.6667 9.11111 13.0646 9.11111 13.5556C9.11111 14.0465 9.50908 14.4444 10 14.4444C10.4909 14.4444 10.8889 14.0465 10.8889 13.5556C10.8889 13.0646 10.4909 12.6667 10 12.6667Z" fill="#1D1D1D"/>
</svg>
