<svg width="20" height="20" viewBox="0 0 20 20" fill="none" xmlns="http://www.w3.org/2000/svg">
<path fill-rule="evenodd" clip-rule="evenodd" d="M5 3.125H15C16.5878 3.125 17.875 4.41218 17.875 6V12.4C17.875 13.9878 16.5878 15.275 15 15.275H6.54398C6.03533 15.275 5.53179 15.3765 5.06282 15.5734L2.125 16.8073V16.4V6C2.125 4.41218 3.41218 3.125 5 3.125ZM1 6C1 3.79086 2.79086 2 5 2H15C17.2091 2 19 3.79086 19 6V12.4C19 14.6091 17.2091 16.4 15 16.4H6.54398C6.18494 16.4 5.82949 16.4716 5.49846 16.6106L1.62425 18.2378C1.32769 18.3624 1 18.1446 1 17.8229V16.4V6ZM9.55608 6.2299C9.19335 6.03782 8.78991 5.93732 8.38 5.9375L8.37968 5.9375C6.96541 5.93768 5.8375 7.10372 5.8375 8.51888C5.8375 9.7403 6.53691 10.8379 7.32397 11.6483C8.11543 12.4633 9.08879 13.0852 9.8195 13.3328C9.93656 13.3724 10.0634 13.3724 10.1805 13.3328C10.9112 13.0852 11.8846 12.4633 12.676 11.6483C13.4631 10.8379 14.1625 9.7403 14.1625 8.51888C14.1625 7.10361 13.0344 5.9375 11.62 5.9375C11.0029 5.9375 10.4388 6.16078 10.0002 6.52913C9.86354 6.41436 9.71477 6.31393 9.55608 6.2299ZM8.38032 7.0625C8.60579 7.06237 8.82846 7.1176 9.02961 7.22411C9.23082 7.33066 9.40502 7.48566 9.53674 7.67691C9.64165 7.82923 9.81474 7.92024 9.99969 7.92034C10.1846 7.92045 10.3578 7.82962 10.4629 7.67742C10.7222 7.30177 11.1458 7.0625 11.62 7.0625C12.3926 7.0625 13.0375 7.70421 13.0375 8.51888C13.0375 9.31634 12.5669 10.1459 11.869 10.8646C11.25 11.5019 10.525 11.9761 10 12.1981C9.47499 11.9761 8.75 11.5019 8.13103 10.8646C7.43309 10.1459 6.9625 9.31634 6.9625 8.51888C6.9625 7.70421 7.60742 7.0625 8.38 7.0625L8.38032 7.0625Z" fill="#1D1D1D"/>
</svg>
