<svg width="12" height="12" viewBox="0 0 26 26" fill="none" xmlns="http://www.w3.org/2000/svg">
<path d="M11.7627 1.68983C12.3585 0.820476 13.6415 0.820476 14.2373 1.68983L17.4756 6.41486C17.8007 6.88918 18.2793 7.23695 18.8309 7.39954L24.3253 9.0192C25.3362 9.3172 25.7327 10.5374 25.09 11.3727L21.5969 15.9126C21.2463 16.3683 21.0634 16.931 21.0793 17.5058L21.2367 23.2319C21.2657 24.2854 20.2277 25.0395 19.2347 24.6864L13.8376 22.7672C13.2958 22.5745 12.7042 22.5745 12.1624 22.7672L6.76527 24.6864C5.77225 25.0395 4.73429 24.2854 4.76326 23.2319L4.92075 17.5058C4.93656 16.931 4.75373 16.3683 4.40307 15.9126L0.909988 11.3727C0.267294 10.5374 0.663761 9.3172 1.67468 9.0192L7.16913 7.39954C7.72069 7.23695 8.19935 6.88918 8.52442 6.41486L11.7627 1.68983Z" fill="#F6F5F8" stroke="#C5C5CE"/>
</svg>
