<svg width="18" height="17" viewBox="0 0 18 17" fill="none" xmlns="http://www.w3.org/2000/svg">
<path d="M6.7972 5.23489L9 1.45291L11.2028 5.23489C11.3538 5.49417 11.6069 5.67802 11.9001 5.74153L16.1777 6.66782L13.2615 9.93151C13.0616 10.1553 12.965 10.4527 12.9952 10.7513L13.4361 15.1057L9.43097 13.3408L9.1361 14.01L9.43097 13.3408C9.15639 13.2198 8.84361 13.2198 8.56903 13.3408L8.8639 14.01L8.56903 13.3408L4.56393 15.1057L5.00482 10.7513C5.03504 10.4527 4.93839 10.1553 4.73846 9.9315L1.82229 6.66782L6.09987 5.74153C6.39313 5.67802 6.64618 5.49417 6.7972 5.23489ZM16.6281 6.16371L16.6278 6.1641L16.6281 6.16371Z" stroke="#1D1D1D" stroke-width="1.4625"/>
</svg>
